<?xml version="1.0" encoding="UTF-8"?>
<svg xmlns="http://www.w3.org/2000/svg" viewBox="0 0 110.4 35.4" fill="#FFFFFF">
  <path fill-rule="evenodd" d="M 6.6 33.3 C 6.3 32.9 6.1 32.8 5.7 32.8 C 5.2 32.8 4.9 32.6 3.8 31.5 C 2.8 30.5 2.6 30.2 2.6 29.7 C 2.6 29.2 2.5 29.0 2.1 28.8 L 1.6 28.4 L 1.6 26.3 L 1.6 24.3 L 3.9 22.0 L 6.1 19.8 L 8.6 19.8 L 11.1 19.8 L 13.4 22.0 L 15.6 24.3 L 15.6 26.8 L 15.6 29.3 L 13.9 31.0 C 12.3 32.6 12.1 32.8 11.5 32.8 C 11.1 32.8 10.9 32.9 10.6 33.3 C 10.3 33.8 10.2 33.8 8.6 33.8 C 7.0 33.8 7.0 33.8 6.6 33.3 Z
         M 27.6 33.3 C 27.3 32.9 27.1 32.8 26.7 32.8 C 26.2 32.8 25.9 32.6 24.8 31.5 C 23.8 30.5 23.6 30.2 23.6 29.7 C 23.6 29.2 23.5 29.0 23.1 28.8 C 22.6 28.4 22.6 28.4 22.6 26.8 C 22.6 25.1 22.6 25.1 23.1 24.8 C 23.6 24.4 23.6 24.3 23.6 23.3 C 23.6 22.2 23.6 22.1 24.1 21.8 C 24.5 21.5 24.6 21.3 24.6 20.8 C 24.6 20.2 24.5 20.1 24.1 19.8 C 23.6 19.4 23.6 19.3 23.6 18.3 C 23.6 17.0 23.5 16.8 22.6 16.8 C 22.1 16.8 21.9 16.7 21.6 16.3 C 21.3 15.8 21.2 15.8 19.6 15.8 C 18.0 15.8 18.0 15.8 17.6 15.3 C 17.3 14.9 17.1 14.8 16.6 14.8 C 16.1 14.8 15.9 14.7 15.6 14.3 C 15.3 13.9 15.1 13.8 14.6 13.8 C 13.8 13.8 13.6 13.5 13.6 12.7 C 13.6 12.2 13.5 12.0 13.1 11.8 L 12.6 11.4 L 12.6 8.3 L 12.6 5.2 L 13.8 4.0 C 14.9 2.9 15.2 2.8 15.7 2.8 C 16.1 2.8 16.3 2.7 16.6 2.3 L 17.0 1.8 L 19.5 1.8 L 22.1 1.8 L 23.9 3.5 L 25.6 5.2 L 25.6 6.3 C 25.6 7.3 25.6 7.4 26.1 7.8 C 26.5 8.1 26.6 8.2 26.6 8.8 C 26.6 9.3 26.5 9.5 26.1 9.8 C 25.6 10.1 25.6 10.2 25.6 11.3 C 25.6 12.3 25.6 12.4 25.1 12.8 C 24.6 13.1 24.6 13.1 24.6 14.7 L 24.6 16.3 L 26.4 18.0 L 28.1 19.8 L 29.7 19.8 C 31.2 19.8 31.3 19.8 31.6 20.3 C 31.9 20.7 32.1 20.8 32.6 20.8 C 33.1 20.8 33.3 20.9 33.6 21.3 C 33.9 21.7 34.1 21.8 34.6 21.8 C 35.4 21.8 35.6 22.0 35.6 22.8 C 35.6 23.3 35.7 23.5 36.1 23.8 L 36.6 24.1 L 36.6 26.7 L 36.6 29.3 L 34.9 31.0 C 33.3 32.6 33.1 32.8 32.5 32.8 C 32.1 32.8 31.9 32.9 31.6 33.3 C 31.3 33.8 31.2 33.8 29.6 33.8 C 28.0 33.8 28.0 33.8 27.6 33.3 Z
         M 41.8 14.6 C 41.4 14.2 41.6 13.1 42.1 12.8 C 42.5 12.5 42.6 12.3 42.6 11.8 C 42.6 11.2 42.7 11.1 43.1 10.8 C 43.6 10.4 43.6 10.3 43.6 9.3 C 43.6 8.2 43.6 8.1 44.1 7.8 C 44.5 7.5 44.6 7.3 44.6 6.8 C 44.6 6.2 44.7 6.1 45.1 5.8 C 45.5 5.5 45.6 5.3 45.6 4.8 C 45.6 4.2 45.7 4.1 46.1 3.8 C 46.5 3.5 46.6 3.3 46.6 2.8 C 46.6 1.9 46.8 1.8 48.1 1.8 C 49.1 1.8 49.2 1.8 49.9 2.5 C 50.5 3.1 50.6 3.4 50.6 3.8 C 50.6 4.3 50.7 4.5 51.1 4.8 C 51.6 5.1 51.6 5.2 51.6 6.3 C 51.6 7.3 51.6 7.4 52.1 7.8 C 52.5 8.1 52.6 8.2 52.6 8.8 C 52.6 9.3 52.7 9.5 53.1 9.8 C 53.6 10.1 53.6 10.2 53.6 11.2 C 53.6 12.3 53.6 12.4 54.1 12.8 C 54.6 13.3 54.8 13.8 54.4 14.4 C 54.3 14.7 54.1 14.8 53.1 14.8 C 51.9 14.8 51.6 14.6 51.6 13.8 C 51.6 13.4 51.5 13.1 50.9 12.5 L 50.1 11.8 L 48.1 11.8 C 45.8 11.8 45.6 11.8 45.6 12.7 C 45.6 13.2 45.5 13.4 44.9 14.0 C 44.2 14.7 44.1 14.8 43.1 14.8 C 42.5 14.8 41.9 14.7 41.8 14.6 Z
         M 55.8 14.4 C 55.5 14.0 55.5 2.2 55.8 2.0 C 55.9 1.8 56.9 1.8 59.1 1.8 L 62.3 1.8 L 62.6 2.3 C 62.9 2.6 63.1 2.8 63.5 2.8 C 64.6 2.8 64.6 2.8 64.6 4.7 L 64.6 6.4 L 64.1 6.7 C 63.5 7.0 63.5 7.5 64.0 7.8 C 64.2 7.9 64.6 8.3 65.0 8.6 L 65.6 9.2 L 65.5 10.8 L 65.5 12.3 L 64.3 13.6 L 63.1 14.8 L 59.5 14.8 C 56.2 14.8 55.9 14.7 55.8 14.4 Z
         M 66.8 14.6 C 66.6 14.2 66.5 2.3 66.8 2.0 C 66.9 1.8 67.3 1.8 68.1 1.8 L 69.1 1.8 L 70.4 3.0 C 71.4 4.1 71.6 4.3 71.6 4.8 C 71.6 5.3 71.7 5.5 72.0 5.7 C 72.2 5.8 72.5 6.1 72.6 6.3 C 72.8 6.9 73.4 6.9 73.6 6.4 C 73.7 6.2 74.2 5.6 74.7 5.2 C 75.4 4.5 75.6 4.2 75.6 3.8 C 75.6 3.4 75.8 3.1 76.3 2.5 L 77.1 1.8 L 78.7 1.8 C 80.2 1.8 80.3 1.8 80.5 2.2 C 80.9 2.7 80.7 3.4 80.1 3.6 C 79.5 3.9 79.5 4.4 80.1 4.7 C 80.7 5.1 80.7 5.5 80.1 5.8 L 79.6 6.1 L 79.6 8.3 L 79.6 10.4 L 80.1 10.7 C 80.4 10.8 80.6 11.1 80.6 11.3 C 80.6 11.5 80.4 11.7 80.1 11.8 C 79.6 12.1 79.6 12.1 79.6 13.2 C 79.6 14.6 79.5 14.8 78.1 14.8 C 76.5 14.8 76.6 14.8 76.6 11.2 C 76.6 9.5 76.6 8.1 76.5 8.0 C 76.3 7.6 75.8 7.7 75.6 8.2 C 75.5 8.4 75.2 8.7 75.0 8.8 C 74.7 9.0 74.6 9.3 74.6 9.7 C 74.6 10.5 74.4 10.8 73.6 10.8 C 72.9 10.8 70.5 8.4 70.7 7.8 C 70.9 7.1 70.0 6.4 69.7 7.0 C 69.6 7.1 69.6 8.8 69.6 10.7 C 69.6 13.3 69.6 14.3 69.4 14.5 C 69.2 14.8 67.1 14.9 66.8 14.6 Z
         M 82.8 14.5 C 82.5 14.2 82.4 2.3 82.7 2.0 C 82.9 1.6 83.3 1.7 84.0 2.5 C 84.7 3.2 84.7 3.3 84.4 3.6 C 84.2 3.7 84.0 3.9 83.9 4.0 C 83.7 4.2 83.6 5.1 83.6 8.3 L 83.6 12.3 L 84.3 13.0 L 85.0 13.7 L 87.6 13.7 C 90.7 13.7 90.6 13.7 90.6 12.2 C 90.5 11.3 90.6 11.2 91.1 10.8 C 91.6 10.4 91.6 10.3 91.6 9.3 C 91.6 8.2 91.6 8.1 92.1 7.7 C 92.5 7.4 92.6 7.2 92.5 6.8 C 92.4 6.4 92.7 5.8 93.0 5.8 C 93.4 5.8 93.5 5.5 93.5 4.3 C 93.6 3.4 93.6 3.2 94.0 2.8 C 94.3 2.5 94.6 2.2 94.7 2.0 C 95.0 1.7 95.2 1.7 95.5 2.0 C 95.6 2.2 95.9 2.5 96.2 2.8 C 96.6 3.2 96.7 3.4 96.7 4.4 C 96.7 5.3 96.7 5.5 97.2 5.8 C 97.6 6.2 97.7 6.3 97.7 7.3 C 97.6 8.2 97.7 8.3 98.1 8.7 C 98.6 9.1 98.6 9.3 98.6 10.2 C 98.6 11.2 98.7 11.3 99.1 11.7 C 99.7 12.2 99.8 14.3 99.2 14.7 C 98.8 14.9 98.4 14.4 98.5 13.6 C 98.5 13.2 98.4 13.0 98.1 12.7 C 97.7 12.5 97.6 12.2 97.6 11.9 C 97.6 10.8 97.5 10.8 95.2 10.8 L 93.1 10.8 L 92.3 11.5 C 91.7 12.2 91.6 12.3 91.7 13.3 C 91.7 14.8 91.9 14.8 87.1 14.8 C 83.6 14.8 82.9 14.7 82.8 14.5 Z
         M 100.8 14.4 C 100.5 13.8 100.5 2.4 100.8 2.0 C 100.9 1.8 101.5 1.8 103.6 1.8 L 106.1 1.8 L 106.9 2.5 C 107.4 3.0 107.6 3.4 107.6 3.7 C 107.6 4.2 107.7 4.3 108.4 4.9 C 108.8 5.2 108.7 5.3 107.9 6.1 C 107.7 6.2 107.6 6.5 107.6 6.9 C 107.6 7.3 107.5 7.5 107.2 7.6 C 107.0 7.7 106.7 8.0 106.6 8.3 C 106.4 8.8 106.5 8.8 103.5 8.8 C 102.4 8.8 101.9 8.9 101.8 9.1 C 101.6 9.3 101.7 13.4 101.8 13.5 C 101.9 13.6 102.7 13.7 103.5 13.7 L 105.1 13.7 L 106.4 12.5 C 107.8 11.1 107.9 10.6 107.1 9.9 C 106.3 9.2 106.4 8.8 107.4 8.8 C 108.5 8.8 108.6 9.0 108.6 10.7 L 108.6 12.2 L 107.4 13.5 L 106.1 14.8 L 103.5 14.8 C 101.0 14.8 100.9 14.8 100.8 14.4 Z
         M 62.4 11.6 C 62.5 11.4 62.6 10.9 62.6 10.3 C 62.6 8.8 62.5 8.8 60.6 8.8 C 58.7 8.8 58.6 8.8 58.6 10.3 C 58.6 10.9 58.7 11.4 58.8 11.6 C 59.1 11.8 62.1 11.8 62.4 11.6 Z
         M 49.4 9.6 C 49.8 9.2 49.6 8.2 49.1 7.7 C 48.7 7.4 48.6 7.2 48.7 6.8 C 48.8 6.3 48.5 5.8 48.1 5.8 C 47.6 5.8 47.4 6.3 47.5 7.4 C 47.6 8.4 47.6 8.4 47.1 8.7 C 46.6 9.0 46.4 9.5 46.9 9.7 C 47.2 9.9 49.1 9.8 49.4 9.6 Z
         M 96.4 8.4 C 96.8 7.8 96.6 7.3 96.1 6.8 C 95.6 6.4 95.6 6.3 95.6 5.3 C 95.6 4.0 95.5 3.7 95.0 3.8 C 94.8 3.8 94.7 4.0 94.6 4.6 C 94.6 5.3 94.5 5.5 94.2 5.7 C 93.9 5.9 93.8 6.1 93.7 7.2 C 93.6 7.9 93.6 8.5 93.7 8.6 C 93.9 8.9 96.2 8.8 96.4 8.4 Z
         M 105.9 7.0 C 106.6 6.3 106.6 6.2 106.6 5.3 C 106.6 4.3 106.6 4.2 105.9 3.5 L 105.1 2.8 L 103.5 2.8 C 102.5 2.9 101.9 2.9 101.8 3.1 C 101.6 3.4 101.7 7.4 101.9 7.6 C 102.0 7.7 102.8 7.7 103.7 7.7 L 105.2 7.7 L 105.9 7.0 Z
         M 61.5 6.4 C 61.7 6.2 62.0 5.9 62.2 5.8 C 62.4 5.7 62.6 5.5 62.6 5.3 C 62.6 5.1 62.4 4.8 62.2 4.7 C 62.0 4.6 61.7 4.4 61.5 4.2 C 61.3 3.8 61.1 3.8 60.1 3.8 C 58.7 3.8 58.6 3.9 58.6 5.3 C 58.6 6.6 58.7 6.8 60.1 6.8 C 61.1 6.8 61.3 6.7 61.5 6.4 Z"/>
</svg>
