<?xml version="1.0" encoding="UTF-8"?>
<svg xmlns="http://www.w3.org/2000/svg" viewBox="0 0 887.7 94.6" fill="#FFFFFF">
  <path fill-rule="evenodd" d="M 13.5 79.0 C 13.9 78.0 20.4 63.0 27.9 45.7 L 41.6 14.2 L 47.9 14.2 L 54.2 14.2 L 68.4 46.7 C 76.3 64.6 82.7 79.6 82.7 80.0 C 82.8 80.4 79.8 80.7 76.1 80.5 L 69.4 80.2 L 65.7 71.7 L 62.1 63.2 L 48.1 62.9 L 34.1 62.7 L 30.2 71.7 L 26.4 80.7 L 19.6 80.7 C 13.6 80.7 12.9 80.5 13.5 79.0 Z
         M 89.8 47.2 L 89.8 13.7 L 95.8 13.7 L 101.8 13.7 L 102.0 41.0 L 102.3 68.2 L 119.5 68.5 L 136.8 68.8 L 136.8 74.7 L 136.8 80.7 L 113.3 80.7 L 89.8 80.7 L 89.8 47.2 Z
         M 143.8 47.1 L 143.8 13.5 L 163.0 13.9 C 180.4 14.3 182.7 14.5 186.4 16.4 C 200.4 23.8 203.0 41.0 191.9 51.8 C 186.0 57.5 181.6 58.7 166.8 58.7 L 155.8 58.7 L 155.8 69.7 L 155.8 80.7 L 149.8 80.7 L 143.8 80.7 L 143.8 47.1 Z
         M 205.8 47.2 L 205.8 13.7 L 211.8 13.7 L 217.8 13.7 L 217.8 27.7 L 217.8 41.7 L 233.3 41.6 L 248.8 41.6 L 248.8 27.7 L 248.8 13.7 L 255.3 13.7 L 261.8 13.7 L 261.8 47.2 L 261.8 80.7 L 255.3 80.7 L 248.8 80.7 L 248.8 66.7 L 248.8 52.7 L 233.3 52.7 L 217.8 52.7 L 217.8 66.7 L 217.8 80.7 L 211.8 80.7 L 205.8 80.7 L 205.8 47.2 Z
         M 268.8 80.0 C 268.8 78.9 295.9 16.5 297.1 15.0 C 297.7 14.2 300.4 13.7 303.7 13.7 L 309.4 13.7 L 323.3 45.5 C 330.9 62.9 337.3 78.0 337.6 79.0 C 338.0 80.5 337.2 80.7 331.6 80.7 L 325.1 80.7 L 321.2 71.7 L 317.4 62.7 L 303.4 62.9 L 289.4 63.2 L 285.7 71.7 L 282.1 80.2 L 275.4 80.5 C 271.8 80.7 268.8 80.4 268.8 80.0 Z
         M 365.8 47.2 L 365.8 13.7 L 382.5 13.7 C 401.2 13.8 406.7 14.6 411.5 18.3 C 418.9 23.9 421.1 35.1 416.2 42.2 L 413.7 46.0 L 416.6 49.1 C 424.8 57.7 423.6 69.9 414.0 76.4 C 408.9 79.8 402.2 80.7 383.2 80.7 L 365.8 80.7 L 365.8 47.2 Z
         M 428.8 47.3 L 428.8 13.7 L 446.2 13.7 C 467.2 13.7 472.1 14.6 477.7 19.4 C 483.5 24.3 485.2 28.0 485.2 35.9 C 485.2 43.9 482.1 49.5 475.8 52.7 L 471.8 54.8 L 480.3 67.5 L 488.8 80.2 L 482.7 80.5 C 474.4 80.9 475.1 81.4 466.5 68.3 L 458.8 56.7 L 450.3 56.7 L 441.9 56.7 L 441.6 68.5 L 441.3 80.2 L 435.0 80.5 L 428.8 80.8 L 428.8 47.3 Z
         M 514.3 79.2 C 507.3 76.6 500.8 70.8 496.9 63.7 C 491.9 54.7 491.6 40.5 496.1 31.9 C 499.6 25.2 505.0 19.8 511.3 16.7 C 518.9 12.9 536.1 13.0 543.3 16.9 C 567.3 29.7 567.4 65.1 543.4 77.5 C 537.0 80.7 521.1 81.7 514.3 79.2 Z
         M 583.8 53.2 L 583.8 25.7 L 572.8 25.7 L 561.8 25.7 L 561.8 19.7 L 561.8 13.7 L 589.8 13.7 L 617.8 13.7 L 617.8 19.7 L 617.8 25.7 L 606.8 25.7 L 595.8 25.7 L 595.8 53.2 L 595.8 80.7 L 589.8 80.7 L 583.8 80.7 L 583.8 53.2 Z
         M 624.8 47.2 L 624.8 13.7 L 630.8 13.7 L 636.7 13.7 L 637.0 27.5 L 637.3 41.2 L 652.8 41.2 L 668.3 41.2 L 668.6 27.5 L 668.8 13.7 L 674.8 13.7 L 680.8 13.7 L 680.8 47.2 L 680.8 80.7 L 674.8 80.7 L 668.8 80.7 L 668.6 67.0 L 668.3 53.2 L 652.8 53.2 L 637.3 53.2 L 637.0 67.0 L 636.7 80.7 L 630.8 80.7 L 624.8 80.7 L 624.8 47.2 Z
         M 690.8 47.2 L 690.8 13.7 L 716.8 13.7 L 742.8 13.7 L 742.8 19.7 L 742.8 25.7 L 723.3 25.7 L 703.8 25.7 L 703.8 33.7 L 703.8 41.7 L 720.8 41.7 L 737.8 41.7 L 737.8 47.2 L 737.8 52.7 L 720.8 52.7 L 703.8 52.7 L 703.8 60.7 L 703.8 68.7 L 723.3 68.7 L 742.8 68.7 L 742.8 74.7 L 742.8 80.7 L 716.8 80.7 L 690.8 80.7 L 690.8 47.2 Z
         M 752.8 47.1 L 752.8 13.5 L 773.0 13.9 C 795.0 14.3 798.1 15.0 803.4 20.9 C 812.1 30.4 810.4 46.3 800.1 52.4 L 795.9 54.9 L 804.3 67.5 L 812.8 80.2 L 805.6 80.5 C 800.1 80.7 798.1 80.5 797.3 79.3 C 796.8 78.5 793.2 73.1 789.5 67.3 L 782.7 56.7 L 773.7 56.7 L 764.8 56.7 L 764.8 68.7 L 764.8 80.7 L 758.8 80.7 L 752.8 80.7 L 752.8 47.1 Z
         M 833.8 79.8 C 824.0 76.7 816.8 68.3 816.8 60.3 L 816.8 56.7 L 822.7 56.7 L 828.6 56.7 L 829.2 60.2 C 831.0 69.5 851.5 73.2 859.0 65.6 C 864.3 60.3 861.6 57.0 849.3 53.7 C 831.6 49.1 827.6 47.5 823.1 43.2 C 819.0 39.3 818.8 38.8 818.8 33.3 C 818.8 20.1 827.4 13.7 845.2 13.7 C 861.1 13.7 871.8 21.4 871.8 32.8 C 871.8 35.7 871.7 35.7 866.0 35.7 C 860.4 35.7 860.2 35.6 859.2 32.5 C 857.9 28.0 854.1 25.6 847.1 25.0 C 837.6 24.1 830.8 27.2 830.8 32.3 C 830.8 35.8 834.5 37.7 847.2 40.9 C 865.5 45.6 872.1 49.9 873.5 58.1 C 874.8 66.3 870.7 73.6 862.4 78.0 C 858.0 80.3 839.0 81.5 833.8 79.8 Z
         M 532.6 68.7 C 554.5 64.0 554.3 30.3 532.3 25.7 C 517.1 22.6 505.4 31.9 505.3 47.2 C 505.3 58.5 511.0 66.2 521.4 68.6 C 526.7 69.9 527.0 69.9 532.6 68.7 Z
         M 407.9 65.9 C 410.5 62.7 410.3 59.4 407.4 56.0 C 405.0 53.2 404.9 53.2 391.4 52.9 L 377.8 52.6 L 377.8 60.7 L 377.8 68.9 L 391.9 68.5 C 405.3 68.2 406.1 68.1 407.9 65.9 Z
         M 53.2 42.5 C 51.2 37.9 49.2 33.3 48.8 32.2 C 48.1 30.4 47.9 30.6 46.6 33.7 C 41.1 46.5 39.8 49.7 39.8 50.2 C 39.8 50.5 43.6 50.7 48.3 50.7 L 56.7 50.7 L 53.2 42.5 Z
         M 311.4 49.2 C 309.4 44.0 303.5 30.7 303.3 30.9 C 303.1 31.1 301.8 34.1 300.3 37.7 C 298.8 41.3 296.9 45.7 296.1 47.5 L 294.8 50.7 L 303.4 50.7 C 310.7 50.7 311.9 50.5 311.4 49.2 Z
         M 182.9 43.8 C 186.8 39.9 187.0 33.2 183.4 29.0 C 181.0 26.3 180.8 26.2 168.4 25.9 L 155.8 25.6 L 155.8 36.1 L 155.8 46.7 L 167.9 46.7 C 179.9 46.7 180.0 46.7 182.9 43.8 Z
         M 468.4 43.4 C 471.9 41.6 472.8 40.0 472.8 35.6 C 472.8 27.8 468.7 25.7 453.3 25.7 L 441.8 25.7 L 441.8 35.8 L 441.8 46.0 L 453.5 45.5 C 461.8 45.2 466.2 44.6 468.4 43.4 Z
         M 791.5 43.9 C 795.3 41.8 796.8 39.6 796.8 36.1 C 796.8 27.8 792.7 25.7 776.3 25.7 L 764.8 25.7 L 764.8 35.0 C 764.8 40.2 765.1 44.7 765.5 45.2 C 766.7 46.3 789.0 45.2 791.5 43.9 Z
         M 404.5 38.3 C 406.4 36.0 406.8 34.7 406.4 32.3 C 405.3 26.6 403.0 25.7 389.7 25.7 L 377.8 25.7 L 377.8 33.0 C 377.8 37.1 378.1 40.7 378.5 41.1 C 379.0 41.6 384.4 41.7 390.6 41.5 C 401.7 41.2 402.0 41.1 404.5 38.3 Z"/>
</svg>
