<?xml version="1.0" encoding="UTF-8"?>
<!-- Generator: visioncortex VTracer 0.6.12 -->
<svg version="1.1" xmlns="http://www.w3.org/2000/svg" width="1200" height="630">
<path d="M0 0 C0.78938965 0.00829834 1.5787793 0.01659668 2.39208984 0.02514648 C11.72282591 0.29483758 18.47730376 3.00490598 25.3046875 9.4453125 C32.91967888 17.77931594 35.6506464 25.58475108 35.42578125 36.83984375 C34.55481384 47.25751888 29.96367791 54.64239797 22.125 61.4375 C13.20971974 68.27755423 3.26062826 68.79247779 -7.56787109 67.78320312 C-15.70755506 66.56354254 -22.43713561 62.14293748 -27.40625 55.67578125 C-33.64788029 46.16393508 -35.12110312 37.60669956 -33.875 26.4375 C-32.95588157 22.81234761 -31.67584167 19.70662373 -29.875 16.4375 C-29.318125 15.385625 -28.76125 14.33375 -28.1875 13.25 C-20.67366586 4.11155307 -11.71074255 -0.15933837 0 0 Z " fill="#F9F9F9" transform="translate(683.875,280.5625)"/>
<path d="M0 0 C2.8875 -0.0309375 2.8875 -0.0309375 17.5 -0.1875 C18.40331055 -0.20115601 18.40331055 -0.20115601 22.97460938 -0.27026367 C24.43098282 -0.27903796 25.88736371 -0.28667966 27.34375 -0.29296875 C28.08012695 -0.30831665 28.81650391 -0.32366455 29.57519531 -0.33947754 C36.35414579 -0.34284457 42.66683375 1.26490069 47.875 5.875 C48.15214844 6.11089844 48.15214844 6.11089844 49.5546875 7.3046875 C53.33524522 11.73917953 53.41146116 16.62166644 53.3359375 22.1953125 C52.82504258 26.46069101 51.20764717 29.34358437 49 33 C49.78375 33.763125 50.5675 34.52625 51.375 35.3125 C55.40297411 39.43637826 56.30950659 41.63422162 56.375 47.3125 C56.2597868 54.22529179 54.68387018 57.39068177 49.75 62.1875 C43.1975742 66.50614428 37.33598937 67.43949301 29.6875 67.29296875 C28.92888672 67.28994751 28.17027344 67.28692627 27.38867188 67.28381348 C24.59230676 67.26828122 21.79613769 67.22639899 19 67.1875 C12.73 67.125625 6.46 67.06375 0 67 C0 44.89 0 22.78 0 0 Z " fill="#FBFBFB" transform="translate(523,281)"/>
<path d="M0 0 C6.105 -0.061875 12.21 -0.12375 18.5 -0.1875 C20.41103516 -0.21481201 22.32207031 -0.24212402 24.29101562 -0.27026367 C25.82942068 -0.27903694 27.36783278 -0.28667888 28.90625 -0.29296875 C29.29603027 -0.3006427 29.29603027 -0.3006427 31.26855469 -0.33947754 C39.00678612 -0.34311849 46.05784444 1.85013184 52 7 C56.34962208 13.2547336 58.33696915 19.42384146 57 27 C55.24923519 32.4012957 52.74632911 35.79622785 48 39 C46.66318744 39.99534414 45.32926698 40.99460104 44 42 C44.24234375 42.34313232 44.24234375 42.34313232 45.46875 44.07958984 C47.26156304 46.62271238 49.05016329 49.16872789 50.8359375 51.71679688 C51.61029621 52.81986826 52.38633237 53.92176401 53.1640625 55.02246094 C54.28042864 56.60303035 55.39031361 58.18817123 56.5 59.7734375 C57.1703125 60.72653809 57.840625 61.67963867 58.53125 62.66162109 C60 65 60 65 60 67 C54.97681173 67.96445215 49.8862563 68.85353556 45 67 C40.83815918 63.23149247 38.45715393 57.9656849 36.02587891 52.98730469 C35.04204692 51.08145215 33.95206278 49.3619849 32.73046875 47.6015625 C31 45 31 45 31 43 C25.06 43 19.12 43 13 43 C13 50.92 13 58.84 13 67 C8.71 67 4.42 67 0 67 C0 44.89 0 22.78 0 0 Z " fill="#F7F8F8" transform="translate(586,281)"/>
<path d="M0 0 C6.06375 -0.0825 12.1275 -0.165 18.375 -0.25 C20.26782715 -0.28641602 22.1606543 -0.32283203 24.11083984 -0.36035156 C33.91801615 -0.4721779 42.54180435 -0.49244855 50.47265625 6.03515625 C50.99730469 6.70417969 51.52195312 7.37320312 52.0625 8.0625 C52.61035156 8.73410156 53.15820312 9.40570313 53.72265625 10.09765625 C57.38201163 15.54752191 56.61675508 22.73543158 56 29 C54.38638162 33.44581994 52.10853679 36.15540054 48.375 39 C46 40 46 40 43 40 C43.51498047 40.78238037 44.02996094 41.56476074 44.56054688 42.37084961 C46.46325112 45.26386406 48.36391207 48.15819874 50.26318359 51.0534668 C51.08690668 52.30823803 51.91144967 53.56247142 52.73681641 54.81616211 C53.92043629 56.61432653 55.10113066 58.41438064 56.28125 60.21484375 C56.99345703 61.29886475 57.70566406 62.38288574 58.43945312 63.49975586 C60 66 60 66 60 67 C54.87951271 68.27481011 49.92902503 69.21447273 45 67 C39.89228586 61.99566538 36.52246801 55.43650799 33.18237305 49.17651367 C32 47 32 47 30 44 C28.12060547 43.56762695 28.12060547 43.56762695 25.8671875 43.48828125 C25.50423584 43.47172485 25.50423584 43.47172485 23.66748047 43.38793945 C23.20672119 43.37549194 23.20672119 43.37549194 20.875 43.3125 C17.94625 43.209375 15.0175 43.10625 12 43 C12 50.92 12 58.84 12 67 C8.04 67 4.08 67 0 67 C0 44.89 0 22.78 0 0 Z " fill="#FAFAFA" transform="translate(910,281)"/>
<path d="M0 0 C5.89875 -0.0825 11.7975 -0.165 17.875 -0.25 C18.79531006 -0.26820801 18.79531006 -0.26820801 23.45263672 -0.36035156 C33.4346629 -0.47539052 41.70263812 -0.14576147 49.875 6.25 C54.42328652 12.13601785 56.66072542 16.98897408 56.32421875 24.54296875 C55.52708917 30.58386637 53.34202815 35.65797185 49 40 C43.28079086 44.04030049 38.15572493 45.13452259 31.26171875 45.09765625 C30.19501953 45.09443359 29.12832031 45.09121094 28.02929688 45.08789062 C27.47790039 45.08370117 27.47790039 45.08370117 24.6875 45.0625 C23.56537109 45.05798828 22.44324219 45.05347656 21.28710938 45.04882812 C18.52471664 45.03707326 15.76235144 45.01913869 13 45 C13 52.26 13 59.52 13 67 C8.71 67 4.42 67 0 67 C0 44.89 0 22.78 0 0 Z " fill="#F6F6F6" transform="translate(300,281)"/>
<path d="M0 0 C17.16 0 34.32 0 52 0 C52 3.96 52 7.92 52 12 C39.13 12 26.26 12 13 12 C13 17.28 13 22.56 13 28 C24.22 28 35.44 28 47 28 C47 31.63 47 35.26 47 39 C35.45 39 23.9 39 12 39 C12 44.28 12 49.56 12 55 C25.2 55 38.4 55 52 55 C52 58.96 52 62.92 52 67 C34.84 67 17.68 67 0 67 C0 44.89 0 22.78 0 0 Z " fill="#FAFAFA" transform="translate(848,281)"/>
<path d="M0 0 C4.29 0 8.58 0 13 0 C17.99111345 10.44651653 22.6433767 21.02337311 27.22259521 31.65545654 C31.20220151 40.89533345 35.24404126 50.10210778 39.46044922 59.23706055 C42 64.7896888 42 64.7896888 42 67 C37.38 67 32.76 67 28 67 C26.82887054 64.37690901 25.66294036 61.75171858 24.5 59.125 C24.16613281 58.37863281 23.83226562 57.63226563 23.48828125 56.86328125 C23.17246094 56.14785156 22.85664063 55.43242187 22.53125 54.6953125 C22.23798828 54.03547363 21.94472656 53.37563477 21.64257812 52.69580078 C21 51 21 51 21 49 C11.76 49.33 2.52 49.66 -7 50 C-10.4375 57.9375 -10.4375 57.9375 -11.51733398 60.44116211 C-13.88888889 65.88888889 -13.88888889 65.88888889 -15 67 C-17.18639453 67.07258946 -19.37500389 67.08373783 -21.5625 67.0625 C-22.76003906 67.05347656 -23.95757812 67.04445313 -25.19140625 67.03515625 C-25.65482422 67.02935547 -25.65482422 67.02935547 -28 67 C-27.35305038 62.97675303 -26.08625054 59.58707833 -24.4453125 55.86328125 C-23.9179248 54.65800781 -23.39053711 53.45273437 -22.84716797 52.2109375 C-22.27312689 50.91145175 -21.69907056 49.61197273 -21.125 48.3125 C-19.9403796 45.61169447 -18.75925883 42.90936303 -17.578125 40.20703125 C-17.27893158 39.52371735 -16.97973816 38.84040344 -16.67147827 38.13638306 C-13.2055862 30.20867713 -9.85480854 22.23325767 -6.51611328 14.2512207 C-4.4851019 9.41657289 -2.43440142 4.64604716 0 0 Z " fill="#F9F9F9" transform="translate(454,281)"/>
<path d="M0 0 C0.59748047 0.00580078 0.59748047 0.00580078 3.62109375 0.03515625 C4.21986328 0.03966797 4.21986328 0.03966797 7.25 0.0625 C8.17683594 0.07410156 9.10367188 0.08570313 10.05859375 0.09765625 C10.85416667 1.93359375 11.64973958 3.76953125 12.4453125 5.60546875 C12.96569092 6.8061499 13.48606934 8.00683105 14.0222168 9.24389648 C15.18197822 11.92016981 16.34090248 14.59680367 17.49926758 17.27368164 C20.26787212 23.66984015 23.0403062 30.06415794 25.83708191 36.44805908 C27.0242449 39.15848852 28.2082282 41.87030167 29.39199829 44.58221436 C29.95728597 45.87477947 30.5241378 47.16666176 31.09262085 48.45782471 C31.89129002 50.27220137 32.68403316 52.08918304 33.4765625 53.90625 C33.70226929 54.42086792 33.70226929 54.42086792 34.84448242 57.02514648 C36.15976021 60.35367473 37.12820829 63.64398958 38.05859375 67.09765625 C33.76859375 67.09765625 29.47859375 67.09765625 25.05859375 67.09765625 C22.20236306 61.46239029 19.55195264 55.91549365 17.05859375 50.09765625 C12.43859375 49.93265625 12.43859375 49.93265625 -10.94140625 49.09765625 C-11.93140625 52.06765625 -12.92140625 55.03765625 -13.94140625 58.09765625 C-15.19124207 61.14491482 -16.56350745 64.1042899 -17.94140625 67.09765625 C-22.56140625 67.09765625 -27.18140625 67.09765625 -31.94140625 67.09765625 C-30.7618028 63.55884589 -29.67778849 60.31716144 -28.18896484 56.9543457 C-27.8545639 56.1952742 -27.52016296 55.4362027 -27.17562866 54.65412903 C-26.81731964 53.84787582 -26.45901062 53.04162262 -26.08984375 52.2109375 C-25.71211823 51.35445114 -25.3343927 50.49796478 -24.94522095 49.61552429 C-23.73815673 46.87927112 -22.52757554 44.14459455 -21.31640625 41.41015625 C-19.73884985 37.84464593 -18.16332455 34.27824828 -16.58984375 30.7109375 C-16.20334656 29.835513 -15.81684937 28.9600885 -15.41864014 28.05813599 C-12.32501097 21.0268882 -9.33054116 13.95642905 -6.39682007 6.85700989 C-3.59580191 0.11938253 -3.59580191 0.11938253 0 0 Z " fill="#F9F9F9" transform="translate(201.94140625,280.90234375)"/>
<path d="M0 0 C0.46668091 0.00286011 0.46668091 0.00286011 2.82836914 0.01733398 C10.88008954 0.22668012 16.66615575 1.61214435 22.5703125 7.3203125 C27.27732878 12.55276315 27.79961329 15.54897598 27.6875 22.5 C23.7275 22.5 19.7675 22.5 15.6875 22.5 C15.336875 21.406875 14.98625 20.31375 14.625 19.1875 C13.27937858 16.1382478 12.688571 15.50070641 9.75 13.5625 C4.65834462 11.8146183 -1.02506987 11.76523451 -6.3125 12.5 C-8.55385577 13.66750287 -10.52093444 14.70843444 -12.3125 16.5 C-12.35313832 18.16617115 -12.355221 19.83388095 -12.3125 21.5 C-6.58044687 24.60212944 -1.264479 26.46702897 5.0625 27.9375 C24.16988187 32.72449522 24.16988187 32.72449522 28.91015625 40.484375 C30.97989325 45.85113024 30.42018444 51.4757466 28.3125 56.75 C25.099854 62.467814 18.7173483 65.49005057 12.6875 67.5 C1.97536122 68.53059285 -9.57568397 69.24680375 -19.01953125 63.46875 C-24.21710746 59.00609513 -27.26001263 53.66854384 -28.1875 46.875 C-28.22875 45.76125 -28.27 44.6475 -28.3125 43.5 C-24.0225 43.5 -19.7325 43.5 -15.3125 43.5 C-15.10625 44.5725 -14.9 45.645 -14.6875 46.75 C-13.02367237 51.28771171 -11.55756099 52.33585126 -7.3125 54.5 C-0.79771948 56.11790907 6.03140437 56.5532793 12.3125 54.0625 C14.6875 52.5 14.6875 52.5 15.6875 51.5 C16.0625 48.625 16.0625 48.625 15.6875 45.5 C10.54594811 41.29327572 3.26536939 40.40724617 -3.03320312 38.83789062 C-11.4138852 36.66978243 -18.5718387 34.2844179 -24.3125 27.5 C-25.98232364 22.49052908 -26.20261456 17.70523516 -25.3125 12.5 C-19.46500026 2.30397889 -11.03117018 -0.07774667 0 0 Z " fill="#FAFAFA" transform="translate(1001.3125,280.5)"/>
<path d="M0 0 C3.96 0 7.92 0 12 0 C12 9.24 12 18.48 12 28 C22.23 28 32.46 28 43 28 C43 18.76 43 9.52 43 0 C47.29 0 51.58 0 56 0 C56 22.11 56 44.22 56 67 C51.71 67 47.42 67 43 67 C43 57.76 43 48.52 43 39 C32.77 39 22.54 39 12 39 C12 48.24 12 57.48 12 67 C8.04 67 4.08 67 0 67 C0 44.89 0 22.78 0 0 Z " fill="#FAFAFA" transform="translate(363,281)"/>
<path d="M0 0 C3.96 0 7.92 0 12 0 C12 9.24 12 18.48 12 28 C22.56 28 33.12 28 44 28 C44 18.76 44 9.52 44 0 C47.96 0 51.92 0 56 0 C56 22.11 56 44.22 56 67 C52.04 67 48.08 67 44 67 C44 57.76 44 48.52 44 39 C33.44 39 22.88 39 12 39 C12 48.24 12 57.48 12 67 C8.04 67 4.08 67 0 67 C0 44.89 0 22.78 0 0 Z " fill="#FDFDFD" transform="translate(782,281)"/>
<path d="M0 0 C4.74532688 2.90909169 8.31149915 7.198147 10.375 12.375 C11.2048995 20.21079532 11.43972981 27.95863985 6.375 34.375 C1.76290171 39.1720755 -2.52596741 41.60421571 -9.20996094 41.85742188 C-16.10676528 41.91508211 -21.3115472 41.73800311 -26.921875 37.23046875 C-32.1032231 31.58565144 -34.07807637 24.67452854 -33.95703125 17.13671875 C-33.15143872 10.43608439 -29.99343698 4.97250313 -24.75 0.75 C-17.60690226 -3.46167572 -7.51422989 -3.36500618 0 0 Z " fill="#1A2225" transform="translate(695.625,294.625)"/>
<path d="M0 0 C18.48 0 36.96 0 56 0 C56 3.96 56 7.92 56 12 C48.74 12 41.48 12 34 12 C34 30.15 34 48.3 34 67 C30.04 67 26.08 67 22 67 C22 48.85 22 30.7 22 12 C14.74 12 7.48 12 0 12 C0 8.04 0 4.08 0 0 Z " fill="#FCFCFC" transform="translate(719,281)"/>
<path d="M0 0 C4.29 0 8.58 0 13 0 C13 18.15 13 36.3 13 55 C24.22 55 35.44 55 47 55 C47 58.96 47 62.92 47 67 C31.49 67 15.98 67 0 67 C0 44.89 0 22.78 0 0 Z " fill="#F5F5F5" transform="translate(247,281)"/>
<path d="M0 0 C82.17 0 164.34 0 249 0 C249.33 0.66 249.66 1.32 250 2 C168.16 2 86.32 2 2 2 C2 68 2 134 2 202 C6.29 202 10.58 202 15 202 C15 202.33 15 202.66 15 203 C4.77 203 -5.46 203 -16 203 C-16 202.67 -16 202.34 -16 202 C-10.72 202 -5.44 202 0 202 C0 135.34 0 68.68 0 0 Z " fill="#3D4446" transform="translate(391,106)"/>
<path d="M0 0 C3.54213083 -0.08118636 7.08238743 -0.14059277 10.625 -0.1875 C11.62402344 -0.21263672 12.62304688 -0.23777344 13.65234375 -0.26367188 C19.16749448 -0.31845814 23.30403164 -0.2598227 28 3 C30.68209911 7.02314866 30.68843415 10.27219919 30 15 C27.88608123 18.49890004 26.88263941 19.70578686 23 21 C21.22686149 21.08209792 19.45079225 21.10746294 17.67578125 21.09765625 C16.64775391 21.09443359 15.61972656 21.09121094 14.56054688 21.08789062 C13.48869141 21.07951172 12.41683594 21.07113281 11.3125 21.0625 C10.22904297 21.05798828 9.14558594 21.05347656 8.02929688 21.04882812 C5.35284106 21.03703757 2.67641361 21.01910208 0 21 C0 14.07 0 7.14 0 0 Z " fill="#141B1D" transform="translate(313,293)"/>
<path d="M0 0 C4.04238572 -0.1081173 8.0818685 -0.18738513 12.125 -0.25 C13.26710938 -0.28351563 14.40921875 -0.31703125 15.5859375 -0.3515625 C26.20998773 -0.47509797 26.20998773 -0.47509797 31 4 C32.59745879 7.19491759 32.50816842 10.53209389 32 14 C29.79259319 16.96858157 28.51402627 17.82865791 25 19 C23.08093083 19.08266486 21.15910526 19.10740663 19.23828125 19.09765625 C18.12001953 19.09443359 17.00175781 19.09121094 15.84960938 19.08789062 C14.68236328 19.07951172 13.51511719 19.07113281 12.3125 19.0625 C11.13365234 19.05798828 9.95480469 19.05347656 8.74023438 19.04882812 C5.82680133 19.03703285 2.91339433 19.01909727 0 19 C0 12.73 0 6.46 0 0 Z " fill="#161D1F" transform="translate(922,293)"/>
<path d="M0 0 C3.87575108 -0.1081605 7.74846959 -0.1874032 11.625 -0.25 C12.17220703 -0.26675781 12.17220703 -0.26675781 14.94140625 -0.3515625 C21.29357779 -0.42855852 25.18340801 -0.30698669 30 4 C31.56941198 5.56941198 31.2449847 7.14134994 31.3125 9.3125 C31.28036129 12.68170775 31.22090765 13.69529979 29.1875 16.5 C25.57892913 18.9744486 22.71700063 19.12019577 18.45703125 19.09765625 C17.38388672 19.09443359 16.31074219 19.09121094 15.20507812 19.08789062 C14.08552734 19.07951172 12.96597656 19.07113281 11.8125 19.0625 C10.68134766 19.05798828 9.55019531 19.05347656 8.38476562 19.04882812 C5.58982124 19.03703511 2.79490401 19.01909957 0 19 C0 12.73 0 6.46 0 0 Z " fill="#1B2326" transform="translate(599,293)"/>
<path d="M0 0 C4.06290008 -0.08095816 8.12418567 -0.14048645 12.1875 -0.1875 C12.76274414 -0.20006836 12.76274414 -0.20006836 15.67382812 -0.26367188 C16.22973633 -0.26850586 16.22973633 -0.26850586 19.04296875 -0.29296875 C20.06414795 -0.3086792 21.08532715 -0.32438965 22.13745117 -0.34057617 C25.48707631 0.05795066 27.30316765 1.00170773 30 3 C32 6 32 6 31.9375 9.5 C31 13 31 13 28.82739258 14.70043945 C25.56927251 16.19797621 23.39678041 16.34576523 19.82421875 16.29296875 C19.24575195 16.28813477 19.24575195 16.28813477 16.31835938 16.26367188 C15.71926758 16.25110352 15.71926758 16.25110352 12.6875 16.1875 C12.07874023 16.18073242 12.07874023 16.18073242 8.99804688 16.14648438 C5.99850807 16.11119568 2.99919734 16.05739074 0 16 C0 10.72 0 5.44 0 0 Z " fill="#1F272A" transform="translate(535,320)"/>
<path d="M0 0 C3.89699187 -0.13499972 7.78930653 -0.2341331 11.6875 -0.3125 C12.23889648 -0.33344727 12.23889648 -0.33344727 15.02929688 -0.43945312 C23.20159848 -0.56290179 23.20159848 -0.56290179 27.2578125 2.296875 C29 5 29 5 29.1875 8.5625 C27.98435801 12.04527945 27.09652562 13.29086044 24.00805664 15.21264648 C19.74333102 16.88483374 15.13135651 16.40118099 10.625 16.25 C9.60277344 16.23195313 8.58054687 16.21390625 7.52734375 16.1953125 C5.01782302 16.14840557 2.50878783 16.07666924 0 16 C0 10.72 0 5.44 0 0 Z " fill="#232C2E" transform="translate(535,293)"/>
<path d="M0 0 C2.8301913 3.38263104 4.5032781 7.09118459 6.1875 11.125 C6.32381836 11.44146484 6.32381836 11.44146484 7.01367188 13.04296875 C9 17.7324953 9 17.7324953 9 20 C3.39 20 -2.22 20 -8 20 C-2.71428571 6.14285714 -2.71428571 6.14285714 0 0 Z " fill="#232C2F" transform="translate(460,298)"/>
<path d="M0 0 C2.13120262 3.19680393 3.62001109 6.48595891 5.125 10 C5.40214844 10.6290625 5.67929688 11.258125 5.96484375 11.90625 C7.20009858 14.7783696 8 16.83945116 8 20 C2.72 20 -2.56 20 -8 20 C-5.83836487 13.06001352 -3.1063786 6.56882431 0 0 Z " fill="#1A2022" transform="translate(205,298)"/>
</svg>
