<?xml version="1.0" encoding="UTF-8"?>
<svg xmlns="http://www.w3.org/2000/svg" viewBox="0 0 893.8 262.8" fill="#FFFFFF">
  <path fill-rule="evenodd" d="M 120.0 249.3 C 119.8 249.1 118.1 248.7 116.3 248.5 C 114.4 248.3 111.8 248.0 110.3 247.7 C 108.9 247.4 106.6 246.9 105.3 246.7 C 101.9 246.1 94.4 243.7 89.3 241.7 C 87.9 241.1 85.6 240.2 84.2 239.7 C 81.9 238.8 80.8 238.2 72.9 233.8 C 69.5 231.9 63.2 227.8 62.7 227.1 C 62.6 227.0 61.7 226.3 60.7 225.6 C 59.7 225.0 58.6 224.1 58.2 223.6 C 57.8 223.2 56.7 222.3 55.7 221.6 C 53.4 220.0 42.7 209.3 42.7 208.6 C 42.7 208.3 41.7 207.1 40.5 206.0 C 39.3 204.8 38.0 203.2 37.5 202.3 C 37.0 201.4 36.5 200.6 36.2 200.6 C 35.9 200.6 35.3 199.9 34.9 199.0 C 34.4 198.1 33.9 197.3 33.7 197.1 C 33.5 197.0 32.6 195.4 31.7 193.7 C 30.8 191.9 29.8 190.2 29.5 189.9 C 28.9 189.2 24.4 179.8 22.7 175.6 C 22.1 174.1 21.2 171.9 20.6 170.7 C 20.1 169.6 19.7 168.2 19.7 167.7 C 19.7 167.3 19.3 165.9 18.9 164.6 C 18.4 163.4 17.9 161.5 17.6 160.4 C 13.0 140.7 13.0 121.6 17.6 101.9 C 18.0 100.1 21.5 89.9 23.4 84.7 C 24.4 82.1 28.2 74.5 28.7 74.1 C 28.9 74.0 29.8 72.4 30.7 70.6 C 31.6 68.8 32.5 67.3 32.7 67.1 C 32.9 67.0 33.4 66.2 33.9 65.3 C 34.3 64.4 34.9 63.6 35.2 63.6 C 35.5 63.6 36.1 62.7 36.7 61.6 C 37.3 60.5 37.9 59.6 38.2 59.6 C 38.5 59.6 39.0 58.9 39.5 58.0 C 40.0 57.1 41.3 55.4 42.5 54.3 C 43.7 53.1 44.7 52.0 44.7 51.7 C 44.7 51.0 50.4 45.2 52.7 43.6 C 53.7 43.0 55.2 41.6 56.2 40.6 C 57.2 39.7 58.7 38.3 59.7 37.6 C 60.7 37.0 61.6 36.3 61.7 36.1 C 63.4 34.0 81.6 23.7 87.8 21.3 C 92.9 19.4 100.1 17.0 101.7 16.6 C 102.7 16.4 104.5 15.9 105.7 15.6 C 114.2 13.5 119.5 13.0 132.7 13.0 C 143.7 13.0 147.7 13.3 153.9 14.6 C 155.3 14.9 157.6 15.3 158.9 15.6 C 160.3 15.8 162.7 16.4 164.2 16.9 C 165.7 17.3 168.4 18.1 170.2 18.7 C 177.8 21.0 186.7 25.3 184.3 25.5 C 183.5 25.6 182.3 25.5 181.8 25.2 C 180.5 24.5 168.6 24.5 166.5 25.1 C 165.6 25.4 163.9 25.8 162.7 26.2 C 160.2 26.9 152.2 30.7 151.1 31.8 C 150.8 32.1 149.7 33.0 148.7 33.6 C 146.0 35.6 92.4 89.4 91.5 91.1 C 91.0 91.9 90.4 92.6 90.2 92.6 C 89.9 92.6 89.3 93.4 88.8 94.4 C 88.4 95.3 87.9 96.1 87.7 96.1 C 87.5 96.1 86.8 97.3 86.2 98.6 C 85.6 100.0 84.9 101.1 84.7 101.1 C 84.5 101.1 84.0 102.1 83.5 103.3 C 83.0 104.4 82.2 106.4 81.7 107.6 C 80.8 109.7 79.5 113.6 78.2 118.4 C 77.5 120.8 77.8 138.1 78.6 141.9 C 79.1 144.6 81.6 152.2 83.0 155.4 C 85.4 161.0 86.4 163.1 86.7 163.1 C 86.9 163.1 87.6 164.3 88.2 165.6 C 88.8 167.0 89.5 168.1 89.7 168.1 C 89.9 168.1 90.4 168.8 90.7 169.6 C 91.0 170.5 91.5 171.1 91.7 171.1 C 91.9 171.1 92.3 171.6 92.5 172.2 C 92.6 172.8 93.7 174.1 94.7 175.2 C 95.8 176.3 96.7 177.4 96.7 177.6 C 96.7 178.3 141.5 223.1 142.2 223.1 C 142.8 223.1 164.7 201.3 164.7 200.7 C 164.7 200.4 165.0 199.9 165.4 199.5 C 166.4 198.5 168.4 194.3 169.1 191.6 C 169.5 190.4 170.0 188.7 170.2 187.9 C 170.5 187.0 170.7 185.1 170.7 183.6 C 170.7 182.2 170.5 180.3 170.2 179.4 C 170.0 178.6 169.5 176.9 169.1 175.6 C 168.5 173.3 166.3 168.6 165.7 168.1 C 165.5 168.0 165.0 167.2 164.5 166.3 C 164.0 165.4 163.5 164.6 163.2 164.6 C 162.9 164.6 162.3 163.9 161.9 163.0 C 161.4 162.1 158.4 158.8 155.2 155.6 C 151.9 152.4 148.8 148.9 148.2 147.6 C 147.6 146.4 146.8 145.1 146.4 144.8 C 146.0 144.4 145.7 143.7 145.7 143.3 C 145.7 142.9 145.3 141.9 144.9 141.0 C 143.2 137.9 142.3 129.6 143.2 126.4 C 143.5 125.3 144.0 123.6 144.3 122.6 C 145.0 120.1 146.3 117.1 146.7 117.1 C 146.9 117.1 147.4 116.5 147.7 115.6 C 148.0 114.8 148.5 114.1 148.7 114.1 C 148.9 114.1 149.3 113.7 149.5 113.1 C 149.8 111.9 191.0 70.5 193.7 68.7 C 194.7 68.0 195.6 67.3 195.7 67.1 C 196.8 65.7 204.1 61.7 207.8 60.4 C 211.0 59.3 218.8 59.4 222.0 60.6 C 226.1 62.0 233.7 68.0 233.7 69.6 C 233.7 69.9 234.0 70.4 234.4 70.8 C 235.2 71.6 241.8 84.6 243.0 87.8 C 245.2 93.6 246.4 97.1 246.8 98.8 C 247.3 101.1 248.1 104.2 248.8 106.9 C 252.4 120.9 252.0 142.4 247.8 160.4 C 247.4 162.2 243.9 172.4 242.0 177.5 C 240.9 180.6 235.2 191.7 234.4 192.5 C 234.1 192.8 233.6 193.6 233.4 194.1 C 233.3 194.7 232.9 195.1 232.7 195.1 C 232.5 195.1 232.0 195.8 231.7 196.6 C 231.4 197.5 230.9 198.1 230.7 198.1 C 230.5 198.1 230.0 198.9 229.5 199.9 C 229.1 200.8 228.5 201.6 228.2 201.6 C 227.9 201.6 227.3 202.4 226.9 203.3 C 226.4 204.2 225.3 205.6 224.4 206.5 C 223.4 207.4 222.7 208.3 222.7 208.6 C 222.7 209.3 212.0 220.0 209.7 221.6 C 208.7 222.3 207.6 223.2 207.2 223.6 C 206.8 224.1 205.7 225.0 204.7 225.6 C 203.7 226.3 202.8 227.0 202.7 227.1 C 202.3 227.6 196.8 231.3 192.7 233.8 C 187.4 237.0 175.4 242.6 173.9 242.6 C 173.5 242.6 171.4 243.2 169.3 244.0 C 167.2 244.7 164.7 245.5 163.7 245.7 C 162.7 245.9 160.9 246.3 159.7 246.6 C 156.5 247.4 153.0 248.1 148.9 248.7 C 144.7 249.4 120.5 249.8 120.0 249.3 Z
         M 524.2 145.7 C 523.0 145.2 521.2 144.4 520.3 144.0 C 518.3 142.9 511.9 136.6 511.5 135.2 C 511.3 134.6 510.9 134.1 510.7 134.1 C 510.5 134.1 510.0 133.5 509.7 132.6 C 509.4 131.8 508.9 131.1 508.7 131.1 C 508.5 131.1 508.0 130.5 507.7 129.6 C 507.4 128.8 506.9 128.1 506.7 128.1 C 506.5 128.1 506.0 127.5 505.7 126.6 C 505.3 125.8 504.7 124.9 504.2 124.6 C 503.7 124.4 503.0 123.5 502.7 122.7 C 502.4 121.8 501.9 121.1 501.7 121.1 C 501.5 121.1 501.0 120.5 500.7 119.6 C 500.4 118.8 499.9 118.1 499.7 118.1 C 499.5 118.1 499.0 117.5 498.7 116.6 C 498.4 115.8 497.9 115.1 497.7 115.1 C 497.5 115.1 497.0 114.5 496.7 113.6 C 496.3 112.8 495.7 111.9 495.2 111.6 C 494.7 111.4 494.0 110.5 493.7 109.7 C 493.4 108.8 492.9 108.1 492.7 108.1 C 492.5 108.1 492.0 107.5 491.7 106.6 C 491.4 105.8 490.9 105.1 490.7 105.1 C 490.5 105.1 490.0 104.5 489.7 103.6 C 489.4 102.8 488.9 102.1 488.7 102.1 C 488.5 102.1 488.0 101.5 487.7 100.6 C 487.3 99.8 486.7 98.9 486.2 98.6 C 485.7 98.4 485.0 97.5 484.7 96.7 C 484.4 95.8 483.9 95.1 483.7 95.1 C 483.5 95.1 483.0 94.5 482.7 93.6 C 482.4 92.8 481.9 92.1 481.7 92.1 C 481.5 92.1 481.0 91.5 480.7 90.6 C 480.4 89.8 479.9 89.1 479.7 89.1 C 479.5 89.1 479.0 88.5 478.7 87.6 C 478.3 86.8 477.7 85.9 477.2 85.6 C 476.7 85.4 476.0 84.5 475.7 83.7 C 475.4 82.8 474.9 82.1 474.7 82.1 C 474.5 82.1 474.0 81.5 473.7 80.6 C 473.4 79.8 472.9 79.1 472.7 79.1 C 472.5 79.1 472.0 78.5 471.7 77.6 C 471.4 76.8 470.9 76.1 470.7 76.1 C 470.5 76.1 470.0 75.5 469.7 74.6 C 469.3 73.8 468.7 72.9 468.2 72.6 C 467.7 72.4 467.0 71.5 466.7 70.7 C 466.4 69.8 465.9 69.1 465.7 69.1 C 465.5 69.1 465.0 68.5 464.7 67.6 C 464.4 66.8 463.9 66.1 463.7 66.1 C 463.5 66.1 463.0 65.5 462.7 64.6 C 462.4 63.8 461.9 63.1 461.7 63.1 C 461.5 63.1 461.0 62.5 460.7 61.6 C 460.3 60.8 459.7 59.9 459.2 59.6 C 458.7 59.4 458.0 58.5 457.7 57.7 C 457.4 56.8 456.9 56.1 456.7 56.1 C 456.5 56.1 456.0 55.5 455.7 54.6 C 455.4 53.8 454.9 53.1 454.7 53.1 C 454.5 53.1 454.0 52.5 453.7 51.7 C 452.5 48.9 450.7 48.5 448.4 50.5 C 447.9 51.0 446.7 52.0 445.7 52.6 C 444.7 53.3 443.8 54.0 443.7 54.1 C 443.6 54.3 442.7 55.0 441.7 55.6 C 440.7 56.3 439.8 57.0 439.7 57.1 C 439.6 57.3 438.7 58.0 437.7 58.6 C 436.7 59.3 435.8 60.0 435.7 60.1 C 435.6 60.3 434.7 61.0 433.7 61.6 C 432.7 62.3 431.8 63.0 431.7 63.1 C 431.6 63.3 430.7 64.0 429.7 64.6 C 428.7 65.3 427.8 66.0 427.7 66.1 C 427.6 66.3 426.7 67.0 425.7 67.6 C 424.7 68.3 423.8 69.0 423.7 69.1 C 423.6 69.3 422.7 70.0 421.7 70.6 C 420.7 71.3 419.8 72.0 419.7 72.1 C 419.6 72.3 418.7 73.0 417.7 73.6 C 416.7 74.3 415.8 75.0 415.7 75.1 C 415.6 75.3 414.7 76.0 413.7 76.6 C 412.7 77.3 411.8 78.0 411.7 78.1 C 411.6 78.3 410.7 79.0 409.7 79.6 C 408.7 80.3 407.8 81.0 407.7 81.1 C 407.6 81.3 406.7 82.0 405.7 82.6 C 404.7 83.3 403.8 84.0 403.7 84.1 C 403.6 84.3 402.0 85.4 400.2 86.6 C 398.4 87.9 396.5 89.2 396.0 89.7 C 395.5 90.1 394.3 90.9 393.2 91.4 C 390.7 92.5 390.6 93.7 393.0 95.1 C 393.9 95.7 395.0 96.5 395.3 96.8 C 395.7 97.2 397.4 98.4 399.2 99.6 C 401.0 100.8 402.6 102.0 402.7 102.1 C 402.8 102.3 403.7 103.0 404.7 103.6 C 405.7 104.3 406.8 105.2 407.2 105.6 C 407.6 106.1 408.7 107.0 409.7 107.6 C 410.7 108.3 411.8 109.2 412.2 109.6 C 412.6 110.1 413.7 111.0 414.7 111.6 C 415.7 112.3 416.8 113.2 417.2 113.6 C 417.6 114.1 418.7 115.0 419.7 115.6 C 420.7 116.3 421.8 117.2 422.2 117.6 C 422.6 118.1 423.7 119.0 424.7 119.6 C 425.7 120.3 426.8 121.2 427.2 121.6 C 427.6 122.1 428.7 123.0 429.7 123.6 C 430.7 124.3 431.8 125.2 432.2 125.6 C 432.6 126.1 433.7 127.0 434.7 127.6 C 435.7 128.3 436.8 129.2 437.2 129.6 C 437.6 130.1 438.7 131.0 439.7 131.6 C 440.7 132.3 441.8 133.2 442.2 133.6 C 442.6 134.1 443.7 135.0 444.7 135.6 C 445.7 136.3 446.8 137.2 447.2 137.6 C 447.6 138.1 448.6 138.9 449.5 139.5 C 450.4 140.1 451.8 141.3 452.7 142.1 C 453.6 143.0 454.5 143.6 454.7 143.6 C 455.0 143.6 455.2 143.9 455.2 144.1 C 455.2 144.5 447.2 144.6 432.3 144.6 C 406.3 144.6 408.4 144.9 403.8 140.2 C 402.5 138.9 400.7 137.3 399.7 136.6 C 398.7 136.0 396.9 134.4 395.7 133.1 C 394.5 131.9 392.7 130.3 391.7 129.6 C 390.7 129.0 388.9 127.4 387.7 126.1 C 386.5 124.9 384.7 123.3 383.7 122.6 C 382.7 122.0 381.2 120.6 380.2 119.6 C 379.2 118.7 377.7 117.3 376.7 116.6 C 375.7 116.0 373.5 113.9 371.7 112.1 C 369.9 110.3 367.7 108.3 366.7 107.6 C 365.7 107.0 364.6 106.1 364.3 105.8 C 363.0 104.5 362.6 105.1 363.0 107.5 C 363.2 108.8 363.3 117.6 363.4 127.1 L 363.4 144.4 L 348.2 144.4 L 332.9 144.4 L 332.9 96.1 L 332.9 47.9 L 348.2 47.9 L 363.4 47.9 L 363.4 63.6 C 363.3 72.3 363.1 80.7 362.9 82.3 C 362.5 85.9 362.9 85.9 366.3 82.5 C 367.8 81.1 369.7 79.3 370.7 78.6 C 371.7 78.0 373.5 76.4 374.7 75.1 C 375.9 73.9 377.7 72.3 378.7 71.6 C 379.7 71.0 381.0 69.8 381.7 69.1 C 382.4 68.4 383.7 67.3 384.7 66.6 C 385.7 66.0 387.0 64.8 387.7 64.1 C 388.4 63.4 389.7 62.3 390.7 61.6 C 391.7 61.0 393.2 59.6 394.2 58.6 C 395.2 57.7 396.7 56.3 397.7 55.6 C 398.7 55.0 400.0 53.8 400.7 53.1 C 401.4 52.4 402.7 51.3 403.7 50.6 C 404.7 50.0 405.9 49.0 406.4 48.5 C 407.3 47.7 409.8 47.6 448.3 47.6 L 489.2 47.6 L 489.8 48.9 C 490.1 49.6 490.5 50.1 490.7 50.1 C 490.9 50.1 491.4 50.8 491.7 51.6 C 492.0 52.5 492.5 53.1 492.7 53.1 C 492.9 53.1 493.4 53.8 493.7 54.6 C 494.0 55.5 494.5 56.1 494.7 56.1 C 494.9 56.1 495.4 56.8 495.7 57.6 C 496.0 58.5 496.5 59.1 496.7 59.1 C 496.9 59.1 497.4 59.8 497.7 60.6 C 498.0 61.5 498.5 62.1 498.7 62.1 C 498.9 62.1 499.4 62.8 499.7 63.7 C 500.0 64.5 500.7 65.4 501.2 65.6 C 501.7 65.9 502.3 66.8 502.7 67.6 C 503.0 68.5 503.5 69.1 503.7 69.1 C 503.9 69.1 504.4 69.8 504.7 70.6 C 505.0 71.5 505.5 72.1 505.7 72.1 C 505.9 72.1 506.4 72.8 506.7 73.6 C 507.0 74.5 507.5 75.1 507.7 75.1 C 507.9 75.1 508.4 75.8 508.7 76.6 C 509.0 77.5 509.5 78.1 509.7 78.1 C 509.9 78.1 510.4 78.8 510.7 79.6 C 511.0 80.5 511.5 81.1 511.7 81.1 C 511.9 81.1 512.4 81.8 512.7 82.6 C 513.0 83.5 513.5 84.1 513.7 84.1 C 513.9 84.1 514.4 84.8 514.7 85.6 C 515.0 86.5 515.5 87.1 515.7 87.1 C 515.9 87.1 516.4 87.8 516.7 88.6 C 517.0 89.5 517.5 90.1 517.7 90.1 C 517.9 90.1 518.4 90.8 518.7 91.6 C 519.0 92.5 519.5 93.1 519.7 93.1 C 519.9 93.1 520.4 93.8 520.7 94.7 C 521.0 95.5 521.7 96.4 522.2 96.6 C 522.7 96.9 523.3 97.8 523.7 98.6 C 524.0 99.5 524.5 100.1 524.7 100.1 C 524.9 100.1 525.4 100.8 525.7 101.6 C 526.0 102.5 526.5 103.1 526.7 103.1 C 526.9 103.1 527.3 103.7 527.6 104.4 C 527.9 105.1 528.4 105.9 528.7 106.3 C 529.0 106.6 529.7 107.6 530.2 108.5 C 531.4 110.6 532.9 110.6 533.7 108.6 C 534.0 107.8 534.5 107.1 534.7 107.1 C 534.9 107.1 535.4 106.5 535.7 105.6 C 536.0 104.8 536.7 103.9 537.2 103.6 C 537.7 103.4 538.3 102.5 538.7 101.7 C 539.0 100.8 539.5 100.1 539.7 100.1 C 539.9 100.1 540.4 99.5 540.7 98.6 C 541.0 97.8 541.5 97.1 541.7 97.1 C 541.9 97.1 542.4 96.3 542.8 95.4 C 543.3 94.4 543.9 93.6 544.2 93.6 C 544.4 93.6 545.0 92.9 545.5 92.0 C 546.0 91.1 546.5 90.3 546.7 90.1 C 546.9 90.0 547.4 89.2 547.9 88.3 C 548.3 87.4 548.9 86.6 549.2 86.6 C 549.5 86.6 550.1 85.8 550.5 84.9 C 551.0 83.9 551.5 83.1 551.7 83.1 C 551.9 83.1 552.4 82.5 552.7 81.6 C 553.0 80.8 553.5 80.1 553.7 80.1 C 553.9 80.1 554.4 79.3 554.8 78.4 C 555.3 77.4 555.9 76.6 556.2 76.6 C 556.4 76.6 557.0 75.9 557.5 75.0 C 558.0 74.1 558.5 73.3 558.7 73.1 C 558.9 73.0 559.4 72.2 559.9 71.3 C 560.3 70.4 560.9 69.6 561.2 69.6 C 561.5 69.6 562.0 68.9 562.5 68.0 C 563.0 67.1 563.5 66.3 563.7 66.1 C 563.9 66.0 564.4 65.2 564.9 64.3 C 565.3 63.4 565.9 62.6 566.2 62.6 C 566.5 62.6 567.1 61.8 567.5 60.9 C 568.0 59.9 568.5 59.1 568.7 59.1 C 568.9 59.1 569.4 58.5 569.7 57.6 C 570.0 56.8 570.5 56.1 570.7 56.1 C 570.9 56.1 571.4 55.3 571.8 54.4 C 572.3 53.4 572.9 52.6 573.2 52.6 C 573.4 52.6 574.0 51.9 574.5 51.0 C 576.2 47.6 575.6 47.7 594.8 47.6 C 605.0 47.6 612.3 47.8 612.4 48.1 C 612.7 48.6 610.8 51.8 609.3 53.4 C 608.7 54.0 608.0 55.0 607.7 55.8 C 607.3 56.5 606.9 57.1 606.7 57.1 C 606.5 57.1 606.0 57.8 605.7 58.6 C 605.4 59.5 604.9 60.1 604.7 60.1 C 604.5 60.1 604.0 60.9 603.5 61.9 C 603.1 62.8 602.5 63.6 602.2 63.6 C 601.9 63.6 601.3 64.4 600.9 65.3 C 600.4 66.2 599.9 67.0 599.7 67.1 C 599.5 67.3 599.0 68.1 598.5 69.0 C 598.0 69.9 597.5 70.6 597.2 70.6 C 596.9 70.6 596.3 71.4 595.9 72.3 C 595.4 73.2 594.9 74.0 594.7 74.1 C 594.5 74.3 594.0 75.1 593.5 76.0 C 593.0 76.9 592.4 77.6 592.2 77.6 C 591.9 77.6 591.3 78.4 590.8 79.4 C 590.4 80.3 589.9 81.1 589.7 81.1 C 589.5 81.1 589.0 81.8 588.7 82.6 C 588.4 83.5 587.9 84.1 587.7 84.1 C 587.5 84.1 587.0 84.9 586.5 85.9 C 586.1 86.8 585.5 87.6 585.2 87.6 C 584.9 87.6 584.3 88.4 583.9 89.3 C 583.4 90.2 582.9 91.0 582.7 91.1 C 582.5 91.3 582.0 92.1 581.5 93.0 C 581.0 93.9 580.5 94.6 580.2 94.6 C 579.9 94.6 579.3 95.4 578.9 96.3 C 578.4 97.2 577.9 98.0 577.7 98.1 C 577.5 98.3 577.0 99.1 576.5 100.0 C 576.0 100.9 575.4 101.6 575.2 101.6 C 574.9 101.6 574.3 102.4 573.8 103.4 C 573.4 104.3 572.9 105.1 572.7 105.1 C 572.5 105.1 572.0 105.8 571.7 106.6 C 571.4 107.5 570.9 108.1 570.7 108.1 C 570.5 108.1 570.0 108.9 569.5 109.9 C 569.1 110.8 568.5 111.6 568.2 111.6 C 567.9 111.6 567.3 112.4 566.9 113.3 C 566.4 114.2 565.9 115.0 565.7 115.1 C 565.5 115.3 565.0 116.1 564.5 117.0 C 564.0 117.9 563.4 118.6 563.2 118.6 C 562.9 118.6 562.3 119.4 561.8 120.4 C 561.4 121.3 560.9 122.1 560.7 122.1 C 560.5 122.1 560.0 122.8 559.7 123.6 C 559.4 124.5 558.9 125.1 558.7 125.1 C 558.5 125.1 558.0 125.9 557.5 126.9 C 557.1 127.8 556.5 128.6 556.2 128.6 C 555.9 128.6 555.3 129.4 554.9 130.2 C 554.4 131.1 553.8 132.1 553.4 132.5 C 553.0 132.9 552.7 133.4 552.7 133.7 C 552.7 134.6 543.7 143.1 541.7 144.1 C 536.4 146.8 528.9 147.5 524.2 145.7 Z
         M 644.7 144.1 C 644.3 143.9 643.3 143.6 642.4 143.6 C 641.2 143.6 634.4 141.4 628.2 139.1 C 625.7 138.1 618.3 133.6 616.7 132.0 C 615.9 131.3 614.4 130.1 613.2 129.4 C 612.1 128.6 611.1 127.6 610.9 127.0 C 610.7 126.5 609.7 125.2 608.6 124.1 C 607.6 123.0 606.7 121.9 606.7 121.7 C 606.7 121.4 606.4 120.9 606.0 120.5 C 605.0 119.5 601.0 111.3 600.3 108.8 C 600.0 107.6 599.5 105.8 599.2 104.8 C 598.5 102.5 598.8 86.8 599.5 83.9 C 599.8 82.8 600.4 81.0 600.9 79.9 C 603.8 73.4 604.4 72.1 604.7 72.1 C 604.9 72.1 605.4 71.3 605.8 70.4 C 606.3 69.4 606.9 68.6 607.2 68.6 C 607.4 68.6 608.0 67.9 608.5 67.0 C 609.4 65.2 612.1 62.5 614.7 60.7 C 615.7 60.0 616.6 59.3 616.7 59.1 C 617.8 57.8 624.8 53.8 628.5 52.4 C 629.6 52.0 631.5 51.3 632.7 50.9 C 634.9 50.0 636.1 49.7 641.4 48.5 C 645.8 47.6 725.2 47.4 725.2 48.4 C 725.2 48.8 725.0 49.1 724.8 49.1 C 724.5 49.1 724.0 49.8 723.7 50.6 C 723.4 51.4 722.5 52.5 721.9 53.0 C 721.2 53.5 720.2 54.7 719.6 55.8 C 719.1 56.8 718.5 57.6 718.2 57.6 C 717.9 57.6 717.3 58.5 716.7 59.6 C 716.1 60.7 715.5 61.6 715.2 61.6 C 714.9 61.6 714.3 62.5 713.7 63.6 C 713.1 64.7 712.5 65.6 712.2 65.6 C 711.9 65.6 711.3 66.5 710.7 67.5 C 710.2 68.5 709.3 69.7 708.7 70.1 C 708.1 70.5 707.3 71.5 706.9 72.3 L 706.2 73.6 L 678.1 73.8 C 661.0 73.9 649.2 74.1 647.9 74.5 C 642.6 75.8 634.3 81.3 633.4 84.1 C 633.3 84.7 633.0 85.1 632.7 85.1 C 632.4 85.1 631.6 86.8 630.1 90.5 C 627.1 98.3 632.7 111.0 640.8 115.2 C 648.3 119.0 650.8 119.2 691.1 119.4 C 720.8 119.6 725.2 119.7 725.2 120.4 C 725.2 120.8 725.0 121.1 724.8 121.1 C 724.5 121.1 724.0 121.8 723.7 122.6 C 723.4 123.4 722.5 124.5 721.9 125.0 C 721.2 125.5 720.2 126.7 719.6 127.8 C 719.1 128.8 718.5 129.6 718.2 129.6 C 717.9 129.6 717.3 130.5 716.7 131.5 C 716.2 132.5 715.3 133.7 714.7 134.1 C 714.1 134.5 713.2 135.7 712.6 136.8 C 712.1 137.8 711.5 138.6 711.2 138.6 C 710.9 138.6 710.4 139.4 709.9 140.3 C 709.5 141.2 708.4 142.5 707.5 143.3 L 705.9 144.6 L 675.7 144.6 C 657.0 144.6 645.2 144.4 644.7 144.1 Z
         M 719.2 143.9 C 719.2 143.5 719.4 143.1 719.6 143.1 C 719.8 143.1 720.4 142.3 720.8 141.4 C 721.3 140.4 721.9 139.6 722.2 139.6 C 722.4 139.6 723.0 138.9 723.5 138.0 C 724.0 137.1 724.5 136.3 724.7 136.1 C 724.9 136.0 725.4 135.2 725.9 134.3 C 726.3 133.4 726.9 132.6 727.2 132.6 C 727.5 132.6 728.1 131.8 728.5 130.9 C 729.0 129.9 729.5 129.1 729.7 129.1 C 729.9 129.1 730.4 128.5 730.7 127.6 C 731.0 126.8 731.5 126.1 731.7 126.1 C 731.9 126.1 732.4 125.3 732.8 124.4 C 733.3 123.4 733.9 122.6 734.2 122.6 C 734.4 122.6 735.0 121.9 735.5 121.0 C 736.0 120.1 736.5 119.3 736.7 119.1 C 736.9 119.0 737.4 118.2 737.9 117.3 C 738.3 116.4 738.9 115.6 739.2 115.6 C 739.5 115.6 740.0 114.9 740.5 114.0 C 741.0 113.1 741.5 112.3 741.7 112.1 C 741.9 112.0 742.4 111.2 742.9 110.3 C 743.3 109.4 743.9 108.6 744.2 108.6 C 744.5 108.6 745.1 107.8 745.5 106.9 C 746.0 105.9 746.5 105.1 746.7 105.1 C 746.9 105.1 747.4 104.5 747.7 103.6 C 748.0 102.8 748.5 102.1 748.7 102.1 C 748.9 102.1 749.4 101.3 749.8 100.4 C 750.3 99.4 750.9 98.6 751.2 98.6 C 751.4 98.6 752.0 97.9 752.5 97.0 C 753.0 96.1 753.5 95.3 753.7 95.1 C 753.9 95.0 754.4 94.2 754.9 93.3 C 755.3 92.4 755.9 91.6 756.2 91.6 C 756.5 91.6 757.0 90.9 757.5 90.0 C 758.0 89.1 758.5 88.3 758.7 88.1 C 758.9 88.0 759.4 87.2 759.9 86.3 C 760.3 85.4 760.9 84.6 761.2 84.6 C 761.5 84.6 762.0 83.9 762.5 83.0 C 763.0 82.1 763.5 81.3 763.7 81.1 C 763.9 81.0 764.4 80.2 764.9 79.3 C 765.3 78.4 765.9 77.6 766.2 77.6 C 766.5 77.6 767.1 76.8 767.5 75.9 C 768.0 74.9 768.5 74.1 768.7 74.1 C 768.9 74.1 769.4 73.5 769.7 72.6 C 770.0 71.8 770.5 71.1 770.7 71.1 C 770.9 71.1 771.4 70.3 771.8 69.4 C 772.3 68.4 772.9 67.6 773.2 67.6 C 773.4 67.6 774.0 66.9 774.5 66.0 C 775.0 65.1 775.5 64.3 775.7 64.1 C 775.9 64.0 776.4 63.2 776.9 62.3 C 777.3 61.4 777.9 60.6 778.2 60.6 C 778.5 60.6 779.0 59.9 779.5 59.0 C 780.0 58.2 780.6 57.1 781.0 56.7 C 781.4 56.4 781.7 55.9 781.7 55.6 C 781.7 55.0 784.6 52.1 786.7 50.6 C 787.7 50.0 788.6 49.3 788.7 49.2 C 792.6 44.9 804.2 44.3 811.7 48.1 C 814.1 49.3 818.8 53.9 819.9 56.0 C 820.3 56.9 820.9 57.6 821.2 57.6 C 821.5 57.6 822.1 58.4 822.5 59.4 C 823.0 60.3 823.5 61.1 823.7 61.1 C 823.9 61.1 824.4 61.8 824.7 62.6 C 825.0 63.5 825.5 64.1 825.7 64.1 C 825.9 64.1 826.4 64.8 826.7 65.6 C 827.0 66.5 827.5 67.1 827.7 67.1 C 827.9 67.1 828.4 67.8 828.7 68.7 C 829.0 69.5 829.7 70.4 830.2 70.6 C 830.7 70.9 831.3 71.8 831.7 72.6 C 832.0 73.5 832.5 74.1 832.7 74.1 C 832.9 74.1 833.4 74.8 833.7 75.6 C 834.0 76.5 834.5 77.1 834.7 77.1 C 834.9 77.1 835.4 77.8 835.7 78.6 C 836.0 79.5 836.5 80.1 836.7 80.1 C 836.9 80.1 837.4 80.8 837.7 81.7 C 838.0 82.5 838.7 83.4 839.2 83.6 C 839.7 83.9 840.3 84.8 840.7 85.6 C 841.0 86.5 841.5 87.1 841.7 87.1 C 841.9 87.1 842.4 87.8 842.7 88.6 C 843.0 89.5 843.5 90.1 843.7 90.1 C 843.9 90.1 844.4 90.8 844.7 91.6 C 845.0 92.5 845.5 93.1 845.7 93.1 C 845.9 93.1 846.4 93.8 846.7 94.7 C 847.0 95.5 847.7 96.4 848.2 96.6 C 848.7 96.9 849.3 97.8 849.7 98.6 C 850.0 99.5 850.5 100.1 850.7 100.1 C 850.9 100.1 851.4 100.8 851.7 101.6 C 852.0 102.5 852.5 103.1 852.7 103.1 C 852.9 103.1 853.4 103.8 853.7 104.6 C 854.0 105.5 854.5 106.1 854.7 106.1 C 854.9 106.1 855.4 106.8 855.7 107.6 C 856.0 108.5 856.5 109.1 856.7 109.1 C 856.9 109.1 857.4 109.8 857.7 110.7 C 858.0 111.5 858.7 112.4 859.2 112.6 C 859.7 112.9 860.3 113.8 860.7 114.6 C 861.0 115.5 861.5 116.1 861.7 116.1 C 861.9 116.1 862.4 116.8 862.7 117.6 C 863.0 118.5 863.5 119.1 863.7 119.1 C 863.9 119.1 864.4 119.8 864.7 120.6 C 865.0 121.5 865.5 122.1 865.7 122.1 C 865.9 122.1 866.4 122.8 866.7 123.7 C 867.0 124.5 867.7 125.4 868.2 125.6 C 868.7 125.9 869.3 126.8 869.7 127.6 C 870.0 128.5 870.5 129.1 870.7 129.1 C 870.9 129.1 871.4 129.8 871.7 130.6 C 872.0 131.5 872.5 132.1 872.7 132.1 C 872.9 132.1 873.4 132.8 873.7 133.6 C 874.0 134.5 874.5 135.1 874.7 135.1 C 874.9 135.1 875.3 135.7 875.7 136.5 C 876.0 137.2 876.7 138.3 877.3 138.9 C 878.8 140.5 880.7 143.7 880.4 144.2 C 880.0 144.9 768.2 144.8 768.2 144.1 C 768.2 143.5 769.2 141.5 769.7 141.1 C 769.9 141.0 770.4 140.2 770.9 139.3 C 771.3 138.4 771.9 137.6 772.2 137.6 C 772.5 137.6 773.1 136.7 773.7 135.6 C 774.3 134.5 774.9 133.6 775.2 133.6 C 775.5 133.6 776.0 132.9 776.5 132.0 C 777.0 131.1 777.5 130.3 777.7 130.1 C 777.9 130.0 778.4 129.2 778.9 128.3 C 779.3 127.4 779.9 126.6 780.2 126.6 C 780.5 126.6 781.1 125.7 781.7 124.6 C 782.3 123.5 782.9 122.6 783.2 122.6 C 783.5 122.6 784.0 122.0 784.4 121.1 L 785.2 119.6 L 805.7 119.6 C 826.8 119.6 828.6 119.5 825.3 117.7 C 824.8 117.4 824.0 116.5 823.7 115.7 C 823.4 114.8 822.9 114.1 822.7 114.1 C 822.5 114.1 822.0 113.5 821.7 112.6 C 821.4 111.8 820.9 111.1 820.7 111.1 C 820.5 111.1 820.0 110.5 819.7 109.6 C 819.4 108.8 818.9 108.1 818.7 108.1 C 818.5 108.1 818.0 107.5 817.7 106.6 C 817.4 105.8 816.9 105.1 816.7 105.1 C 816.5 105.1 816.0 104.5 815.7 103.6 C 815.3 102.8 814.7 101.9 814.2 101.6 C 813.7 101.4 813.0 100.5 812.7 99.7 C 812.4 98.8 811.9 98.1 811.7 98.1 C 811.5 98.1 811.0 97.5 810.7 96.6 C 810.4 95.8 809.9 95.1 809.7 95.1 C 809.5 95.1 809.0 94.5 808.7 93.6 C 808.4 92.8 807.9 92.1 807.7 92.1 C 807.5 92.1 807.0 91.5 806.7 90.6 C 806.4 89.8 805.9 89.1 805.7 89.1 C 805.5 89.1 805.1 88.6 804.8 87.9 C 804.5 87.2 804.0 86.3 803.7 86.0 C 803.4 85.7 802.7 84.7 802.2 83.8 C 800.9 81.6 799.6 81.7 798.5 83.9 C 798.1 84.8 797.5 85.6 797.2 85.6 C 796.9 85.6 796.3 86.4 795.9 87.3 C 795.4 88.2 794.9 89.0 794.7 89.1 C 794.5 89.3 794.0 90.1 793.5 91.0 C 793.0 91.9 792.4 92.6 792.2 92.6 C 791.9 92.6 791.3 93.4 790.8 94.4 C 790.4 95.3 789.9 96.1 789.7 96.1 C 789.5 96.1 789.0 96.8 788.7 97.6 C 788.4 98.5 787.9 99.1 787.7 99.1 C 787.5 99.1 787.0 99.9 786.5 100.9 C 786.1 101.8 785.5 102.6 785.2 102.6 C 784.9 102.6 784.3 103.4 783.9 104.3 C 783.4 105.2 782.9 106.0 782.7 106.1 C 782.5 106.3 782.0 107.1 781.5 108.0 C 781.0 108.9 780.4 109.6 780.2 109.6 C 779.9 109.6 779.3 110.4 778.8 111.4 C 778.4 112.3 777.9 113.1 777.7 113.1 C 777.5 113.1 777.0 113.8 776.7 114.6 C 776.4 115.5 775.9 116.1 775.7 116.1 C 775.5 116.1 775.0 116.9 774.5 117.9 C 774.1 118.8 773.5 119.6 773.2 119.6 C 772.9 119.6 772.3 120.4 771.9 121.3 C 771.4 122.2 770.9 123.0 770.7 123.1 C 770.5 123.3 770.0 124.1 769.5 125.0 C 769.0 125.9 768.4 126.6 768.2 126.6 C 767.9 126.6 767.3 127.4 766.8 128.4 C 766.4 129.3 765.9 130.1 765.7 130.1 C 765.5 130.1 765.0 130.8 764.7 131.6 C 764.4 132.5 763.9 133.1 763.7 133.1 C 763.5 133.1 763.0 133.8 762.7 134.7 C 762.3 135.5 761.7 136.4 761.2 136.6 C 760.7 136.9 760.0 137.8 759.7 138.6 C 759.4 139.5 758.9 140.1 758.7 140.1 C 758.5 140.1 758.0 140.8 757.7 141.6 C 756.5 144.6 756.5 144.6 737.0 144.6 C 721.5 144.6 719.2 144.5 719.2 143.9 Z"/>
</svg>
