<?xml version="1.0" encoding="UTF-8"?>
<svg xmlns="http://www.w3.org/2000/svg" viewBox="0 0 430.5 116.9" fill="#FFFFFF">
  <path fill-rule="evenodd" d="M 6.3 59.5 C 6.3 16.1 6.4 8.6 7.0 8.0 C 7.6 7.4 16.3 7.3 67.5 7.3 L 127.3 7.3 L 127.3 58.8 L 127.3 110.3 L 66.8 110.3 L 6.3 110.3 L 6.3 59.5 Z
         M 154.9 109.5 C 153.9 108.4 154.0 8.0 155.0 7.0 C 155.6 6.4 164.3 6.3 215.5 6.3 L 275.3 6.3 L 275.3 20.8 L 275.3 35.3 L 230.8 35.3 L 186.3 35.3 L 186.3 58.3 L 186.3 81.3 L 187.7 81.3 C 188.5 81.3 189.3 81.0 189.5 80.6 C 189.7 80.1 189.8 80.1 190.1 80.6 C 190.3 81.1 199.4 81.3 233.3 81.3 L 276.3 81.3 L 276.3 95.1 C 276.3 106.3 276.1 109.0 275.6 109.6 C 274.5 110.6 155.8 110.6 154.9 109.5 Z
         M 303.3 58.3 L 303.3 6.3 L 363.3 6.3 L 423.3 6.3 L 423.3 20.8 L 423.3 35.3 L 378.8 35.3 L 334.3 35.3 L 334.3 58.3 L 334.3 81.3 L 379.3 81.3 L 424.3 81.3 L 424.3 95.8 L 424.3 110.3 L 363.8 110.3 L 303.3 110.3 L 303.3 58.3 Z
         M 87.5 80.6 C 87.7 80.1 87.8 80.1 88.1 80.6 C 88.5 81.5 92.7 81.4 93.6 80.6 C 94.2 80.0 94.3 76.3 94.3 58.6 L 94.3 37.3 L 66.8 37.3 L 39.3 37.3 L 39.3 58.5 C 39.3 74.8 39.4 80.0 39.9 80.5 C 40.8 81.5 87.0 81.6 87.5 80.6 Z"/>
</svg>
