<?xml version="1.0" encoding="UTF-8"?>
<!-- Generator: visioncortex VTracer 0.6.12 -->
<svg version="1.1" xmlns="http://www.w3.org/2000/svg" width="1024" height="1024">
<path d="M0 0 C80.19 0 160.38 0 243 0 C243 67.98 243 135.96 243 206 C162.81 206 82.62 206 0 206 C0 138.02 0 70.04 0 0 Z " fill="#FCFBFD" transform="translate(94,410)"/>
<path d="M0 0 C79.53 0 159.06 0 241 0 C241 19.47 241 38.94 241 59 C182.26 59 123.52 59 63 59 C63 88.7 63 118.4 63 149 C122.07 149 181.14 149 242 149 C242 168.47 242 187.94 242 208 C162.14 208 82.28 208 0 208 C0 139.36 0 70.72 0 0 Z " fill="#FBFAFD" transform="translate(391,408)"/>
<path d="M0 0 C79.2 0 158.4 0 240 0 C240 19.14 240 38.28 240 58 C181.26 58 122.52 58 62 58 C62 88.03 62 118.06 62 149 C121.4 149 180.8 149 242 149 C242 168.47 242 187.94 242 208 C162.14 208 82.28 208 0 208 C0 139.36 0 70.72 0 0 Z " fill="#FCFBFD" transform="translate(688,408)"/>
</svg>
