<?xml version="1.0" encoding="UTF-8"?>
<!-- Generator: visioncortex VTracer 0.6.12 -->
<svg version="1.1" xmlns="http://www.w3.org/2000/svg" width="1024" height="1024">
<path d="M0 0 C337.92 0 675.84 0 1024 0 C1024 337.92 1024 675.84 1024 1024 C686.08 1024 348.16 1024 0 1024 C0 686.08 0 348.16 0 0 Z " fill="#4B1191" transform="translate(0,0)"/>
<path d="M0 0 C80.19 0 160.38 0 243 0 C243 67.98 243 135.96 243 206 C162.81 206 82.62 206 0 206 C0 138.02 0 70.04 0 0 Z " fill="#FCFBFD" transform="translate(94,410)"/>
<path d="M0 0 C79.53 0 159.06 0 241 0 C241 19.47 241 38.94 241 59 C182.26 59 123.52 59 63 59 C63 88.7 63 118.4 63 149 C122.07 149 181.14 149 242 149 C242 168.47 242 187.94 242 208 C162.14 208 82.28 208 0 208 C0 139.36 0 70.72 0 0 Z " fill="#FBFAFD" transform="translate(391,408)"/>
<path d="M0 0 C79.2 0 158.4 0 240 0 C240 19.14 240 38.28 240 58 C181.26 58 122.52 58 62 58 C62 88.03 62 118.06 62 149 C121.4 149 180.8 149 242 149 C242 168.47 242 187.94 242 208 C162.14 208 82.28 208 0 208 C0 139.36 0 70.72 0 0 Z " fill="#FCFBFD" transform="translate(688,408)"/>
<path d="M0 0 C36.3 0 72.6 0 110 0 C110 29.04 110 58.08 110 88 C73.7 88 37.4 88 0 88 C0 58.96 0 29.92 0 0 Z " fill="#4F1893" transform="translate(160,470)"/>
<path d="M0 0 C2.43267179 3.64900768 2.28904557 6.35844339 2.2746582 10.57666016 C2.27976913 11.34602402 2.28488007 12.11538788 2.29014587 12.9080658 C2.30405018 15.45181038 2.30308509 17.99528443 2.30078125 20.5390625 C2.30466653 22.30357973 2.30900085 24.06809602 2.31376648 25.83261108 C2.32122961 29.5297143 2.32093587 33.226722 2.31567383 36.92382812 C2.30986628 41.67348372 2.32684054 46.42275099 2.3500185 51.1723423 C2.36470868 54.81477157 2.36563424 58.45710615 2.36250877 62.09955978 C2.36302395 63.85154365 2.36829818 65.60353255 2.37832069 67.35548782 C2.39058267 69.79796328 2.38395708 72.23966691 2.37231445 74.68212891 C2.37995819 75.41252884 2.38760193 76.14292877 2.39547729 76.89546204 C2.3742218 78.90078735 2.3742218 78.90078735 2 82 C1.505 82.165 1.505 82.165 -1 83 C-1.02312328 72.32580302 -1.04091501 61.65161194 -1.05181217 50.97739506 C-1.05704103 46.02146078 -1.06413874 41.06554358 -1.07543945 36.10961914 C-1.08626822 31.33101164 -1.09227681 26.55242062 -1.09487724 21.7738018 C-1.09673151 19.94646381 -1.10035216 18.11912676 -1.10573006 16.29179573 C-1.11294036 13.74146671 -1.11399095 11.19120663 -1.11352539 8.64086914 C-1.11712067 7.87770386 -1.12071594 7.11453857 -1.12442017 6.32824707 C-1.11405216 1.11405216 -1.11405216 1.11405216 0 0 Z " fill="#391274" transform="translate(752,473)"/>
<path d="M0 0 C0 0.99 0 1.98 0 3 C-34.98 3 -69.96 3 -106 3 C-106 2.34 -106 1.68 -106 1 C-92.47462635 0.86950351 -78.94925172 0.73910975 -65.42387581 0.60884857 C-59.14407427 0.54836534 -52.86427307 0.4878462 -46.58447266 0.42724609 C-40.52854364 0.36880765 -34.47261374 0.31046209 -28.4166832 0.25218201 C-26.10173383 0.22988724 -23.7867848 0.20755852 -21.47183609 0.18519592 C-18.23920017 0.15397408 -15.00656313 0.12287098 -11.77392578 0.09179688 C-10.80863953 0.08244614 -9.84335327 0.0730954 -8.84881592 0.0634613 C-7.97099457 0.05504715 -7.09317322 0.046633 -6.18875122 0.03796387 C-5.80620713 0.0342767 -5.80620713 0.0342767 -3.8703022 0.01561737 C-2.58023594 0.00484508 -1.29011124 0 0 0 Z " fill="#2B0D6C" transform="translate(268,553)"/>
<path d="M0 0 C33.66 0.33 67.32 0.66 102 1 C101.67 1.66 101.34 2.32 101 3 C97.91426431 3.19737862 94.91760537 3.26179835 91.83032227 3.24291992 C90.86778534 3.24481827 89.90524841 3.24671661 88.9135437 3.24867249 C85.71441645 3.25239364 82.51551351 3.24165646 79.31640625 3.23046875 C77.10302253 3.22927751 74.8896383 3.22882367 72.67625427 3.2290802 C68.02982433 3.22751298 63.38347117 3.21920569 58.73706055 3.20581055 C52.77016661 3.18883026 46.80335726 3.1849958 40.83644199 3.18575573 C36.26323127 3.18548424 31.69003918 3.18000619 27.11683464 3.17275429 C24.9163216 3.1695636 22.71580644 3.16759928 20.51529121 3.16686058 C17.44318141 3.1647007 14.37116263 3.15596374 11.29907227 3.14526367 C10.38211075 3.14571686 9.46514923 3.14617004 8.520401 3.14663696 C2.22894991 3.11447495 2.22894991 3.11447495 0 2 C0 1.34 0 0.68 0 0 Z " fill="#360E74" transform="translate(162,471)"/>
<path d="M0 0 C0.66 0 1.32 0 2 0 C2.19981339 11.45626492 2.38357884 22.91266227 2.54658794 34.36951351 C2.62278154 39.68881007 2.70460084 45.00789847 2.79907227 50.3269043 C2.88995828 55.45550397 2.96633426 60.58412941 3.03244972 65.71310616 C3.06032272 67.6744963 3.09351477 69.635818 3.13199425 71.59702873 C3.18480797 74.33414819 3.21907411 77.070896 3.2487793 79.80834961 C3.26891586 80.62761932 3.28905243 81.44688904 3.30979919 82.29098511 C3.32279968 84.53892517 3.32279968 84.53892517 3 88 C2.505 88.165 2.505 88.165 0 89 C0 59.63 0 30.26 0 0 Z " fill="#1D1062" transform="translate(454,467)"/>
</svg>
