<?xml version="1.0" encoding="UTF-8"?>
<svg xmlns="http://www.w3.org/2000/svg" viewBox="0 0 478.9 80.0" fill="#FFFFFF">
  <path fill-rule="evenodd" d="M 50.0 72.0 C 50.0 71.4 50.2 71.0 50.5 71.0 C 50.8 71.0 51.0 70.5 51.0 70.0 C 51.0 69.4 51.2 69.0 51.5 69.0 C 51.8 69.0 52.0 68.3 52.0 67.5 C 52.0 66.7 52.2 66.0 52.5 66.0 C 52.8 66.0 53.0 65.5 53.0 65.0 C 53.0 64.4 53.2 64.0 53.5 64.0 C 53.8 64.0 54.0 63.5 54.0 63.0 C 54.0 62.4 54.2 62.0 54.5 62.0 C 54.8 62.0 55.0 61.3 55.0 60.5 C 55.0 59.7 55.2 59.0 55.5 59.0 C 55.8 59.0 56.0 58.5 56.0 58.0 C 56.0 57.4 56.2 57.0 56.5 57.0 C 56.8 57.0 57.0 56.3 57.0 55.5 C 57.0 54.7 57.2 54.0 57.5 54.0 C 57.8 54.0 58.0 53.5 58.0 53.0 C 58.0 52.4 58.2 52.0 58.5 52.0 C 58.8 52.0 59.0 51.3 59.0 50.5 C 59.0 49.7 59.2 49.0 59.5 49.0 C 59.8 49.0 60.0 48.5 60.0 48.0 C 60.0 47.4 60.2 47.0 60.5 47.0 C 60.8 47.0 61.0 46.5 61.0 46.0 C 61.0 45.4 61.2 45.0 61.5 45.0 C 61.8 45.0 62.0 44.3 62.0 43.5 C 62.0 42.7 62.2 42.0 62.5 42.0 C 62.8 42.0 63.0 41.5 63.0 41.0 C 63.0 40.4 63.2 40.0 63.5 40.0 C 63.8 40.0 64.0 39.3 64.0 38.5 C 64.0 37.7 64.2 37.0 64.5 37.0 C 64.8 37.0 65.0 36.5 65.0 36.0 C 65.0 35.4 65.2 35.0 65.5 35.0 C 65.8 35.0 66.0 34.5 66.0 34.0 C 66.0 33.4 66.2 33.0 66.5 33.0 C 66.8 33.0 67.0 32.3 67.0 31.5 C 67.0 30.7 67.2 30.0 67.5 30.0 C 67.8 30.0 68.0 29.5 68.0 29.0 C 68.0 28.4 68.2 28.0 68.5 28.0 C 68.8 28.0 69.0 27.3 69.0 26.5 C 69.0 25.7 69.2 25.0 69.5 25.0 C 69.8 25.0 70.0 24.5 70.0 24.0 C 70.0 23.4 70.2 23.0 70.5 23.0 C 70.8 23.0 71.0 22.5 71.0 22.0 C 71.0 21.4 71.2 21.0 71.5 21.0 C 71.8 21.0 72.0 20.4 72.0 19.7 C 72.0 17.3 72.8 17.0 80.2 17.0 C 86.6 17.0 87.0 17.0 87.0 18.0 C 87.0 18.5 86.8 19.0 86.5 19.0 C 86.2 19.0 86.0 19.4 86.0 20.0 C 86.0 20.5 85.8 21.0 85.5 21.0 C 85.2 21.0 85.0 21.7 85.0 22.5 C 85.0 23.3 84.8 24.0 84.5 24.0 C 84.2 24.0 84.0 24.4 84.0 25.0 C 84.0 25.5 83.8 26.0 83.5 26.0 C 83.2 26.0 83.0 26.4 83.0 27.0 C 83.0 27.5 82.8 28.0 82.5 28.0 C 82.2 28.0 82.0 28.7 82.0 29.5 C 82.0 30.3 81.8 31.0 81.5 31.0 C 81.2 31.0 81.0 31.4 81.0 32.0 C 81.0 32.5 80.8 33.0 80.5 33.0 C 80.2 33.0 80.0 33.7 80.0 34.5 C 80.0 35.3 79.8 36.0 79.5 36.0 C 79.2 36.0 79.0 36.4 79.0 37.0 C 79.0 37.5 78.8 38.0 78.5 38.0 C 78.2 38.0 78.0 38.4 78.0 39.0 C 78.0 39.5 77.8 40.0 77.5 40.0 C 77.2 40.0 77.0 40.7 77.0 41.5 C 77.0 42.3 76.8 43.0 76.5 43.0 C 76.2 43.0 76.0 43.4 76.0 44.0 C 76.0 44.5 75.8 45.0 75.5 45.0 C 75.2 45.0 75.0 45.7 75.0 46.5 C 75.0 47.3 74.8 48.0 74.5 48.0 C 74.2 48.0 74.0 48.4 74.0 49.0 C 74.0 49.5 73.8 50.0 73.5 50.0 C 73.2 50.0 73.0 50.4 73.0 51.0 C 73.0 51.5 72.8 52.0 72.5 52.0 C 72.2 52.0 72.0 52.7 72.0 53.5 C 72.0 54.3 71.8 55.0 71.5 55.0 C 71.2 55.0 71.0 55.4 71.0 56.0 C 71.0 56.5 70.8 57.0 70.5 57.0 C 70.2 57.0 70.0 57.7 70.0 58.5 C 70.0 59.3 69.8 60.0 69.5 60.0 C 69.2 60.0 69.0 60.4 69.0 61.0 C 69.0 61.5 68.8 62.0 68.5 62.0 C 68.2 62.0 68.0 62.4 68.0 63.0 C 68.0 63.5 67.8 64.0 67.5 64.0 C 67.2 64.0 67.0 64.7 67.0 65.5 C 67.0 66.3 66.8 67.0 66.5 67.0 C 66.2 67.0 66.0 67.4 66.0 68.0 C 66.0 68.5 65.8 69.0 65.5 69.0 C 65.2 69.0 65.0 69.6 65.0 70.3 C 65.0 72.7 64.1 73.0 56.8 73.0 C 50.3 73.0 50.0 72.9 50.0 72.0 Z
         M 72.0 72.5 C 72.0 72.2 72.2 72.0 72.5 72.0 C 72.8 72.0 73.0 71.3 73.0 70.5 C 73.0 69.7 73.2 69.0 73.5 69.0 C 73.8 69.0 74.0 68.3 74.0 67.5 C 74.0 66.7 74.2 66.0 74.5 66.0 C 74.8 66.0 75.0 65.5 75.0 65.0 C 75.0 64.4 75.2 64.0 75.5 64.0 C 75.8 64.0 76.0 63.5 76.0 63.0 C 76.0 62.4 76.2 62.0 76.5 62.0 C 76.8 62.0 77.0 61.3 77.0 60.5 C 77.0 59.7 77.2 59.0 77.5 59.0 C 77.8 59.0 78.0 58.5 78.0 58.0 C 78.0 57.4 78.2 57.0 78.5 57.0 C 78.8 57.0 79.0 56.3 79.0 55.5 C 79.0 54.7 79.2 54.0 79.5 54.0 C 79.8 54.0 80.0 53.5 80.0 53.0 C 80.0 52.4 80.2 52.0 80.5 52.0 C 80.8 52.0 81.0 51.3 81.0 50.5 C 81.0 49.7 81.2 49.0 81.5 49.0 C 81.8 49.0 82.0 48.5 82.0 48.0 C 82.0 47.4 82.2 47.0 82.5 47.0 C 82.8 47.0 83.0 46.5 83.0 46.0 C 83.0 45.4 83.2 45.0 83.5 45.0 C 83.8 45.0 84.0 44.5 84.0 44.0 C 84.0 43.4 84.2 43.0 84.5 43.0 C 84.8 43.0 85.0 42.3 85.0 41.5 C 85.0 40.7 85.2 40.0 85.5 40.0 C 85.8 40.0 86.0 39.5 86.0 39.0 C 86.0 38.4 86.2 38.0 86.5 38.0 C 86.8 38.0 87.0 37.3 87.0 36.5 C 87.0 35.7 87.2 35.0 87.5 35.0 C 87.8 35.0 88.0 34.5 88.0 34.0 C 88.0 33.4 88.2 33.0 88.5 33.0 C 88.8 33.0 89.0 32.3 89.0 31.5 C 89.0 30.7 89.2 30.0 89.5 30.0 C 89.8 30.0 90.0 29.5 90.0 29.0 C 90.0 28.4 90.2 28.0 90.5 28.0 C 90.8 28.0 91.0 27.3 91.0 26.5 C 91.0 25.7 91.2 25.0 91.5 25.0 C 91.8 25.0 92.0 24.5 92.0 24.0 C 92.0 23.4 92.2 23.0 92.5 23.0 C 92.8 23.0 93.0 22.5 93.0 22.0 C 93.0 21.4 93.2 21.0 93.5 21.0 C 93.8 21.0 94.0 20.4 94.0 19.7 C 94.0 17.3 94.8 17.0 102.2 17.0 C 108.6 17.0 109.0 17.0 109.0 18.0 C 109.0 18.5 108.8 19.0 108.5 19.0 C 108.2 19.0 108.0 19.4 108.0 20.0 C 108.0 20.5 107.8 21.0 107.5 21.0 C 107.2 21.0 107.0 21.7 107.0 22.5 C 107.0 23.3 106.8 24.0 106.5 24.0 C 106.2 24.0 106.0 24.4 106.0 25.0 C 106.0 25.5 105.8 26.0 105.5 26.0 C 105.2 26.0 105.0 26.7 105.0 27.5 C 105.0 28.3 104.8 29.0 104.5 29.0 C 104.2 29.0 104.0 29.4 104.0 30.0 C 104.0 30.5 103.8 31.0 103.5 31.0 C 103.2 31.0 103.0 31.4 103.0 32.0 C 103.0 32.5 102.8 33.0 102.5 33.0 C 102.2 33.0 102.0 33.7 102.0 34.5 C 102.0 35.3 101.8 36.0 101.5 36.0 C 101.2 36.0 101.0 36.4 101.0 37.0 C 101.0 37.5 100.8 38.0 100.5 38.0 C 100.2 38.0 100.0 38.4 100.0 39.0 C 100.0 39.5 99.8 40.0 99.5 40.0 C 99.2 40.0 99.0 40.7 99.0 41.5 C 99.0 42.3 98.8 43.0 98.5 43.0 C 98.2 43.0 98.0 43.7 98.0 44.5 C 98.0 45.3 97.8 46.0 97.5 46.0 C 97.2 46.0 97.0 46.4 97.0 47.0 C 97.0 47.5 96.8 48.0 96.5 48.0 C 96.2 48.0 96.0 48.4 96.0 49.0 C 96.0 49.5 95.8 50.0 95.5 50.0 C 95.2 50.0 95.0 50.7 95.0 51.5 C 95.0 52.3 94.8 53.0 94.5 53.0 C 94.2 53.0 94.0 53.4 94.0 54.0 C 94.0 54.5 93.8 55.0 93.5 55.0 C 93.2 55.0 93.0 55.4 93.0 56.0 C 93.0 56.5 92.8 57.0 92.5 57.0 C 92.2 57.0 92.0 57.7 92.0 58.5 C 92.0 59.3 91.8 60.0 91.5 60.0 C 91.2 60.0 91.0 60.4 91.0 61.0 C 91.0 61.5 90.8 62.0 90.5 62.0 C 90.2 62.0 90.0 62.7 90.0 63.5 C 90.0 64.3 89.8 65.0 89.5 65.0 C 89.2 65.0 89.0 65.4 89.0 66.0 C 89.0 66.5 88.8 67.0 88.5 67.0 C 88.2 67.0 88.0 67.4 88.0 68.0 C 88.0 68.5 87.8 69.0 87.5 69.0 C 87.2 69.0 87.0 69.6 87.0 70.3 C 87.0 72.7 86.1 73.0 78.8 73.0 C 74.6 73.0 72.0 72.8 72.0 72.5 Z
         M 29.5 67.0 C 27.4 64.8 25.4 63.0 25.1 63.0 C 24.3 63.0 7.0 45.7 7.0 45.0 C 7.0 44.7 9.9 41.5 13.5 38.0 C 17.1 34.4 20.0 31.3 20.0 31.0 C 20.0 30.0 32.4 18.0 33.5 18.0 C 34.1 18.0 36.2 19.7 38.7 22.2 L 43.0 26.5 L 34.0 35.5 L 25.0 44.5 L 28.7 48.2 C 30.8 50.3 32.7 52.0 33.0 52.0 C 33.3 52.0 35.6 54.1 38.2 56.7 L 43.0 61.5 L 39.5 65.0 C 37.6 66.9 36.0 68.7 36.0 69.0 C 36.0 69.8 34.7 71.0 33.9 70.9 C 33.5 70.9 31.5 69.1 29.5 67.0 Z
         M 192.0 67.5 C 192.0 67.2 191.1 67.0 190.0 67.0 C 188.9 67.0 188.0 66.7 188.0 66.5 C 188.0 66.2 187.5 66.0 187.0 66.0 C 186.4 66.0 186.0 65.7 186.0 65.5 C 186.0 65.2 185.5 65.0 185.0 65.0 C 184.4 65.0 184.0 64.7 184.0 64.5 C 184.0 64.2 183.6 64.0 183.2 64.0 C 182.3 64.0 178.0 59.8 178.0 58.8 C 178.0 58.5 177.5 57.9 177.0 57.5 C 176.4 57.1 176.0 56.4 176.0 55.9 C 176.0 55.4 175.8 55.0 175.5 55.0 C 175.2 55.0 175.0 54.3 175.0 53.5 C 175.0 52.7 174.8 52.0 174.5 52.0 C 174.2 52.0 174.0 49.3 174.0 45.0 C 174.0 40.6 174.2 38.0 174.5 38.0 C 174.8 38.0 175.0 37.5 175.0 37.0 C 175.0 36.4 175.2 36.0 175.5 36.0 C 175.8 36.0 176.0 35.3 176.0 34.6 C 176.0 33.8 176.4 32.9 177.0 32.5 C 177.5 32.1 178.0 31.5 178.0 31.1 C 178.0 30.2 181.2 27.0 182.1 27.0 C 182.5 27.0 183.1 26.5 183.5 26.0 C 183.9 25.4 184.6 25.0 185.1 25.0 C 185.6 25.0 186.0 24.8 186.0 24.5 C 186.0 24.2 186.4 24.0 187.0 24.0 C 187.5 24.0 188.0 23.8 188.0 23.5 C 188.0 23.2 189.1 23.0 190.5 23.0 C 191.8 23.0 193.0 22.8 193.0 22.5 C 193.0 22.2 194.3 22.0 196.0 22.0 C 197.6 22.0 199.0 22.2 199.0 22.5 C 199.0 22.8 199.9 23.0 201.0 23.0 C 202.1 23.0 203.0 23.2 203.0 23.5 C 203.0 23.8 203.4 24.0 204.0 24.0 C 204.5 24.0 205.0 24.2 205.0 24.5 C 205.0 24.8 205.4 25.0 206.0 25.0 C 206.5 25.0 207.0 25.2 207.0 25.5 C 207.0 25.8 207.3 26.0 207.7 26.0 C 208.7 26.0 213.0 30.2 213.0 31.1 C 213.0 31.5 213.4 32.1 214.0 32.5 C 214.5 32.9 215.0 33.6 215.0 34.1 C 215.0 34.6 215.2 35.0 215.5 35.0 C 215.8 35.0 216.0 35.7 216.0 36.5 C 216.0 37.3 216.2 38.0 216.5 38.0 C 216.8 38.0 217.0 39.3 217.0 41.0 C 217.0 42.6 217.2 44.0 217.5 44.0 C 217.8 44.0 218.0 44.4 218.0 45.0 C 218.0 45.5 217.8 46.0 217.5 46.0 C 217.2 46.0 217.0 47.3 217.0 49.0 C 217.0 50.6 216.8 52.0 216.5 52.0 C 216.2 52.0 216.0 52.7 216.0 53.5 C 216.0 54.3 215.8 55.0 215.5 55.0 C 215.2 55.0 215.0 55.4 215.0 55.9 C 215.0 56.4 214.5 57.1 214.0 57.5 C 213.4 57.9 213.0 58.5 213.0 58.9 C 213.0 59.7 209.7 63.0 208.9 63.0 C 208.5 63.0 207.9 63.4 207.5 64.0 C 207.1 64.5 206.4 65.0 205.9 65.0 C 205.4 65.0 205.0 65.2 205.0 65.5 C 205.0 65.7 204.5 66.0 204.0 66.0 C 203.4 66.0 203.0 66.2 203.0 66.5 C 203.0 66.7 202.1 67.0 201.0 67.0 C 199.9 67.0 199.0 67.2 199.0 67.5 C 199.0 67.8 197.5 68.0 195.5 68.0 C 193.5 68.0 192.0 67.8 192.0 67.5 Z
         M 239.0 67.5 C 239.0 67.2 238.1 67.0 237.0 67.0 C 235.9 67.0 235.0 66.7 235.0 66.5 C 235.0 66.2 234.5 66.0 234.0 66.0 C 233.4 66.0 233.0 65.7 233.0 65.5 C 233.0 65.2 232.6 65.0 232.1 65.0 C 231.6 65.0 230.9 64.5 230.5 64.0 C 230.1 63.4 229.5 63.0 229.1 63.0 C 228.2 63.0 225.0 59.7 225.0 58.9 C 225.0 58.5 224.5 57.9 224.0 57.5 C 223.4 57.1 223.0 56.4 223.0 55.9 C 223.0 55.4 222.8 55.0 222.5 55.0 C 222.2 55.0 222.0 54.3 222.0 53.5 C 222.0 52.7 221.8 52.0 221.5 52.0 C 221.2 52.0 221.0 49.6 221.0 46.0 C 221.0 42.3 221.2 40.0 221.5 40.0 C 221.8 40.0 222.0 39.3 222.0 38.5 C 222.0 37.7 222.2 37.0 222.5 37.0 C 222.8 37.0 223.0 36.3 223.0 35.5 C 223.0 34.7 223.2 34.0 223.5 34.0 C 223.8 34.0 224.0 33.6 224.0 33.2 C 224.0 32.3 230.2 26.0 231.1 26.0 C 231.5 26.0 232.1 25.5 232.5 25.0 C 232.9 24.4 233.8 24.0 234.6 24.0 C 235.3 24.0 236.0 23.8 236.0 23.5 C 236.0 23.2 236.9 23.0 238.0 23.0 C 239.1 23.0 240.0 22.8 240.0 22.5 C 240.0 22.2 241.1 22.0 242.5 22.0 C 243.8 22.0 245.0 22.2 245.0 22.5 C 245.0 22.8 245.9 23.0 247.0 23.0 C 248.1 23.0 249.0 23.2 249.0 23.5 C 249.0 23.8 249.7 24.0 250.5 24.0 C 251.3 24.0 252.0 24.2 252.0 24.5 C 252.0 24.8 252.4 25.0 252.9 25.0 C 253.4 25.0 254.1 25.4 254.5 26.0 C 254.9 26.5 255.5 27.0 255.9 27.0 C 256.8 27.0 259.0 29.3 259.0 30.2 C 259.0 30.6 259.2 31.0 259.5 31.0 C 259.8 31.0 260.0 31.5 260.0 32.2 C 260.0 33.5 254.1 40.0 253.0 40.0 C 252.7 40.0 251.3 38.8 250.0 37.5 C 248.6 36.1 247.2 35.0 246.8 35.0 C 246.3 35.0 246.0 34.8 246.0 34.5 C 246.0 34.2 244.5 34.0 242.5 34.0 C 240.5 34.0 239.0 34.2 239.0 34.5 C 239.0 34.8 238.6 35.0 238.2 35.0 C 237.2 35.0 234.0 38.2 234.0 39.2 C 234.0 39.6 233.8 40.0 233.5 40.0 C 233.2 40.0 233.0 40.7 233.0 41.5 C 233.0 42.3 232.8 43.0 232.5 43.0 C 232.2 43.0 232.0 44.1 232.0 45.5 C 232.0 46.8 232.2 48.0 232.5 48.0 C 232.8 48.0 233.0 48.5 233.0 49.2 C 233.0 50.1 233.8 51.4 235.7 53.2 L 238.5 56.0 L 242.7 56.0 C 245.2 56.0 247.0 55.8 247.0 55.5 C 247.0 55.2 247.3 55.0 247.7 55.0 C 248.2 55.0 249.3 54.2 250.2 53.2 C 251.2 52.3 252.0 51.2 252.0 50.7 C 252.0 50.3 252.1 50.0 252.2 50.0 C 253.0 50.0 260.0 57.6 260.0 58.5 C 260.0 59.7 255.9 64.0 254.7 64.0 C 254.3 64.0 254.0 64.2 254.0 64.5 C 254.0 64.7 253.5 65.0 253.0 65.0 C 252.4 65.0 252.0 65.2 252.0 65.5 C 252.0 65.7 251.5 66.0 251.0 66.0 C 250.4 66.0 250.0 66.2 250.0 66.5 C 250.0 66.7 249.1 67.0 248.0 67.0 C 246.9 67.0 246.0 67.2 246.0 67.5 C 246.0 67.8 244.5 68.0 242.5 68.0 C 240.5 68.0 239.0 67.8 239.0 67.5 Z
         M 281.0 67.5 C 281.0 67.2 280.1 67.0 279.0 67.0 C 277.9 67.0 277.0 66.7 277.0 66.5 C 277.0 66.2 276.5 66.0 276.0 66.0 C 275.4 66.0 275.0 65.7 275.0 65.5 C 275.0 65.2 274.6 65.0 274.1 65.0 C 273.6 65.0 272.9 64.5 272.5 64.0 C 272.1 63.4 271.5 63.0 271.1 63.0 C 270.2 63.0 267.0 59.7 267.0 58.9 C 267.0 58.5 266.5 57.9 266.0 57.5 C 265.4 57.1 265.0 56.4 265.0 55.9 C 265.0 55.4 264.8 55.0 264.5 55.0 C 264.2 55.0 264.0 54.3 264.0 53.5 C 264.0 52.7 263.8 52.0 263.5 52.0 C 263.2 52.0 263.0 49.3 263.0 45.0 C 263.0 40.6 263.2 38.0 263.5 38.0 C 263.8 38.0 264.0 37.5 264.0 37.0 C 264.0 36.4 264.2 36.0 264.5 36.0 C 264.8 36.0 265.0 35.3 265.0 34.6 C 265.0 33.8 265.4 32.9 266.0 32.5 C 266.5 32.1 267.0 31.5 267.0 31.1 C 267.0 30.2 270.2 27.0 271.1 27.0 C 271.5 27.0 272.1 26.5 272.5 26.0 C 272.9 25.4 273.6 25.0 274.1 25.0 C 274.6 25.0 275.0 24.8 275.0 24.5 C 275.0 24.2 275.4 24.0 276.0 24.0 C 276.5 24.0 277.0 23.8 277.0 23.5 C 277.0 23.2 278.1 23.0 279.5 23.0 C 280.9 23.0 282.0 22.8 282.0 22.5 C 282.0 22.2 283.3 22.0 285.0 22.0 C 286.6 22.0 288.0 22.2 288.0 22.5 C 288.0 22.8 288.9 23.0 290.0 23.0 C 291.1 23.0 292.0 23.2 292.0 23.5 C 292.0 23.8 292.4 24.0 293.0 24.0 C 293.5 24.0 294.0 24.2 294.0 24.5 C 294.0 24.8 294.4 25.0 295.0 25.0 C 295.5 25.0 296.0 25.2 296.0 25.5 C 296.0 25.8 296.3 26.0 296.7 26.0 C 297.7 26.0 303.0 31.2 303.0 32.2 C 303.0 32.6 303.2 33.0 303.5 33.0 C 303.8 33.0 304.0 33.4 304.0 34.0 C 304.0 34.5 304.2 35.0 304.5 35.0 C 304.8 35.0 305.0 35.7 305.0 36.5 C 305.0 37.3 305.2 38.0 305.5 38.0 C 305.8 38.0 306.0 39.5 306.0 41.4 C 306.0 43.7 306.2 45.0 306.6 45.2 C 307.1 45.4 307.1 45.5 306.6 45.8 C 306.2 46.0 306.0 47.1 306.0 49.0 C 306.0 50.7 305.8 52.0 305.5 52.0 C 305.2 52.0 305.0 52.7 305.0 53.5 C 305.0 54.3 304.8 55.0 304.5 55.0 C 304.2 55.0 304.0 55.4 304.0 55.9 C 304.0 56.4 303.5 57.1 303.0 57.5 C 302.4 57.9 302.0 58.5 302.0 58.8 C 302.0 59.8 297.7 64.0 296.7 64.0 C 296.3 64.0 296.0 64.2 296.0 64.5 C 296.0 64.7 295.5 65.0 295.0 65.0 C 294.4 65.0 294.0 65.2 294.0 65.5 C 294.0 65.7 293.5 66.0 293.0 66.0 C 292.4 66.0 292.0 66.2 292.0 66.5 C 292.0 66.7 291.1 67.0 290.0 67.0 C 288.9 67.0 288.0 67.2 288.0 67.5 C 288.0 67.8 286.5 68.0 284.5 68.0 C 282.5 68.0 281.0 67.8 281.0 67.5 Z
         M 328.0 67.5 C 328.0 67.2 327.1 67.0 326.0 67.0 C 324.9 67.0 324.0 66.7 324.0 66.5 C 324.0 66.2 323.5 66.0 323.0 66.0 C 322.4 66.0 322.0 65.7 322.0 65.5 C 322.0 65.2 321.6 65.0 321.1 65.0 C 320.6 65.0 319.9 64.5 319.5 64.0 C 319.1 63.4 318.5 63.0 318.1 63.0 C 317.2 63.0 314.0 59.7 314.0 58.7 C 314.0 58.3 313.8 58.0 313.5 58.0 C 313.2 58.0 313.0 57.5 313.0 57.0 C 313.0 56.4 312.8 56.0 312.5 56.0 C 312.2 56.0 312.0 55.5 312.0 55.0 C 312.0 54.4 311.8 54.0 311.5 54.0 C 311.2 54.0 311.0 53.3 311.0 52.5 C 311.0 51.7 310.8 51.0 310.5 51.0 C 310.2 51.0 310.0 48.6 310.0 45.0 C 310.0 41.3 310.2 39.0 310.5 39.0 C 310.8 39.0 311.0 38.3 311.0 37.5 C 311.0 36.7 311.2 36.0 311.5 36.0 C 311.8 36.0 312.0 35.5 312.0 35.0 C 312.0 34.4 312.2 34.0 312.5 34.0 C 312.8 34.0 313.0 33.6 313.0 33.1 C 313.0 32.6 313.4 31.9 314.0 31.5 C 314.5 31.1 315.0 30.5 315.0 30.1 C 315.0 29.2 316.2 28.0 317.0 28.0 C 317.3 28.0 318.2 27.3 319.0 26.5 C 319.7 25.7 320.7 25.0 321.2 25.0 C 321.6 25.0 322.0 24.8 322.0 24.5 C 322.0 24.2 322.7 24.0 323.5 24.0 C 324.3 24.0 325.0 23.8 325.0 23.5 C 325.0 23.2 325.9 23.0 327.0 23.0 C 328.1 23.0 329.0 22.8 329.0 22.5 C 329.0 22.2 330.1 22.0 331.5 22.0 C 332.9 22.0 334.0 22.2 334.0 22.5 C 334.0 22.8 334.9 23.0 336.0 23.0 C 337.1 23.0 338.0 23.2 338.0 23.5 C 338.0 23.8 338.4 24.0 339.0 24.0 C 339.5 24.0 340.0 24.2 340.0 24.5 C 340.0 24.8 340.4 25.0 341.0 25.0 C 341.9 25.0 342.0 24.6 342.0 16.0 L 342.0 7.0 L 348.0 7.0 L 354.0 7.0 L 354.0 27.5 C 354.0 40.8 353.8 48.0 353.5 48.0 C 353.2 48.0 353.0 49.1 353.0 50.5 C 353.0 51.8 352.8 53.0 352.5 53.0 C 352.2 53.0 352.0 53.4 352.0 54.0 C 352.0 54.5 351.8 55.0 351.5 55.0 C 351.2 55.0 351.0 55.4 351.0 56.0 C 351.0 56.5 350.8 57.0 350.5 57.0 C 350.2 57.0 350.0 57.3 350.0 57.7 C 350.0 58.7 344.8 64.0 343.8 64.0 C 343.5 64.0 342.9 64.4 342.5 65.0 C 342.1 65.6 341.2 66.0 340.4 66.0 C 339.6 66.0 339.0 66.2 339.0 66.5 C 339.0 66.7 338.1 67.0 337.0 67.0 C 335.9 67.0 335.0 67.2 335.0 67.5 C 335.0 67.8 333.5 68.0 331.5 68.0 C 329.5 68.0 328.0 67.8 328.0 67.5 Z
         M 374.0 67.5 C 374.0 67.2 373.1 67.0 372.0 67.0 C 370.9 67.0 370.0 66.7 370.0 66.5 C 370.0 66.2 369.5 66.0 369.0 66.0 C 368.4 66.0 368.0 65.7 368.0 65.5 C 368.0 65.2 367.6 65.0 367.2 65.0 C 366.8 65.0 364.8 63.3 362.7 61.2 C 360.7 59.2 359.0 57.2 359.0 56.7 C 359.0 56.3 358.8 56.0 358.5 56.0 C 358.2 56.0 358.0 55.5 358.0 55.0 C 358.0 54.4 357.8 54.0 357.5 54.0 C 357.2 54.0 357.0 53.1 357.0 52.0 C 357.0 50.9 356.8 50.0 356.5 50.0 C 356.2 50.0 356.0 48.0 356.0 45.0 C 356.0 42.0 356.2 40.0 356.5 40.0 C 356.8 40.0 357.0 39.1 357.0 38.0 C 357.0 36.9 357.2 36.0 357.5 36.0 C 357.8 36.0 358.0 35.5 358.0 35.0 C 358.0 34.4 358.2 34.0 358.5 34.0 C 358.8 34.0 359.0 33.6 359.0 33.2 C 359.0 32.3 365.2 26.0 366.1 26.0 C 366.5 26.0 367.1 25.5 367.5 25.0 C 367.9 24.4 368.8 24.0 369.6 24.0 C 370.3 24.0 371.0 23.8 371.0 23.5 C 371.0 23.2 371.9 23.0 373.0 23.0 C 374.1 23.0 375.0 22.8 375.0 22.5 C 375.0 22.2 376.3 22.0 378.0 22.0 C 379.6 22.0 381.0 22.2 381.0 22.5 C 381.0 22.8 381.9 23.0 383.0 23.0 C 384.1 23.0 385.0 23.2 385.0 23.5 C 385.0 23.8 385.7 24.0 386.5 24.0 C 387.3 24.0 388.0 24.2 388.0 24.5 C 388.0 24.8 388.3 25.0 388.7 25.0 C 389.6 25.0 396.0 31.2 396.0 32.0 C 396.0 32.3 394.9 33.6 393.5 35.0 C 392.1 36.3 391.0 37.7 391.0 38.0 C 391.0 38.3 390.1 39.4 389.0 40.5 C 387.9 41.5 387.0 42.7 387.0 43.0 C 387.0 43.3 385.9 44.6 384.5 46.0 C 383.1 47.3 382.0 48.7 382.0 49.0 C 382.0 49.3 380.9 50.6 379.5 52.0 C 377.1 54.3 376.0 57.0 377.5 57.0 C 377.8 57.0 378.0 56.7 378.0 56.5 C 378.0 56.2 378.9 56.0 380.0 56.0 C 381.1 56.0 382.0 55.7 382.0 55.5 C 382.0 55.2 382.3 55.0 382.8 55.0 C 383.2 55.0 384.4 54.1 385.5 53.0 C 386.5 51.9 387.6 51.0 387.9 51.0 C 388.2 51.0 390.2 52.7 392.2 54.7 L 396.0 58.5 L 392.7 61.7 C 391.0 63.5 389.2 65.0 388.7 65.0 C 388.3 65.0 388.0 65.2 388.0 65.5 C 388.0 65.7 387.3 66.0 386.5 66.0 C 385.7 66.0 385.0 66.2 385.0 66.5 C 385.0 66.7 384.3 67.0 383.5 67.0 C 382.7 67.0 382.0 67.2 382.0 67.5 C 382.0 67.8 380.3 68.0 378.0 68.0 C 375.6 68.0 374.0 67.8 374.0 67.5 Z
         M 130.0 45.0 L 130.0 23.0 L 141.5 23.0 C 148.8 23.0 153.0 23.2 153.0 23.5 C 153.0 23.8 153.7 24.0 154.5 24.0 C 155.3 24.0 156.0 24.2 156.0 24.5 C 156.0 24.8 156.6 25.0 157.4 25.0 C 158.2 25.0 159.1 25.4 159.5 26.0 C 159.9 26.5 160.5 27.0 160.9 27.0 C 161.8 27.0 165.0 30.3 165.0 31.2 C 165.0 31.6 165.2 32.0 165.5 32.0 C 165.8 32.0 166.0 32.4 166.0 33.0 C 166.0 33.5 166.2 34.0 166.5 34.0 C 166.8 34.0 167.0 34.4 167.0 35.0 C 167.0 35.5 167.2 36.0 167.5 36.0 C 167.8 36.0 168.0 36.9 168.0 38.0 C 168.0 39.1 168.2 40.0 168.5 40.0 C 168.8 40.0 169.0 44.8 169.0 53.5 L 169.0 67.0 L 163.0 67.0 L 157.0 67.0 L 157.0 53.2 L 157.0 39.4 L 154.7 37.2 C 152.5 35.0 152.4 35.0 149.2 35.0 C 147.4 35.0 146.0 35.2 146.0 35.5 C 146.0 35.8 145.6 36.0 145.2 36.0 C 143.8 36.0 142.0 38.3 142.0 40.2 C 142.0 41.2 141.8 42.0 141.5 42.0 C 141.2 42.0 141.0 46.5 141.0 54.5 L 141.0 67.0 L 135.5 67.0 L 130.0 67.0 L 130.0 45.0 Z
         M 401.0 52.0 C 401.0 42.3 401.2 37.0 401.5 37.0 C 401.8 37.0 402.0 36.3 402.0 35.5 C 402.0 34.7 402.2 34.0 402.5 34.0 C 402.8 34.0 403.0 33.4 403.0 32.7 C 403.0 31.3 407.9 26.0 409.2 26.0 C 409.6 26.0 410.0 25.8 410.0 25.5 C 410.0 25.2 410.7 25.0 411.5 25.0 C 412.3 25.0 413.0 24.8 413.0 24.5 C 413.0 24.2 416.1 24.0 421.5 24.0 L 430.0 24.0 L 430.0 29.5 L 430.0 35.0 L 424.5 35.0 C 421.1 35.0 419.0 35.2 419.0 35.5 C 419.0 35.8 418.4 36.0 417.7 36.0 C 416.0 36.0 413.0 39.0 413.0 40.7 C 413.0 41.4 412.8 42.0 412.5 42.0 C 412.2 42.0 412.0 46.5 412.0 54.5 L 412.0 67.0 L 406.5 67.0 L 401.0 67.0 L 401.0 52.0 Z
         M 437.0 61.5 L 437.0 56.0 L 447.8 56.0 C 459.4 56.0 460.0 55.9 460.0 53.3 L 460.0 52.0 L 452.5 52.0 C 447.8 52.0 445.0 51.8 445.0 51.5 C 445.0 51.2 444.1 51.0 443.0 51.0 C 441.9 51.0 441.0 50.7 441.0 50.5 C 441.0 50.2 440.6 50.0 440.2 50.0 C 439.8 50.0 438.4 49.0 437.2 47.7 C 436.0 46.5 435.0 45.2 435.0 44.7 C 435.0 44.3 434.8 44.0 434.5 44.0 C 434.2 44.0 434.0 43.5 434.0 43.0 C 434.0 42.4 433.8 42.0 433.5 42.0 C 433.2 42.0 433.0 40.3 433.0 38.0 C 433.0 35.6 433.2 34.0 433.5 34.0 C 433.8 34.0 434.0 33.3 434.0 32.6 C 434.0 31.8 434.4 30.9 435.0 30.5 C 435.5 30.1 436.0 29.5 436.0 29.1 C 436.0 28.2 437.2 27.0 438.1 27.0 C 438.5 27.0 439.1 26.5 439.5 26.0 C 439.9 25.4 440.8 25.0 441.6 25.0 C 442.3 25.0 443.0 24.8 443.0 24.5 C 443.0 24.2 447.6 24.0 456.0 24.0 L 469.0 24.0 L 469.0 29.5 L 469.0 35.0 L 457.7 35.0 L 446.4 35.0 L 445.2 36.2 C 442.2 39.2 443.8 40.0 452.7 40.0 C 457.2 40.0 460.0 40.2 460.0 40.5 C 460.0 40.7 460.9 41.0 462.0 41.0 C 463.1 41.0 464.0 41.2 464.0 41.5 C 464.0 41.7 464.3 42.0 464.7 42.0 C 465.7 42.0 470.0 46.2 470.0 47.2 C 470.0 47.6 470.2 48.0 470.5 48.0 C 470.8 48.0 471.0 48.7 471.0 49.5 C 471.0 50.3 471.2 51.0 471.5 51.0 C 471.8 51.0 472.0 52.1 472.0 53.5 C 472.0 54.8 471.8 56.0 471.5 56.0 C 471.2 56.0 471.0 56.7 471.0 57.5 C 471.0 58.3 470.8 59.0 470.5 59.0 C 470.2 59.0 470.0 59.3 470.0 59.7 C 470.0 60.7 465.7 65.0 464.7 65.0 C 464.3 65.0 464.0 65.2 464.0 65.5 C 464.0 65.7 463.5 66.0 463.0 66.0 C 462.4 66.0 462.0 66.2 462.0 66.5 C 462.0 66.8 457.5 67.0 449.5 67.0 L 437.0 67.0 L 437.0 61.5 Z
         M 200.0 55.5 C 200.0 55.2 200.3 55.0 200.7 55.0 C 201.7 55.0 204.0 52.7 204.0 51.7 C 204.0 51.3 204.2 51.0 204.5 51.0 C 204.8 51.0 205.0 50.5 205.0 50.0 C 205.0 49.4 205.2 49.0 205.5 49.0 C 205.8 49.0 206.0 47.5 206.0 45.5 C 206.0 43.5 205.8 42.0 205.5 42.0 C 205.2 42.0 205.0 41.4 205.0 40.7 C 205.0 39.3 201.0 35.0 199.7 35.0 C 199.3 35.0 199.0 34.8 199.0 34.5 C 199.0 34.2 197.5 34.0 195.5 34.0 C 193.5 34.0 192.0 34.2 192.0 34.5 C 192.0 34.8 191.6 35.0 191.2 35.0 C 189.9 35.0 186.0 39.3 186.0 40.7 C 186.0 41.4 185.8 42.0 185.5 42.0 C 185.2 42.0 185.0 43.3 185.0 45.0 C 185.0 46.6 185.2 48.0 185.5 48.0 C 185.8 48.0 186.0 48.6 186.0 49.4 C 186.0 50.2 186.4 51.1 187.0 51.5 C 187.5 51.9 188.0 52.6 188.0 53.1 C 188.0 53.6 188.3 54.0 188.9 54.0 C 189.4 54.0 190.1 54.4 190.5 55.0 C 191.1 55.8 191.8 56.0 195.6 56.0 C 198.2 56.0 200.0 55.8 200.0 55.5 Z
         M 289.0 55.5 C 289.0 55.2 289.3 55.0 289.7 55.0 C 290.2 55.0 291.1 54.4 291.7 53.7 C 292.4 53.1 293.0 52.2 293.0 51.7 C 293.0 51.3 293.2 51.0 293.5 51.0 C 293.8 51.0 294.0 50.5 294.0 50.0 C 294.0 49.4 294.2 49.0 294.5 49.0 C 294.8 49.0 295.0 47.3 295.0 45.0 C 295.0 42.6 294.8 41.0 294.5 41.0 C 294.2 41.0 294.0 40.6 294.0 40.1 C 294.0 39.6 293.5 38.9 293.0 38.5 C 292.4 38.1 292.0 37.4 292.0 36.9 C 292.0 36.3 291.6 36.0 291.0 36.0 C 290.4 36.0 290.0 35.8 290.0 35.5 C 290.0 35.2 289.5 35.0 289.0 35.0 C 288.4 35.0 288.0 34.8 288.0 34.5 C 288.0 34.2 286.5 34.0 284.5 34.0 C 282.5 34.0 281.0 34.2 281.0 34.5 C 281.0 34.8 280.6 35.0 280.2 35.0 C 278.9 35.0 275.0 39.3 275.0 40.7 C 275.0 41.4 274.8 42.0 274.5 42.0 C 274.2 42.0 274.0 43.3 274.0 45.0 C 274.0 46.6 274.2 48.0 274.5 48.0 C 274.8 48.0 275.0 48.6 275.0 49.4 C 275.0 50.2 275.4 51.1 276.0 51.5 C 276.5 51.9 277.0 52.6 277.0 53.1 C 277.0 53.6 277.3 54.0 277.9 54.0 C 278.4 54.0 279.1 54.4 279.5 55.0 C 280.1 55.8 280.8 56.0 284.6 56.0 C 287.2 56.0 289.0 55.8 289.0 55.5 Z
         M 338.2 53.2 C 339.7 51.7 341.0 50.2 341.0 49.7 C 341.0 49.3 341.2 49.0 341.5 49.0 C 341.8 49.0 342.0 47.3 342.0 45.0 C 342.0 42.6 341.8 41.0 341.5 41.0 C 341.2 41.0 341.0 40.6 341.0 40.2 C 341.0 39.2 336.7 35.0 335.7 35.0 C 335.3 35.0 335.0 34.8 335.0 34.5 C 335.0 34.2 333.5 34.0 331.5 34.0 C 329.5 34.0 328.0 34.2 328.0 34.5 C 328.0 34.8 327.6 35.0 327.2 35.0 C 325.9 35.0 322.0 39.3 322.0 40.7 C 322.0 41.4 321.8 42.0 321.5 42.0 C 321.2 42.0 321.0 43.3 321.0 45.0 C 321.0 46.6 321.2 48.0 321.5 48.0 C 321.8 48.0 322.0 48.5 322.0 49.2 C 322.0 50.1 322.8 51.4 324.6 53.2 L 327.2 55.9 L 331.4 55.9 L 335.5 56.0 L 338.2 53.2 Z
         M 369.3 49.3 C 369.7 48.9 370.0 48.3 370.0 48.0 C 370.0 47.7 370.9 46.5 372.0 45.5 C 373.1 44.4 374.0 43.3 374.0 43.0 C 374.0 42.6 374.7 41.7 375.5 41.0 C 376.3 40.2 377.0 39.3 377.0 39.0 C 377.0 38.6 377.7 37.7 378.5 37.0 C 380.9 34.7 380.5 34.0 377.0 34.0 C 375.3 34.0 374.0 34.2 374.0 34.5 C 374.0 34.8 373.6 35.0 373.2 35.0 C 372.2 35.0 369.0 38.2 369.0 39.2 C 369.0 39.6 368.8 40.0 368.5 40.0 C 368.2 40.0 368.0 42.0 368.0 45.0 C 368.0 50.2 368.1 50.5 369.3 49.3 Z
         M 140.0 33.0 C 140.0 32.4 140.2 32.0 140.5 32.0 C 141.5 32.0 141.0 29.4 139.7 28.2 C 138.5 27.0 137.0 26.6 137.0 27.5 C 137.0 27.8 136.6 28.0 136.2 28.0 C 135.8 28.0 135.1 28.3 134.7 28.7 C 133.9 29.5 133.7 32.0 134.5 32.0 C 134.8 32.0 135.0 32.4 135.0 33.0 C 135.0 33.8 135.3 34.0 137.5 34.0 C 139.6 34.0 140.0 33.8 140.0 33.0 Z
         M 78.0 26.5 C 78.0 26.2 78.4 26.0 79.0 26.0 C 80.2 26.0 80.4 22.8 79.3 21.7 C 77.5 19.9 75.0 21.3 75.0 24.2 C 75.0 25.6 75.2 26.0 76.0 26.0 C 76.5 26.0 77.0 26.2 77.0 26.5 C 77.0 26.8 77.2 27.0 77.5 27.0 C 77.8 27.0 78.0 26.8 78.0 26.5 Z
         M 100.0 26.5 C 100.0 26.2 100.4 26.0 101.0 26.0 C 101.8 26.0 102.0 25.6 102.0 24.2 C 102.0 22.2 101.0 21.0 99.5 21.0 C 96.4 21.0 96.0 26.9 99.1 27.0 C 99.6 27.0 100.0 26.8 100.0 26.5 Z"/>
</svg>
