<?xml version="1.0" encoding="UTF-8"?>
<!-- Generator: visioncortex VTracer 0.6.12 -->
<svg version="1.1" xmlns="http://www.w3.org/2000/svg" width="1024" height="1024">
<path d="M0 0 C337.92 0 675.84 0 1024 0 C1024 337.92 1024 675.84 1024 1024 C686.08 1024 348.16 1024 0 1024 C0 686.08 0 348.16 0 0 Z " fill="#FEFEFE" transform="translate(0,0)"/>
<path d="M0 0 C6.6 0 13.2 0 20 0 C20.09063547 11.02301667 20.16390837 22.04578284 20.20724869 33.06908894 C20.22805761 38.18853495 20.25625209 43.30771117 20.30175781 48.42700195 C20.34545541 53.37426058 20.36918737 58.3212609 20.37950897 63.26869774 C20.38685763 65.14921315 20.40120711 67.0297156 20.42292023 68.91012001 C20.5349695 79.02282095 20.51686237 87.70070527 16 97 C15.5875 98.0725 15.175 99.145 14.75 100.25 C9.43073259 108.60884879 -1.03168475 115.7233169 -10.50390625 118.46484375 C-22.46238237 121.02871109 -33.73758388 119.81174122 -45 115 C-45 114.34 -45 113.68 -45 113 C-45.3196875 112.938125 -45.3196875 112.938125 -46.9375 112.625 C-47.618125 112.41875 -48.29875 112.2125 -49 112 C-49.165 111.67 -49.165 111.67 -50 110 C-50.78375 109.54625 -51.5675 109.0925 -52.375 108.625 C-56.94541535 105.79569526 -58.80113581 101.81655965 -61 97 C-61 96.34 -61 95.68 -61 95 C-61.66 95 -62.32 95 -63 95 C-68.07027931 82.21407827 -68.37641591 68.72645285 -63 56 C-62.34 56 -61.68 56 -61 56 C-60.773125 55.175 -60.54625 54.35 -60.3125 53.5 C-57.6841027 46.49094053 -54.11647292 41.33250165 -48 37 C-46.35202764 36.28837557 -44.68834592 35.60968047 -43 35 C-42.34 34.34 -41.68 33.68 -41 33 C-38.87109375 32.40234375 -38.87109375 32.40234375 -36.4375 31.9375 C-32.09722222 31.09722222 -32.09722222 31.09722222 -31 30 C-28.3850232 29.89953761 -25.80220911 29.86127449 -23.1875 29.875 C-22.46240234 29.87113281 -21.73730469 29.86726563 -20.99023438 29.86328125 C-17.52551359 29.86962109 -14.3098123 29.9054164 -11 31 C-11 31.66 -11 32.32 -11 33 C-10.38125 33.144375 -9.7625 33.28875 -9.125 33.4375 C-7 34 -7 34 -5 35 C-5 35.66 -5 36.32 -5 37 C-3.35 37.33 -1.7 37.66 0 38 C0 25.46 0 12.92 0 0 Z " fill="#323436" transform="translate(720,447)"/>
<path d="M0 0 C0.72960937 0.36609375 1.45921875 0.7321875 2.2109375 1.109375 C6.70377215 3.50293756 11.07029397 6.35391362 12.8125 11.3125 C12.874375 11.869375 12.93625 12.42625 13 13 C13.66 13 14.32 13 15 13 C17.00792848 16.01189272 17.88398716 18.58221068 19 22 C19.350625 22.639375 19.70125 23.27875 20.0625 23.9375 C24.25631366 33.16389005 22.3437783 45.54118043 20 55 C19.34 55 18.68 55 18 55 C17.79375 55.804375 17.5875 56.60875 17.375 57.4375 C13.14643052 68.39333911 5.20696274 76.13083756 -5.390625 80.99609375 C-15.46695605 84.87276602 -28.53869836 85.51081949 -38.8671875 82.03515625 C-41.0625 80.9375 -41.0625 80.9375 -44 79 C-44 78.34 -44 77.68 -44 77 C-44.886875 76.773125 -45.77375 76.54625 -46.6875 76.3125 C-53.08763079 73.77659912 -57.3968832 67.7257989 -61 62 C-62.4690462 57.99351037 -63 55.26962529 -63 51 C-63.66 51 -64.32 51 -65 51 C-67.65883943 39.03522258 -66.25253512 25.84216072 -60.359375 15.0078125 C-56.10908693 8.73008817 -50.82201499 2.49033325 -44 -1 C-42.68 -1 -41.36 -1 -40 -1 C-40 -1.66 -40 -2.32 -40 -3 C-24.88048711 -8.68322116 -14.32456487 -7.32884714 0 0 Z " fill="#33363A" transform="translate(447,483)"/>
<path d="M0 0 C1.62600213 0.83372223 3.23463522 1.70341526 4.8125 2.625 C6.14265668 3.29798249 7.47488951 3.96695714 8.8125 4.625 C8.8125 5.285 8.8125 5.945 8.8125 6.625 C9.369375 6.8725 9.92625 7.12 10.5 7.375 C16.47141152 10.60279001 19.39446003 14.38402534 21.8125 20.625 C21.8125 21.285 21.8125 21.945 21.8125 22.625 C22.4725 22.625 23.1325 22.625 23.8125 22.625 C29.45529415 38.78085705 26.95284657 52.61939858 19.8125 67.625 C19.1525 67.625 18.4925 67.625 17.8125 67.625 C17.565 68.20378906 17.3175 68.78257812 17.0625 69.37890625 C12.53890311 77.50724441 2.92356353 82.85381163 -5.76171875 85.37109375 C-17.84921937 88.05514825 -30.09075625 86.19318749 -41.1875 80.625 C-41.5175 79.635 -41.8475 78.645 -42.1875 77.625 C-42.785625 77.480625 -43.38375 77.33625 -44 77.1875 C-46.97776391 76.42178928 -48.21727689 74.93491675 -50.1875 72.625 C-50.5175 71.635 -50.8475 70.645 -51.1875 69.625 C-51.991875 68.8825 -52.79625 68.14 -53.625 67.375 C-57.53536991 63.17850546 -58.1875 59.25577503 -58.1875 53.625 C-58.8475 53.625 -59.5075 53.625 -60.1875 53.625 C-62.46281811 43.10165372 -61.77546401 31.45635146 -57.1875 21.625 C-56.5275 21.625 -55.8675 21.625 -55.1875 21.625 C-55.11144531 20.74199219 -55.03539062 19.85898437 -54.95703125 18.94921875 C-54.04286403 15.00020196 -52.64267923 13.35919084 -49.875 10.4375 C-49.48505859 10.01791016 -49.48505859 10.01791016 -47.51171875 7.89453125 C-43.44119081 3.91978043 -40.91718939 2.27610107 -35.1875 1.625 C-35.1875 0.965 -35.1875 0.305 -35.1875 -0.375 C-25.20672479 -4.84428725 -10.02025217 -4.21447331 0 0 Z " fill="#333539" transform="translate(620.1875,480.375)"/>
<path d="M0 0 C1.051875 0.28875 2.10375 0.5775 3.1875 0.875 C6.67241788 2.26896715 8.429885 4.29808423 11 7 C12.65948148 8.01187895 14.32580562 9.0126546 16 10 C18.375 11.9375 18.375 11.9375 20 14 C20.0625 15.9375 20.0625 15.9375 19 18 C17.90704112 19.16126881 16.80111031 20.31245924 15.640625 21.40625 C9.39199608 27.47634667 3.87804476 34.29201159 -1.59375 41.0546875 C-4.77071582 44.94337618 -8.02103843 48.7674711 -11.28271484 52.58520508 C-18.24259772 60.75854722 -18.24259772 60.75854722 -19 65 C-5.75964126 63.51748879 -5.75964126 63.51748879 -1.4453125 59.796875 C0.22362988 57.59470207 1.69022224 55.43098829 3 53 C6.96665592 54.61499562 9.75154371 57.34945854 12.75 60.3125 C13.25660156 60.78623047 13.76320313 61.25996094 14.28515625 61.74804688 C16.53942659 63.96889812 17.90279612 65.49453983 18.5078125 68.640625 C17.39764523 73.79863295 12.71989951 76.82134682 8.5546875 79.67578125 C-1.93186832 86.13768033 -12.02046967 89.79881816 -24.4921875 87.55078125 C-26.34217445 87.08663862 -28.17406707 86.55122504 -30 86 C-30 85.34 -30 84.68 -30 84 C-30.721875 84.061875 -31.44375 84.12375 -32.1875 84.1875 C-35.56705294 83.96219647 -37.27741093 82.96631433 -40 81 C-40.165 80.67 -40.165 80.67 -41 79 C-41.7425 78.566875 -42.485 78.13375 -43.25 77.6875 C-48.60880276 74.39914376 -51.37274085 70.62984103 -54 65 C-54.66 64.34 -55.32 63.68 -56 63 C-60.73064093 47.44096539 -60.44231923 32.47260695 -53 18 C-50.02723401 12.53491505 -46.754469 8.04635659 -42 4 C-40.68 4 -39.36 4 -38 4 C-38 3.34 -38 2.68 -38 2 C-35.03 1.34 -32.06 0.68 -29 0 C-29 -0.66 -29 -1.32 -29 -2 C-19.81449087 -4.54219027 -8.5587728 -4.19864326 0 0 Z " fill="#33363A" transform="translate(806,480)"/>
<path d="M0 0 C1.017453 -0.00307663 2.03490601 -0.00615326 3.08319092 -0.00932312 C4.16981018 -0.0021376 5.25642944 0.00504791 6.37597656 0.01245117 C7.49852844 0.01290939 8.62108032 0.01336761 9.77764893 0.01383972 C12.14458273 0.01685588 14.51151465 0.02472311 16.87841797 0.03710938 C20.51699786 0.05542192 24.15532405 0.0576186 27.79394531 0.05737305 C30.09212461 0.06228625 32.39030218 0.06811371 34.68847656 0.07495117 C35.78319275 0.076064 36.87790894 0.07717682 38.00579834 0.07832336 C39.0106427 0.08470322 40.01548706 0.09108307 41.05078125 0.09765625 C41.93948914 0.10146805 42.82819702 0.10527985 43.74383545 0.10920715 C45.76660156 0.24291992 45.76660156 0.24291992 46.76660156 1.24291992 C46.86520287 2.64640728 46.89739093 4.05472469 46.89941406 5.46166992 C46.90070313 6.31116211 46.90199219 7.1606543 46.90332031 8.03588867 C46.89945313 8.92920898 46.89558594 9.8225293 46.89160156 10.74291992 C46.89546875 11.63624023 46.89933594 12.52956055 46.90332031 13.44995117 C46.90203125 14.29944336 46.90074219 15.14893555 46.89941406 16.02416992 C46.89828613 16.80856445 46.8971582 17.59295898 46.89599609 18.40112305 C46.76660156 20.24291992 46.76660156 20.24291992 45.76660156 21.24291992 C44.32475863 21.36513517 42.87717012 21.4206475 41.43041992 21.44824219 C40.50954086 21.46818741 39.5886618 21.48813263 38.63987732 21.50868225 C38.13936104 21.5170385 38.13936104 21.5170385 35.60644531 21.55932617 C34.58684219 21.58010727 33.56723907 21.60088837 32.51673889 21.62229919 C29.24593108 21.68790844 25.9750402 21.74673226 22.70410156 21.80541992 C20.49250428 21.84859434 18.28091553 21.89220826 16.06933594 21.9362793 C10.63517721 22.04360138 5.20093458 22.14483638 -0.23339844 22.24291992 C-0.56339844 25.54291992 -0.89339844 28.84291992 -1.23339844 32.24291992 C-0.2255127 32.24702881 0.78237305 32.2511377 1.82080078 32.25537109 C5.60466806 32.27734745 9.38752251 32.3318235 13.17089844 32.39550781 C14.80003053 32.41852816 16.42930807 32.43304561 18.05859375 32.43847656 C36.27295183 32.51111051 36.27295183 32.51111051 43.76660156 38.24291992 C44.09660156 38.90291992 44.42660156 39.56291992 44.76660156 40.24291992 C45.26160156 40.40791992 45.26160156 40.40791992 47.76660156 41.24291992 C49.39160156 44.68041992 49.39160156 44.68041992 50.76660156 48.24291992 C51.09660156 48.90291992 51.42660156 49.56291992 51.76660156 50.24291992 C52.38678327 58.55945499 52.83313257 66.2371305 47.76660156 73.24291992 C47.14785156 74.12979492 46.52910156 75.01666992 45.89160156 75.93041992 C41.07510266 81.17190402 36.68495567 84.89323456 29.37921143 85.41265869 C26.47743045 85.47425356 23.58294825 85.46763361 20.68066406 85.43823242 C20.15220383 85.43681747 20.15220383 85.43681747 17.47787476 85.42965698 C14.11566656 85.41849842 10.7537287 85.39340151 7.39160156 85.36791992 C5.10644917 85.35788455 2.82129259 85.34875967 0.53613281 85.34057617 C-5.05389787 85.32027831 -10.64334696 85.28112073 -16.23339844 85.24291992 C-16.23339844 77.98291992 -16.23339844 70.72291992 -16.23339844 63.24291992 C-11.02355255 62.49865622 -6.27500856 62.11989824 -1.06933594 62.18041992 C-0.69178665 62.18231323 -0.69178665 62.18231323 1.21884155 62.19189453 C3.60982241 62.20401313 6.00067687 62.22264148 8.39160156 62.24291992 C11.55045264 62.26959297 14.70924235 62.28953851 17.86816406 62.30541992 C18.2270723 62.30956909 18.2270723 62.30956909 20.04336548 62.33056641 C23.75197496 62.34864132 27.16148925 62.13432759 30.76660156 61.24291992 C30.95410156 58.86791992 30.95410156 58.86791992 30.76660156 56.24291992 C27.06921152 53.77799323 25.16589517 53.99012461 20.75488281 53.96948242 C19.34276575 53.949177 17.93065644 53.92832592 16.51855469 53.90698242 C14.30470236 53.88448939 12.09115819 53.86795201 9.87719727 53.86206055 C0.03720047 53.81795972 -7.37814502 53.66659526 -15.04589844 46.68041992 C-15.76777344 45.87604492 -16.48964844 45.07166992 -17.23339844 44.24291992 C-17.74 43.77370117 -18.24660156 43.30448242 -18.76855469 42.82104492 C-22.86236496 38.41064666 -24.24444352 31.11890147 -24.23339844 25.24291992 C-23.60209796 20.08874072 -22.46529269 15.41744999 -19.23339844 11.24291992 C-18.57339844 11.24291992 -17.91339844 11.24291992 -17.23339844 11.24291992 C-17.00652344 10.68604492 -16.77964844 10.12916992 -16.54589844 9.55541992 C-12.72470301 2.82283751 -7.58102414 -0.01211259 0 0 Z " fill="#323438" transform="translate(924.2333984375,480.757080078125)"/>
<path d="M0 0 C0.44363892 -0.0016642 0.44363892 -0.0016642 2.6887207 -0.01008606 C4.57519003 -0.01516288 6.46166838 -0.01749415 8.34814453 -0.01733398 C11.21011659 -0.01950105 14.07169099 -0.03759425 16.93359375 -0.05664062 C18.76822785 -0.05957843 20.60286378 -0.06156063 22.4375 -0.0625 C23.28473633 -0.06968552 24.13197266 -0.07687103 25.00488281 -0.08427429 C36.52352199 -0.0408948 45.13009993 3.02168915 54 10.48046875 C63.80496998 22.19196067 65.41933486 32.18624889 65.34765625 47.10546875 C65.3462413 48.22614746 65.34482635 49.34682617 65.34336853 50.50146484 C65.33780139 54.05699408 65.32525498 57.61245877 65.3125 61.16796875 C65.30748075 63.58854075 65.30291859 66.00911375 65.29882812 68.4296875 C65.28784272 74.34247253 65.27060084 80.25520972 65.25 86.16796875 C58.65 86.16796875 52.05 86.16796875 45.25 86.16796875 C45.24009033 85.45664795 45.24009033 85.45664795 45.18994141 81.85693359 C45.11374323 76.56769416 45.02504741 71.27872472 44.93261719 65.98974609 C44.89438621 63.70269103 44.85952315 61.41557704 44.828125 59.12841797 C44.78234709 55.83670018 44.72437289 52.54538595 44.6640625 49.25390625 C44.65251129 48.23493256 44.64096008 47.21595886 44.62905884 46.16610718 C44.52448765 41.11091461 44.22536263 36.90089697 42.25 32.16796875 C41.87875 31.13671875 41.5075 30.10546875 41.125 29.04296875 C38.53426156 25.07050314 35.81336605 23.39715826 31.25 22.16796875 C25.80070594 21.90295749 20.45188988 22.46041886 16.25 26.16796875 C11.66485633 32.40600862 11.64892277 37.85975977 11.640625 45.4453125 C11.62408875 46.61179825 11.60755249 47.778284 11.59051514 48.9801178 C11.54211288 52.68862211 11.52068033 56.39671652 11.5 60.10546875 C11.471834 62.62697366 11.44190569 65.14845954 11.41015625 67.66992188 C11.33635523 73.83590376 11.2867325 80.00165912 11.25 86.16796875 C4.32 86.16796875 -2.61 86.16796875 -9.75 86.16796875 C-9.77255049 75.10261654 -9.79091478 64.03727947 -9.80181217 52.97190952 C-9.80704113 47.83437309 -9.81413901 42.69685312 -9.82543945 37.55932617 C-9.83626787 32.60565465 -9.84227674 27.65199901 -9.84487724 22.69831657 C-9.84673157 20.80399259 -9.85035234 18.90966951 -9.85573006 17.01535225 C-9.86293989 14.37162489 -9.86399097 11.72796404 -9.86352539 9.08422852 C-9.86712067 8.29301102 -9.87071594 7.50179352 -9.87442017 6.68659973 C-9.85907146 -1.31429229 -7.14879058 0.00921365 0 0 Z " fill="#303235" transform="translate(304.75,478.83203125)"/>
<path d="M0 0 C0.165 0.495 0.165 0.495 1 3 C1.66 3 2.32 3 3 3 C3 3.66 3 4.32 3 5 C3.53625 5.226875 4.0725 5.45375 4.625 5.6875 C7.78500863 7.43382056 10.2676983 9.6402849 13 12 C12.50124218 16.28038428 11.31565568 18.14327494 8.1875 21.0625 C7.84396484 21.38798828 7.84396484 21.38798828 6.10546875 23.03515625 C5.41066406 23.68355469 4.71585938 24.33195312 4 25 C3.31550781 25.74121094 2.63101563 26.48242188 1.92578125 27.24609375 C0 29 0 29 -3 29 C-4.359375 27.35546875 -4.359375 27.35546875 -5.75 25.1875 C-8.72523457 21.07745713 -10.96119454 19.32165389 -16 18 C-23.14273361 17.15527552 -29.08833324 17.68154839 -35 22 C-41.25508469 28.58429968 -42.05009074 35.1239202 -42 44 C-41.3147115 49.82126793 -40.09596724 54.51570303 -35.6875 58.5625 C-29.24963061 63.22625925 -22.63987799 63.85452697 -14.9375 62.6875 C-10.40493697 61.62990196 -10.40493697 61.62990196 -8.875 59.25 C-8.730625 58.87875 -8.730625 58.87875 -8 57 C-6.41278713 54.92441393 -4.7090347 52.97888228 -3 51 C0.98193402 52.60790685 3.71258185 55.3803804 6.6875 58.375 C7.18572266 58.85710938 7.68394531 59.33921875 8.19726562 59.8359375 C10.13214221 61.76818874 11.79889489 63.63036314 13.109375 66.0390625 C12.87434114 70.25288392 8.65298229 72.91383849 5.78125 75.6484375 C1.62597549 79.16174545 -2.38028043 82 -8 82 C-8 82.66 -8 83.32 -8 84 C-21.06607202 87.53478277 -31.9493462 86.26413358 -44.03125 80.31640625 C-46 79 -46 79 -47 76 C-48.33199474 75.66135727 -49.66553678 75.32878079 -51 75 C-56.32793036 70.41984934 -59.78871177 64.62012999 -62 58 C-62 57.34 -62 56.68 -62 56 C-62.66 56 -63.32 56 -64 56 C-66.56913467 44.40704522 -67.04700671 32.97175372 -62 22 C-61.34 22 -60.68 22 -60 22 C-59.855625 20.88625 -59.71125 19.7725 -59.5625 18.625 C-57.75361379 11.31137373 -51.59624309 6.16353591 -46 1.5 C-42.11220113 -0.44389943 -38.26638396 -1.27945515 -34 -2 C-34 -2.66 -34 -3.32 -34 -4 C-23.18950685 -7.42566276 -9.66096334 -5.71606998 0 0 Z " fill="#34373C" transform="translate(541,482)"/>
<path d="M0 0 C3.006818 1.33999498 4.99762609 2.79845291 7.25 5.1875 C10.45255237 8.50789521 13.84363023 11.48469834 17.3984375 14.421875 C19 16 19 16 20 19 C19.5718248 19.41707214 19.1436496 19.83414429 18.70249939 20.26385498 C14.25959873 24.59637508 9.83420957 28.94621042 5.41870117 33.30664062 C3.76723221 34.93292237 2.11130958 36.55469406 0.45092773 38.171875 C-1.93122056 40.49356267 -4.2970238 42.83085467 -6.66015625 45.171875 C-7.40902603 45.89493835 -8.15789581 46.61800171 -8.92945862 47.36297607 C-9.61023972 48.04337952 -10.29102081 48.72378296 -10.99243164 49.42480469 C-11.5986586 50.01992859 -12.20488556 50.61505249 -12.82948303 51.22821045 C-14 53 -14 53 -13.84056091 55.06402588 C-12.48685048 58.18188245 -9.95130976 60.12437832 -7.4375 62.3125 C-6.89681885 62.79452881 -6.3561377 63.27655762 -5.79907227 63.77319336 C-4.20614034 65.19000085 -2.60360886 66.59530426 -1 68 C-0.1853125 68.72703125 0.629375 69.4540625 1.46875 70.203125 C4.24716253 72.6705212 6.90228867 74.93485911 10 77 C10 77.66 10 78.32 10 79 C10.556875 79.226875 11.11375 79.45375 11.6875 79.6875 C14.71572375 81.40622159 16.77323664 83.32788397 19 86 C18.78591011 89.927726 16.40994685 92.04972153 13.8125 94.8125 C10.9811163 97.85094833 8.2360333 100.89573716 5.625 104.125 C4.75875 105.07375 3.8925 106.0225 3 107 C0 107 0 107 -2.35546875 104.8359375 C-3.22816406 103.90007812 -4.10085937 102.96421875 -5 102 C-10.51302776 96.41280595 -15.99685091 90.90452591 -21.97265625 85.80859375 C-25.31743054 82.82471996 -28.41335157 79.59380268 -31.5625 76.40625 C-33.65000635 74.34550655 -35.77169223 72.40484374 -38 70.5 C-41.24703484 67.68634763 -44.43632576 64.82290839 -47.5625 61.875 C-48.43003906 61.06804688 -49.29757813 60.26109375 -50.19140625 59.4296875 C-52 57 -52 57 -51.93188477 54.68920898 C-50.70603866 51.15169396 -48.54812409 49.06608034 -45.8984375 46.54296875 C-45.38374908 46.0363118 -44.86906067 45.52965485 -44.33877563 45.00764465 C-42.69339928 43.39117898 -41.03502303 41.78890844 -39.375 40.1875 C-37.21191139 38.08113238 -35.0542818 35.9692481 -32.8984375 33.85546875 C-32.37475586 33.34351456 -31.85107422 32.83156036 -31.31152344 32.30409241 C-27.92191753 28.97028095 -24.7500124 25.5256929 -21.67236328 21.90600586 C-18.38276572 18.15682511 -14.79535163 14.69263386 -11.25 11.1875 C-10.49589844 10.43791016 -9.74179688 9.68832031 -8.96484375 8.91601562 C-7.57440925 7.53422503 -6.18294093 6.15347327 -4.79003906 4.77416992 C-3.18887391 3.1871995 -1.59269644 1.59546367 0 0 Z " fill="#2C4B7B" transform="translate(100,467)"/>
<path d="M0 0 C-2.29044111 10.34107815 -7.31741691 20.31433654 -11.375 30.0625 C-11.89139895 31.30658962 -12.40767105 32.55073189 -12.92382812 33.79492188 C-17.73547049 45.38710226 -22.5666156 56.97123316 -27.40039062 68.55419922 C-30.47739616 75.92968524 -33.54454627 83.30896691 -36.5859375 90.69921875 C-36.72667694 91.04086563 -36.72667694 91.04086563 -37.43890381 92.76980591 C-38.76503674 95.98918537 -40.08882537 99.20948679 -41.40820312 102.43164062 C-41.86904297 103.55119141 -42.32988281 104.67074219 -42.8046875 105.82421875 C-43.20671387 106.80479248 -43.60874023 107.78536621 -44.02294922 108.7956543 C-45 111 -45 111 -46 112 C-48.07262076 112.08767112 -50.14820294 112.10695873 -52.22265625 112.09765625 C-52.85268555 112.09604492 -52.85268555 112.09604492 -56.04101562 112.08789062 C-57.38151109 112.07953403 -58.72200588 112.07106907 -60.0625 112.0625 C-61.40689942 112.0574866 -62.7513006 112.05292342 -64.09570312 112.04882812 C-67.39717941 112.03699488 -70.69856803 112.02050971 -74 112 C-71.66041381 104.65694235 -68.87037764 97.56217918 -65.9375 90.4375 C-65.69338379 89.84159058 -65.69338379 89.84159058 -64.45800781 86.82592773 C-60.17514292 76.38696432 -55.8410213 65.96955261 -51.48828125 55.55957031 C-48.73722156 48.97977204 -45.98888512 42.3988409 -43.24304199 35.81686401 C-42.28043687 33.51042783 -41.31651954 31.20454325 -40.35253906 28.89868164 C-39.73996524 27.43126466 -39.12765641 25.96373704 -38.515625 24.49609375 C-38.21996643 23.78717484 -37.92430786 23.07825592 -37.61968994 22.34785461 C-35.05767528 16.18272472 -32.59332999 9.98094851 -30.15527344 3.76586914 C-29 1 -29 1 -28 0 C-24.63982658 -0.38506414 -21.25276395 -0.47105365 -17.875 -0.625 C-16.9365625 -0.6765625 -15.998125 -0.728125 -15.03125 -0.78125 C-9.8526582 -1.02784961 -5.10054452 -0.94663846 0 0 Z " fill="#2C4B7B" transform="translate(252,466)"/>
<path d="M0 0 C1.16781006 0.00523682 2.33562012 0.01047363 3.53881836 0.01586914 C4.79887695 0.0190918 6.05893555 0.02231445 7.35717773 0.02563477 C8.6976732 0.03399136 10.03816799 0.04245632 11.37866211 0.05102539 C12.72306153 0.05603879 14.06746271 0.06060197 15.41186523 0.06469727 C18.71334151 0.07653051 22.01473014 0.09301568 25.31616211 0.11352539 C24.55100508 3.65786119 23.26771902 6.88371154 21.90209961 10.23852539 C21.77910744 10.5414576 21.77910744 10.5414576 21.1566925 12.07447815 C20.33773987 14.08868469 19.51459419 16.10114633 18.69116211 18.11352539 C18.10621943 19.54831411 17.52134121 20.98312911 16.93652344 22.41796875 C12.06885845 34.34277547 7.11724965 46.2323144 2.1472168 58.11474609 C-1.31872831 66.40634978 -4.75583158 74.70897367 -8.15649414 83.02758789 C-8.52585587 83.93071213 -8.89521759 84.83383636 -9.27577209 85.764328 C-11.07730685 90.17099886 -12.87547499 94.5790092 -14.66943359 98.98876953 C-15.31739296 100.57595682 -15.96541993 102.1631165 -16.61352539 103.75024414 C-16.91069962 104.48381134 -17.20787384 105.21737854 -17.51405334 105.97317505 C-19.57054042 111.00022792 -19.57054042 111.00022792 -20.68383789 112.11352539 C-22.68348771 112.20110542 -24.68619899 112.22049115 -26.68774414 112.21118164 C-27.29521484 112.20957031 -27.29521484 112.20957031 -30.36938477 112.20141602 C-31.6487793 112.19303711 -32.92817383 112.1846582 -34.24633789 112.17602539 C-35.52959961 112.17151367 -36.81286133 112.16700195 -38.13500977 112.16235352 C-41.31799811 112.15052085 -44.50089551 112.13403607 -47.68383789 112.11352539 C-48.93506719 108.3598375 -48.27263117 107.69689865 -46.55883789 104.23852539 C-44.63678766 100.25069791 -42.92355393 96.25471142 -41.37133789 92.10961914 C-38.91669377 85.66127176 -36.2942524 79.29577073 -33.60772705 72.940979 C-32.19131764 69.59014109 -30.78198532 66.23632328 -29.37133789 62.88305664 C-29.22302017 62.53074982 -29.22302017 62.53074982 -28.47244263 60.74786377 C-25.22202001 53.02402491 -21.99601536 45.29004028 -18.77362061 37.55447388 C-17.84061031 35.31479466 -16.90701742 33.07535896 -15.97338867 30.8359375 C-15.37941849 29.41026155 -14.78550495 27.98456201 -14.19165039 26.55883789 C-14.04820694 26.21471107 -14.04820694 26.21471107 -13.32229614 24.47322083 C-11.77431338 20.75413793 -10.23903193 17.03024904 -8.71801758 13.30004883 C-8.39703094 12.51443573 -8.07604431 11.72882263 -7.74533081 10.91940308 C-7.12735201 9.40526214 -6.51148328 7.89025786 -5.89797974 6.3742981 C-3.35273576 0.14181953 -3.35273576 0.14181953 0 0 Z " fill="#2C4B7B" transform="translate(182.683837890625,465.886474609375)"/>
<path d="M0 0 C0.35230682 0.00141495 0.35230682 0.00141495 2.13519287 0.00857544 C4.3767626 0.01973449 6.61792686 0.04483057 8.859375 0.0703125 C10.38280671 0.08034786 11.90624471 0.08947274 13.4296875 0.09765625 C17.15638086 0.11965959 20.88283833 0.15415978 24.609375 0.1953125 C24.63825012 3.84112937 24.65613085 7.48691713 24.671875 11.1328125 C24.68025391 12.17373047 24.68863281 13.21464844 24.69726562 14.28710938 C24.70048828 15.27646484 24.70371094 16.26582031 24.70703125 17.28515625 C24.71226807 18.20159912 24.71750488 19.11804199 24.72290039 20.06225586 C24.609375 22.1953125 24.609375 22.1953125 23.609375 23.1953125 C22.06955628 23.3163692 20.52472082 23.3749136 18.98046875 23.40625 C18.02720703 23.43460937 17.07394531 23.46296875 16.09179688 23.4921875 C14.08936243 23.54356491 12.0867367 23.58803424 10.08398438 23.625 C3.95377388 23.82208647 -0.83889942 24.5116605 -6.390625 27.1953125 C-7.050625 28.1853125 -7.710625 29.1753125 -8.390625 30.1953125 C-9.050625 30.1953125 -9.710625 30.1953125 -10.390625 30.1953125 C-10.720625 48.3453125 -11.050625 66.4953125 -11.390625 85.1953125 C-17.990625 85.1953125 -24.590625 85.1953125 -31.390625 85.1953125 C-33.07599209 83.50994541 -32.52673919 81.41003192 -32.53588867 79.09985352 C-32.54226852 78.01104385 -32.54864838 76.92223419 -32.55522156 75.8004303 C-32.55633438 74.61203049 -32.5574472 73.42363068 -32.55859375 72.19921875 C-32.56192215 70.98137192 -32.56525055 69.76352509 -32.56867981 68.5087738 C-32.57375737 65.92032246 -32.57608788 63.33186453 -32.57592773 60.7434082 C-32.57809841 56.80603983 -32.59620157 52.86895876 -32.61523438 48.93164062 C-32.61817139 46.41666762 -32.62015412 43.90169329 -32.62109375 41.38671875 C-32.62827927 40.21653702 -32.63546478 39.04635529 -32.64286804 37.8407135 C-32.59523042 20.54264181 -32.59523042 20.54264181 -28.87980652 16.58668518 C-28.38837662 16.1275322 -27.89694672 15.66837921 -27.390625 15.1953125 C-27.060625 14.3290625 -26.730625 13.4628125 -26.390625 12.5703125 C-26.060625 11.7865625 -25.730625 11.0028125 -25.390625 10.1953125 C-24.400625 9.8653125 -23.410625 9.5353125 -22.390625 9.1953125 C-21.813125 8.3909375 -21.235625 7.5865625 -20.640625 6.7578125 C-17.79242171 3.51402542 -15.53411199 3.15719341 -11.390625 2.1953125 C-10.81086914 1.85258301 -10.23111328 1.50985352 -9.63378906 1.15673828 C-6.38616198 -0.23520289 -3.52094779 -0.02794403 0 0 Z " fill="#33363C" transform="translate(869.390625,479.8046875)"/>
<path d="M0 0 C0.66 0.99 1.32 1.98 2 3 C2.680625 3.28875 3.36125 3.5775 4.0625 3.875 C6 5 6 5 6.75 7.625 C6.8325 8.40875 6.915 9.1925 7 10 C7.66 10 8.32 10 9 10 C11.69679171 16.40488031 11.9202046 23.33304963 10 30 C9.34 30 8.68 30 8 30 C7.79375 30.886875 7.5875 31.77375 7.375 32.6875 C5.61186199 36.93505975 3.61467383 38.23131366 0 41 C-0.165 41.33 -0.165 41.33 -1 43 C-6.16646185 45.26820276 -11.51174369 46.01451279 -16.9609375 44.4296875 C-20.24942336 43.11151806 -22.72046335 41.69399786 -25 39 C-25.4125 38.649375 -25.4125 38.649375 -27.5 36.875 C-31.87485854 31.84391268 -33.58974399 25.68702099 -33.28515625 19.0390625 C-32.33196895 12.22312043 -30.03428357 6.81053763 -25 2 C-17.80592419 -3.26036067 -8.04002703 -3.91693625 0 0 Z " fill="#F4F7FB" transform="translate(436,501)"/>
<path d="M0 0 C1.89605527 1.89088891 3.38194283 3.84259044 5 6 C5.50402344 6.4640625 6.00804687 6.928125 6.52734375 7.40625 C10.05763394 11.2268293 11.03732725 16.75414366 10.953125 21.8203125 C9.82635698 29.91050692 6.31189468 34.85370005 0.5 40.375 C-4.66633157 43.73311552 -9.88637301 44.78046302 -16 44 C-20.10967824 42.56161261 -23.77243712 40.96935785 -27 38 C-27 37.34 -27 36.68 -27 36 C-27.66 36 -28.32 36 -29 36 C-32.27893857 26.48685633 -35.28998931 16.99381375 -30.7578125 7.359375 C-27.74574857 2.52134485 -24.76093993 -0.88682539 -19.15234375 -2.546875 C-12.40187088 -3.96802718 -5.99960248 -3.52917793 0 0 Z " fill="#F3F7FB" transform="translate(709,502)"/>
<path d="M0 0 C16.23151498 -0.6680654 16.23151498 -0.6680654 23.4375 4.875 C25.20333458 7.27653503 25.67335557 9.0602001 26 12 C26.66 12 27.32 12 28 12 C31.03618579 18.61670769 31.083011 26.32262411 29.0625 33.3125 C26.88342269 38.27249501 22.56999742 41.32639607 18 44 C14.4375 44.9375 14.4375 44.9375 12 45 C12 45.66 12 46.32 12 47 C10.741875 47.020625 9.48375 47.04125 8.1875 47.0625 C7.83365234 47.06830078 7.83365234 47.06830078 6.04296875 47.09765625 C4 47 4 47 1 46 C1 45.34 1 44.68 1 44 C-0.093125 43.731875 -1.18625 43.46375 -2.3125 43.1875 C-6.82126286 41.73552552 -6.82126286 41.73552552 -9 39 C-13.05206757 30.34023018 -14.99434649 20.77310825 -11.8125 11.5625 C-9.78793301 8.70018116 -7.57401962 6.37601812 -5 4 C-4.34 3.34 -3.68 2.68 -3 2 C-2.01 2 -1.02 2 0 2 C0 1.34 0 0.68 0 0 Z " fill="#F5F8FB" transform="translate(595,499)"/>
<path d="M0 0 C3.006818 1.33999498 4.99762609 2.79845291 7.25 5.1875 C10.45255237 8.50789521 13.84363023 11.48469834 17.3984375 14.421875 C19 16 19 16 20 19 C19.5718248 19.41707214 19.1436496 19.83414429 18.70249939 20.26385498 C14.25959873 24.59637508 9.83420957 28.94621042 5.41870117 33.30664062 C3.76723221 34.93292237 2.11130958 36.55469406 0.45092773 38.171875 C-1.93122056 40.49356267 -4.2970238 42.83085467 -6.66015625 45.171875 C-7.40902603 45.89493835 -8.15789581 46.61800171 -8.92945862 47.36297607 C-9.61023972 48.04337952 -10.29102081 48.72378296 -10.99243164 49.42480469 C-11.5986586 50.01992859 -12.20488556 50.61505249 -12.82948303 51.22821045 C-14 53 -14 53 -13.84056091 55.06402588 C-12.48685048 58.18188245 -9.95130976 60.12437832 -7.4375 62.3125 C-6.89681885 62.79452881 -6.3561377 63.27655762 -5.79907227 63.77319336 C-4.20614034 65.19000085 -2.60360886 66.59530426 -1 68 C-0.1853125 68.72703125 0.629375 69.4540625 1.46875 70.203125 C4.24716253 72.6705212 6.90228867 74.93485911 10 77 C10 77.66 10 78.32 10 79 C10.556875 79.226875 11.11375 79.45375 11.6875 79.6875 C14.71572375 81.40622159 16.77323664 83.32788397 19 86 C18.78591011 89.927726 16.40994685 92.04972153 13.8125 94.8125 C10.9811163 97.85094833 8.2360333 100.89573716 5.625 104.125 C4.75875 105.07375 3.8925 106.0225 3 107 C0 107 0 107 -2.35546875 104.8359375 C-3.22816406 103.90007812 -4.10085937 102.96421875 -5 102 C-10.51302776 96.41280595 -15.99685091 90.90452591 -21.97265625 85.80859375 C-25.31743054 82.82471996 -28.41335157 79.59380268 -31.5625 76.40625 C-33.65000635 74.34550655 -35.77169223 72.40484374 -38 70.5 C-41.24703484 67.68634763 -44.43632576 64.82290839 -47.5625 61.875 C-48.43003906 61.06804688 -49.29757813 60.26109375 -50.19140625 59.4296875 C-52 57 -52 57 -51.93188477 54.68920898 C-50.70603866 51.15169396 -48.54812409 49.06608034 -45.8984375 46.54296875 C-45.38374908 46.0363118 -44.86906067 45.52965485 -44.33877563 45.00764465 C-42.69339928 43.39117898 -41.03502303 41.78890844 -39.375 40.1875 C-37.21191139 38.08113238 -35.0542818 35.9692481 -32.8984375 33.85546875 C-32.37475586 33.34351456 -31.85107422 32.83156036 -31.31152344 32.30409241 C-27.92191753 28.97028095 -24.7500124 25.5256929 -21.67236328 21.90600586 C-18.38276572 18.15682511 -14.79535163 14.69263386 -11.25 11.1875 C-10.49589844 10.43791016 -9.74179688 9.68832031 -8.96484375 8.91601562 C-7.57440925 7.53422503 -6.18294093 6.15347327 -4.79003906 4.77416992 C-3.18887391 3.1871995 -1.59269644 1.59546367 0 0 Z M-2.68359375 3.609375 C-2.97298828 3.96257812 -2.97298828 3.96257812 -4.4375 5.75 C-6.37942147 8.07866007 -8.26236735 10.25563998 -10.4375 12.375 C-12 14 -12 14 -12 16 C-12.556875 16.226875 -13.11375 16.45375 -13.6875 16.6875 C-19.30972518 19.87849267 -23.39377099 25.65875888 -27.640625 30.42578125 C-30.50001011 33.54554083 -33.50095792 36.49018999 -36.56640625 39.40625 C-38 41 -38 41 -38 43 C-38.66 43 -39.32 43 -40 43 C-40 43.66 -40 44.32 -40 45 C-40.495 45.165 -40.495 45.165 -43 46 C-46.39747267 49.05772541 -48.72717875 52.06220504 -51 56 C-46.13235793 60.96905128 -41.21201935 65.77518548 -35.921875 70.29296875 C-33.28764491 72.63272189 -30.86433083 75.15518482 -28.4453125 77.71484375 C-27 79 -27 79 -25 79 C-24.67 79.99 -24.34 80.98 -24 82 C-22.43359375 83.54296875 -22.43359375 83.54296875 -20.4375 85.1875 C-17.48987358 87.68326212 -14.70425934 90.24219097 -12 93 C-1.68313953 103.43895349 -1.68313953 103.43895349 3 105 C3.4125 104.52691406 3.825 104.05382812 4.25 103.56640625 C8.80417611 98.35146799 13.39354975 93.16879612 18 88 C13.70897305 82.74349198 9.1810996 78.36389146 4 74 C2.24325205 72.51060615 0.48873699 71.0186675 -1.26367188 69.52416992 C-2.4735065 68.4928589 -3.68562654 67.4642208 -4.90039062 66.4387207 C-16.09402358 56.91561443 -16.09402358 56.91561443 -17 52 C-16.44183594 51.77957031 -15.88367188 51.55914063 -15.30859375 51.33203125 C-12.26475748 49.57577378 -10.37834509 47.32449464 -8.0625 44.6875 C-4.81043977 41.00317211 -1.50160789 37.44864239 2 34 C2.7425 33.236875 3.485 32.47375 4.25 31.6875 C7.38150668 28.62716393 10.67419402 25.79753281 14.01171875 22.96484375 C15.94744972 21.05193083 16.96199056 19.49233283 18 17 C16.43910974 15.58155991 14.8762111 14.16532975 13.3125 12.75 C12.44238281 11.96109375 11.57226562 11.1721875 10.67578125 10.359375 C8.90462547 8.79765516 7.08860285 7.28527953 5.23046875 5.828125 C3 4 3 4 2 2 C-1 2 -1 2 -2.68359375 3.609375 Z " fill="#7B9CCD" transform="translate(100,467)"/>
<path d="M0 0 C1.16781006 0.00523682 2.33562012 0.01047363 3.53881836 0.01586914 C4.79887695 0.0190918 6.05893555 0.02231445 7.35717773 0.02563477 C8.6976732 0.03399136 10.03816799 0.04245632 11.37866211 0.05102539 C12.72306153 0.05603879 14.06746271 0.06060197 15.41186523 0.06469727 C18.71334151 0.07653051 22.01473014 0.09301568 25.31616211 0.11352539 C24.55100508 3.65786119 23.26771902 6.88371154 21.90209961 10.23852539 C21.77910744 10.5414576 21.77910744 10.5414576 21.1566925 12.07447815 C20.33773987 14.08868469 19.51459419 16.10114633 18.69116211 18.11352539 C18.10621943 19.54831411 17.52134121 20.98312911 16.93652344 22.41796875 C12.06885845 34.34277547 7.11724965 46.2323144 2.1472168 58.11474609 C-1.31872831 66.40634978 -4.75583158 74.70897367 -8.15649414 83.02758789 C-8.52585587 83.93071213 -8.89521759 84.83383636 -9.27577209 85.764328 C-11.07730685 90.17099886 -12.87547499 94.5790092 -14.66943359 98.98876953 C-15.31739296 100.57595682 -15.96541993 102.1631165 -16.61352539 103.75024414 C-16.91069962 104.48381134 -17.20787384 105.21737854 -17.51405334 105.97317505 C-19.57054042 111.00022792 -19.57054042 111.00022792 -20.68383789 112.11352539 C-22.68348771 112.20110542 -24.68619899 112.22049115 -26.68774414 112.21118164 C-27.29521484 112.20957031 -27.29521484 112.20957031 -30.36938477 112.20141602 C-31.6487793 112.19303711 -32.92817383 112.1846582 -34.24633789 112.17602539 C-35.52959961 112.17151367 -36.81286133 112.16700195 -38.13500977 112.16235352 C-41.31799811 112.15052085 -44.50089551 112.13403607 -47.68383789 112.11352539 C-48.93506719 108.3598375 -48.27263117 107.69689865 -46.55883789 104.23852539 C-44.63678766 100.25069791 -42.92355393 96.25471142 -41.37133789 92.10961914 C-38.91669377 85.66127176 -36.2942524 79.29577073 -33.60772705 72.940979 C-32.19131764 69.59014109 -30.78198532 66.23632328 -29.37133789 62.88305664 C-29.22302017 62.53074982 -29.22302017 62.53074982 -28.47244263 60.74786377 C-25.22202001 53.02402491 -21.99601536 45.29004028 -18.77362061 37.55447388 C-17.84061031 35.31479466 -16.90701742 33.07535896 -15.97338867 30.8359375 C-15.37941849 29.41026155 -14.78550495 27.98456201 -14.19165039 26.55883789 C-14.04820694 26.21471107 -14.04820694 26.21471107 -13.32229614 24.47322083 C-11.77431338 20.75413793 -10.23903193 17.03024904 -8.71801758 13.30004883 C-8.39703094 12.51443573 -8.07604431 11.72882263 -7.74533081 10.91940308 C-7.12735201 9.40526214 -6.51148328 7.89025786 -5.89797974 6.3742981 C-3.35273576 0.14181953 -3.35273576 0.14181953 0 0 Z M-1.68383789 1.11352539 C-5.68383789 10.11352539 -5.68383789 10.11352539 -5.68383789 14.11352539 C-6.34383789 14.11352539 -7.00383789 14.11352539 -7.68383789 14.11352539 C-7.96356445 14.85473633 -8.24329102 15.59594727 -8.53149414 16.35961914 C-11.57541869 24.35603829 -14.78424391 32.27195629 -18.05883789 40.17602539 C-19.31395226 43.20778566 -20.54153274 46.24885235 -21.74633789 49.30102539 C-23.2965725 53.20973659 -24.95063779 57.0673018 -26.62133789 60.92602539 C-28.58543315 65.47445651 -30.4418497 70.03819187 -32.18383789 74.67602539 C-34.25299156 80.14308637 -36.63943316 85.39974623 -39.12524414 90.68774414 C-40.86981391 94.52229976 -42.48746196 98.39298392 -44.05883789 102.30102539 C-44.19028198 102.62514404 -44.19028198 102.62514404 -44.85546875 104.26538086 C-46.68383789 108.86547655 -46.68383789 108.86547655 -46.68383789 111.11352539 C-38.76383789 111.11352539 -30.84383789 111.11352539 -22.68383789 111.11352539 C-16.01276649 98.1224916 -10.28160972 85.02016836 -5.12133789 71.36352539 C-3.49736498 67.08069486 -1.70683059 62.94040765 0.25366211 58.80102539 C2.46434696 54.10402323 4.40940699 49.36161964 6.19116211 44.48852539 C10.68024412 32.22216121 15.79333534 20.18001362 21.30834961 8.34008789 C22.38426217 5.96307176 23.34713889 3.53608344 24.31616211 1.11352539 C15.73616211 1.11352539 7.15616211 1.11352539 -1.68383789 1.11352539 Z " fill="#7B9CCD" transform="translate(182.683837890625,465.886474609375)"/>
<path d="M0 0 C-2.29044111 10.34107815 -7.31741691 20.31433654 -11.375 30.0625 C-11.89139895 31.30658962 -12.40767105 32.55073189 -12.92382812 33.79492188 C-17.73547049 45.38710226 -22.5666156 56.97123316 -27.40039062 68.55419922 C-30.47739616 75.92968524 -33.54454627 83.30896691 -36.5859375 90.69921875 C-36.72667694 91.04086563 -36.72667694 91.04086563 -37.43890381 92.76980591 C-38.76503674 95.98918537 -40.08882537 99.20948679 -41.40820312 102.43164062 C-41.86904297 103.55119141 -42.32988281 104.67074219 -42.8046875 105.82421875 C-43.20671387 106.80479248 -43.60874023 107.78536621 -44.02294922 108.7956543 C-45 111 -45 111 -46 112 C-48.07262076 112.08767112 -50.14820294 112.10695873 -52.22265625 112.09765625 C-52.85268555 112.09604492 -52.85268555 112.09604492 -56.04101562 112.08789062 C-57.38151109 112.07953403 -58.72200588 112.07106907 -60.0625 112.0625 C-61.40689942 112.0574866 -62.7513006 112.05292342 -64.09570312 112.04882812 C-67.39717941 112.03699488 -70.69856803 112.02050971 -74 112 C-71.66041381 104.65694235 -68.87037764 97.56217918 -65.9375 90.4375 C-65.69338379 89.84159058 -65.69338379 89.84159058 -64.45800781 86.82592773 C-60.17514292 76.38696432 -55.8410213 65.96955261 -51.48828125 55.55957031 C-48.73722156 48.97977204 -45.98888512 42.3988409 -43.24304199 35.81686401 C-42.28043687 33.51042783 -41.31651954 31.20454325 -40.35253906 28.89868164 C-39.73996524 27.43126466 -39.12765641 25.96373704 -38.515625 24.49609375 C-38.21996643 23.78717484 -37.92430786 23.07825592 -37.61968994 22.34785461 C-35.05767528 16.18272472 -32.59332999 9.98094851 -30.15527344 3.76586914 C-29 1 -29 1 -28 0 C-24.63982658 -0.38506414 -21.25276395 -0.47105365 -17.875 -0.625 C-16.9365625 -0.6765625 -15.998125 -0.728125 -15.03125 -0.78125 C-9.8526582 -1.02784961 -5.10054452 -0.94663846 0 0 Z M-27 1 C-27.680625 2.835625 -28.36125 4.67125 -29.0625 6.5625 C-31.2928526 12.3791582 -33.80763098 17.99480754 -36.48046875 23.61914062 C-38.47687162 27.83425323 -40.2923441 32.07457622 -41.9765625 36.421875 C-43.23099459 39.58189476 -44.58414511 42.69360092 -45.9375 45.8125 C-48.33612591 51.37923582 -50.56819183 56.98741015 -52.72265625 62.65234375 C-54.10570027 66.27701876 -55.50868792 69.89316009 -56.9375 73.5 C-57.06137085 73.81287964 -57.06137085 73.81287964 -57.68823242 75.39624023 C-59.8236509 80.71309482 -62.25422043 85.86677505 -64.80078125 91 C-66.13677549 94.34216148 -66.62085854 97.43160977 -67 101 C-67.66 101 -68.32 101 -69 101 C-70.12880057 104.31114834 -71.21302675 107.58978257 -72 111 C-71.236875 110.814375 -70.47375 110.62875 -69.6875 110.4375 C-67 110 -67 110 -64 111 C-61.26134713 111.07051114 -58.54972412 111.09357765 -55.8125 111.0625 C-55.06291016 111.05798828 -54.31332031 111.05347656 -53.54101562 111.04882812 C-51.69397617 111.03706354 -49.84697787 111.01912865 -48 111 C-44.05577462 104.56715623 -41.18787598 97.75135443 -38.25 90.8125 C-37.71542368 89.5570085 -37.18075475 88.30155643 -36.64599609 87.04614258 C-32.57948827 77.47434035 -28.66012409 67.84761329 -24.85400391 58.16943359 C-15.23882552 33.74391184 -15.23882552 33.74391184 -9.875 22.25 C-7.68354699 17.55322859 -5.76343963 12.87045232 -4 8 C-3.01 5.69 -2.02 3.38 -1 1 C-9.58 1 -18.16 1 -27 1 Z " fill="#7B9CCD" transform="translate(252,466)"/>
<path d="M0 0 C0.89203125 0.00902344 1.7840625 0.01804687 2.703125 0.02734375 C3.37859375 0.03894531 4.0540625 0.05054688 4.75 0.0625 C5.08 1.0525 5.41 2.0425 5.75 3.0625 C3.75 6.0625 3.75 6.0625 0.75 7.0625 C-1.01171875 9.1796875 -1.01171875 9.1796875 -2.9375 11.9375 C-3.63359375 12.92492187 -4.3296875 13.91234375 -5.046875 14.9296875 C-5.41039062 15.44660156 -5.41039062 15.44660156 -7.25 18.0625 C-9.38960059 20.96202769 -11.5349786 23.85714829 -13.68359375 26.75 C-15.25 29.0625 -15.25 29.0625 -16.25 32.0625 C-16.745 32.2275 -16.745 32.2275 -19.25 33.0625 C-21.25 32.0625 -21.25 32.0625 -22.25 29.0625 C-22.88458312 19.66181518 -21.69157042 13.29868102 -15.83203125 5.828125 C-11.37861908 0.8578971 -6.39251177 -0.084112 0 0 Z " fill="#E8EFF6" transform="translate(790.25,498.9375)"/>
<path d="M0 0 C0.66 1.65 1.32 3.3 2 5 C2.66 5 3.32 5 4 5 C4 6.65 4 8.3 4 10 C3.34 10 2.68 10 2 10 C1.67 11.65 1.34 13.3 1 15 C-0.258125 15.04125 -1.51625 15.0825 -2.8125 15.125 C-3.52019531 15.14820313 -4.22789062 15.17140625 -4.95703125 15.1953125 C-7 15 -7 15 -10 13 C-11.13429003 8.37558679 -11.35282486 5.21031818 -9 1 C-6.04335481 -0.4783226 -3.25770263 -0.06032783 0 0 Z " fill="#E1EBF4" transform="translate(313,486)"/>
<path d="M0 0 C0.66 0.66 1.32 1.32 2 2 C1.42307692 8.57692308 1.42307692 8.57692308 0 10 C-2.875 10.3125 -2.875 10.3125 -6 10 C-8 8.375 -8 8.375 -9 6 C-8.3125 2.8125 -8.3125 2.8125 -7 0 C-4.29393021 -1.35303489 -2.8671629 -0.7884698 0 0 Z " fill="#F3FFFF" transform="translate(192,475)"/>
<path d="M0 0 C2.4375 0.8125 2.4375 0.8125 4.4375 2.8125 C4.6875 5.8125 4.6875 5.8125 4.4375 8.8125 C2.4375 10.8125 2.4375 10.8125 -0.5625 11.0625 C-3.5625 10.8125 -3.5625 10.8125 -5.5625 8.8125 C-5.89911952 5.6482765 -6.06193411 3.62736618 -4.375 0.875 C-2.5625 -0.1875 -2.5625 -0.1875 0 0 Z " fill="#F3FFFF" transform="translate(233.5625,474.1875)"/>
<path d="M0 0 C3.04826802 1.52413401 4.39054966 2.38127872 5.875 5.4375 C5.79611371 8.59295168 5.04449955 10.17986069 3.3125 12.8125 C0.19911615 14.88808923 -1.65283705 14.90037877 -5.27734375 14.25 C-7.125 13.4375 -7.125 13.4375 -9.25 10.125 C-10.125 6.4375 -10.125 6.4375 -9.625 4.1875 C-6.67178215 0.74207918 -4.60324248 -0.82858365 0 0 Z M-5.8125 2.5625 C-7.69760027 5.25550039 -7.46622999 7.22993812 -7.125 10.4375 C-5.125 12.4375 -5.125 12.4375 -2.125 12.6875 C0.875 12.4375 0.875 12.4375 2.875 10.4375 C3.25 7.5 3.25 7.5 2.875 4.4375 C1.0625 2.5625 1.0625 2.5625 -1.125 1.4375 C-4.125 1.4375 -4.125 1.4375 -5.8125 2.5625 Z " fill="#7B9CCD" transform="translate(235.125,472.5625)"/>
<path d="M0 0 C2.4375 1.625 2.4375 1.625 4 4 C4.61195145 7.6717087 4.48706506 9.28813568 2.375 12.375 C-0.75011169 14.51323431 -2.28162465 14.6829669 -6 14 C-9.04569423 11.68262395 -10.73181298 10.22174087 -11.5625 6.4375 C-10.10604564 0.12619778 -5.94161222 -0.84880175 0 0 Z M-8 3 C-9.11068406 6.01471387 -9.28969442 7.36948861 -7.9375 10.3125 C-6 12 -6 12 -2.9375 12.4375 C-1.968125 12.293125 -0.99875 12.14875 0 12 C2.15502531 8.76746204 2.46856135 7.74849077 2 4 C0.75 2.1875 0.75 2.1875 -1 1 C-5 1 -5 1 -8 3 Z " fill="#7B9CCD" transform="translate(192,473)"/>
</svg>
