<?xml version="1.0" encoding="UTF-8"?>
<svg xmlns="http://www.w3.org/2000/svg" viewBox="0 0 391.6 185.7" fill="#FFFFFF">
  <path fill-rule="evenodd" d="M 78.6 178.9 C 77.9 178.2 77.9 177.9 77.9 169.7 C 77.9 159.4 78.0 159.7 73.8 159.7 C 72.0 159.7 71.2 159.6 70.9 159.2 C 70.6 158.9 69.9 158.7 68.4 158.7 C 67.0 158.7 66.2 158.6 65.9 158.2 C 65.6 157.9 64.9 157.7 63.9 157.7 C 62.9 157.7 62.2 157.5 61.9 157.2 C 61.7 156.9 61.0 156.7 60.4 156.7 C 59.8 156.7 59.1 156.5 58.9 156.2 C 58.7 155.9 58.0 155.7 57.4 155.7 C 56.8 155.7 56.1 155.5 55.9 155.2 C 55.7 154.9 55.2 154.7 54.9 154.7 C 54.6 154.7 54.1 154.5 53.9 154.2 C 53.7 153.9 53.0 153.7 52.4 153.7 C 51.8 153.7 51.1 153.5 50.9 153.2 C 50.7 152.9 50.2 152.7 49.9 152.7 C 49.6 152.7 48.9 152.3 48.4 151.7 C 47.7 151.0 47.1 150.7 46.4 150.7 C 45.7 150.7 45.1 150.4 44.4 149.7 C 43.9 149.2 43.2 148.7 42.9 148.7 C 42.6 148.7 41.9 148.3 41.4 147.7 C 40.9 147.2 40.2 146.7 39.9 146.7 C 39.6 146.7 38.9 146.3 38.4 145.7 C 37.9 145.2 37.2 144.7 36.9 144.7 C 36.6 144.7 35.1 143.4 33.4 141.7 C 31.8 140.1 30.2 138.7 29.9 138.7 C 29.1 138.7 26.9 136.3 26.9 135.4 C 26.9 134.8 26.7 134.7 25.9 134.7 C 25.1 134.7 24.9 134.6 24.9 133.9 C 24.9 133.5 24.3 132.6 23.4 131.7 C 22.6 130.9 21.9 130.0 21.9 129.7 C 21.9 129.4 21.5 128.7 20.9 128.2 C 20.4 127.7 19.9 127.0 19.9 126.7 C 19.9 126.4 19.5 125.7 18.9 125.2 C 18.4 124.7 17.9 124.0 17.9 123.7 C 17.9 123.4 17.5 122.7 16.9 122.2 C 16.4 121.7 15.9 121.0 15.9 120.7 C 15.9 120.4 15.7 119.9 15.4 119.7 C 15.1 119.5 14.9 119.0 14.9 118.7 C 14.9 118.4 14.7 117.9 14.4 117.7 C 14.1 117.5 13.9 117.0 13.9 116.7 C 13.9 116.4 13.7 115.9 13.4 115.7 C 13.1 115.5 12.9 114.8 12.9 114.2 C 12.9 113.6 12.7 112.9 12.4 112.7 C 12.1 112.5 11.9 112.0 11.9 111.7 C 11.9 111.4 11.7 110.9 11.4 110.7 C 11.1 110.5 10.9 109.8 10.9 109.2 C 10.9 108.6 10.7 107.9 10.4 107.7 C 10.1 107.5 9.9 106.8 9.9 106.2 C 9.9 105.6 9.7 104.9 9.4 104.7 C 9.1 104.4 8.9 103.7 8.9 102.7 C 8.9 101.7 8.7 101.0 8.4 100.7 C 8.1 100.4 7.9 99.7 7.9 98.7 C 7.9 97.7 7.7 97.0 7.4 96.7 C 7.0 96.4 6.9 95.3 6.9 91.2 C 6.9 87.1 6.8 86.0 6.4 85.7 C 5.7 85.1 5.7 80.3 6.4 79.7 C 6.8 79.4 6.9 78.4 6.9 74.7 C 6.9 71.0 7.0 70.0 7.4 69.7 C 7.8 69.4 7.9 68.6 7.9 67.2 C 7.9 65.8 8.1 65.0 8.4 64.7 C 8.7 64.4 8.9 63.7 8.9 62.7 C 8.9 61.7 9.1 61.0 9.4 60.7 C 9.7 60.5 9.9 60.0 9.9 59.7 C 9.9 59.4 10.1 58.9 10.4 58.7 C 10.7 58.4 10.9 57.7 10.9 56.7 C 10.9 55.7 11.1 55.0 11.4 54.7 C 11.7 54.5 11.9 54.0 11.9 53.7 C 11.9 53.4 12.1 52.9 12.4 52.7 C 12.7 52.5 12.9 52.0 12.9 51.7 C 12.9 51.4 13.1 50.9 13.4 50.7 C 13.7 50.5 13.9 50.0 13.9 49.7 C 13.9 49.4 14.1 48.9 14.4 48.7 C 14.7 48.5 14.9 48.0 14.9 47.7 C 14.9 47.4 15.1 46.9 15.4 46.7 C 15.7 46.5 15.9 46.0 15.9 45.7 C 15.9 45.4 16.1 44.9 16.4 44.7 C 16.7 44.5 16.9 44.0 16.9 43.7 C 16.9 43.4 17.4 42.7 17.9 42.2 C 18.5 41.7 18.9 41.0 18.9 40.7 C 18.9 40.4 19.4 39.7 19.9 39.2 C 20.5 38.7 20.9 38.0 20.9 37.7 C 20.9 37.4 21.8 36.3 22.9 35.2 C 24.0 34.1 24.9 33.0 24.9 32.7 C 24.9 32.0 33.3 23.7 33.9 23.7 C 34.2 23.7 35.1 23.0 35.9 22.2 C 36.7 21.4 37.6 20.7 37.9 20.7 C 38.2 20.7 39.1 20.0 39.9 19.2 C 40.7 18.4 41.6 17.7 41.9 17.7 C 42.2 17.7 42.7 17.5 42.9 17.2 C 43.1 16.9 43.6 16.7 43.9 16.7 C 44.2 16.7 44.7 16.5 44.9 16.2 C 45.1 15.9 45.6 15.7 45.9 15.7 C 46.2 15.7 46.7 15.5 46.9 15.2 C 47.1 14.9 47.6 14.7 47.9 14.7 C 48.2 14.7 48.7 14.5 48.9 14.2 C 49.1 13.9 49.6 13.7 49.9 13.7 C 50.2 13.7 50.7 13.5 50.9 13.2 C 51.1 12.9 51.6 12.7 51.9 12.7 C 52.2 12.7 52.7 12.5 52.9 12.2 C 53.1 11.9 53.6 11.7 53.9 11.7 C 54.2 11.7 54.7 11.5 54.9 11.2 C 55.1 10.9 55.8 10.7 56.4 10.7 C 57.0 10.7 57.7 10.5 57.9 10.2 C 58.1 9.9 58.8 9.7 59.4 9.7 C 60.0 9.7 60.7 9.5 60.9 9.2 C 61.2 8.9 61.9 8.7 62.9 8.7 C 63.9 8.7 64.6 8.5 64.9 8.2 C 65.2 7.9 65.9 7.7 66.9 7.7 C 67.9 7.7 68.6 7.5 68.9 7.2 C 69.2 6.8 70.1 6.7 72.9 6.7 C 75.7 6.7 76.6 6.6 76.9 6.2 C 77.3 5.8 78.4 5.7 83.4 5.7 C 88.4 5.7 89.6 5.8 89.9 6.2 C 90.2 6.6 91.1 6.7 93.9 6.7 C 96.7 6.7 97.6 6.8 97.9 7.2 C 98.2 7.5 98.9 7.7 99.9 7.7 C 100.9 7.7 101.6 7.9 101.9 8.2 C 102.2 8.5 102.9 8.7 103.9 8.7 C 104.9 8.7 105.6 8.9 105.9 9.2 C 106.1 9.5 106.8 9.7 107.4 9.7 C 108.0 9.7 108.7 9.9 108.9 10.2 C 109.1 10.5 109.8 10.7 110.4 10.7 C 111.0 10.7 111.7 10.9 111.9 11.2 C 112.1 11.5 112.6 11.7 112.9 11.7 C 113.2 11.7 113.7 11.9 113.9 12.2 C 114.1 12.5 114.6 12.7 114.9 12.7 C 115.2 12.7 115.7 12.9 115.9 13.2 C 116.1 13.5 116.6 13.7 116.9 13.7 C 117.2 13.7 117.7 13.9 117.9 14.2 C 118.1 14.5 118.6 14.7 118.9 14.7 C 119.2 14.7 119.7 14.9 119.9 15.2 C 120.1 15.5 120.6 15.7 120.9 15.7 C 121.2 15.7 121.7 15.9 121.9 16.2 C 122.1 16.5 122.6 16.7 122.9 16.7 C 123.2 16.7 123.9 17.2 124.4 17.7 C 124.9 18.3 125.6 18.7 125.9 18.7 C 126.2 18.7 126.9 19.2 127.4 19.7 C 127.9 20.3 128.6 20.7 128.9 20.7 C 129.2 20.7 130.1 21.4 130.9 22.2 C 131.7 23.0 132.6 23.7 132.9 23.7 C 133.6 23.7 142.9 33.1 142.9 33.7 C 142.9 34.0 143.6 34.9 144.4 35.7 C 145.2 36.5 145.9 37.4 145.9 37.7 C 145.9 38.0 146.4 38.7 146.9 39.2 C 147.5 39.7 147.9 40.4 147.9 40.7 C 147.9 41.0 148.4 41.7 148.9 42.2 C 149.5 42.7 149.9 43.4 149.9 43.7 C 149.9 44.0 150.1 44.5 150.4 44.7 C 150.7 44.9 150.9 45.4 150.9 45.7 C 150.9 46.0 151.1 46.5 151.4 46.7 C 151.7 46.9 151.9 47.4 151.9 47.7 C 151.9 48.0 152.1 48.5 152.4 48.7 C 152.7 48.9 152.9 49.4 152.9 49.7 C 152.9 50.0 153.1 50.5 153.4 50.7 C 153.7 50.9 153.9 51.4 153.9 51.7 C 153.9 52.0 154.1 52.5 154.4 52.7 C 154.7 52.9 154.9 53.6 154.9 54.2 C 154.9 54.8 155.1 55.5 155.4 55.7 C 155.7 55.9 155.9 56.4 155.9 56.7 C 155.9 57.0 156.1 57.5 156.4 57.7 C 156.7 57.9 156.9 58.4 156.9 58.8 C 156.9 59.1 157.1 59.5 157.4 59.6 C 157.7 59.7 157.9 60.0 157.9 60.2 C 157.9 60.5 157.7 60.7 157.4 60.7 C 157.1 60.7 156.9 60.9 156.9 61.2 C 156.9 61.4 157.1 61.7 157.4 61.8 C 157.7 61.9 157.9 62.4 157.9 63.2 C 157.9 63.8 158.1 64.5 158.4 64.7 C 158.8 65.0 158.9 65.8 158.9 67.2 C 158.9 68.6 159.1 69.4 159.4 69.7 C 159.8 70.0 159.9 70.9 159.9 73.7 C 159.9 76.5 160.0 77.4 160.4 77.7 C 161.1 78.3 161.1 88.1 160.4 88.7 C 160.0 89.0 159.9 89.9 159.9 92.2 C 159.9 94.5 159.8 95.4 159.4 95.7 C 159.0 96.0 158.9 96.8 158.9 98.7 C 158.9 100.6 158.8 101.4 158.4 101.7 C 158.1 101.9 157.9 102.6 157.9 103.2 C 157.9 103.8 157.7 104.5 157.4 104.7 C 157.1 104.9 156.9 105.6 156.9 106.2 C 156.9 106.8 156.7 107.5 156.4 107.7 C 156.1 107.9 155.9 108.6 155.9 109.2 C 155.9 109.8 155.7 110.5 155.4 110.7 C 155.1 110.9 154.9 111.6 154.9 112.2 C 154.9 112.8 154.7 113.5 154.4 113.7 C 154.1 113.9 153.9 114.4 153.9 114.7 C 153.9 115.0 153.7 115.5 153.4 115.7 C 153.1 115.9 152.9 116.4 152.9 116.7 C 152.9 117.0 152.7 117.5 152.4 117.7 C 152.1 117.9 151.9 118.4 151.9 118.7 C 151.9 119.0 151.7 119.5 151.4 119.7 C 151.1 119.9 150.9 120.4 150.9 120.7 C 150.9 121.0 150.7 121.5 150.4 121.7 C 150.1 121.9 149.9 122.4 149.9 122.7 C 149.9 123.0 149.5 123.7 148.9 124.2 C 148.4 124.7 147.9 125.4 147.9 125.7 C 147.9 126.0 147.7 126.5 147.4 126.7 C 147.1 126.9 146.9 127.4 146.9 127.7 C 146.9 128.0 146.7 128.5 146.4 128.7 C 146.1 128.9 145.9 129.4 145.9 129.7 C 145.9 130.0 145.5 130.7 144.9 131.2 C 144.4 131.7 143.9 132.4 143.9 132.7 C 143.9 133.0 143.5 133.7 142.9 134.2 C 142.4 134.7 141.9 135.4 141.9 135.7 C 141.9 136.0 141.5 136.7 140.9 137.2 C 140.4 137.7 139.9 138.4 139.9 138.7 C 139.9 139.0 139.0 140.1 137.9 141.2 C 136.8 142.3 135.9 143.4 135.9 143.7 C 135.9 144.4 123.6 156.7 122.9 156.7 C 122.6 156.7 121.5 157.6 120.4 158.7 C 119.3 159.8 118.2 160.7 117.9 160.7 C 117.6 160.7 116.9 161.2 116.4 161.7 C 115.9 162.3 115.2 162.7 114.9 162.7 C 114.6 162.7 113.9 163.2 113.4 163.7 C 112.9 164.3 112.2 164.7 111.9 164.7 C 111.6 164.7 110.7 165.4 109.9 166.2 C 109.1 167.0 108.2 167.7 107.9 167.7 C 107.6 167.7 107.1 167.9 106.9 168.2 C 106.7 168.5 106.2 168.7 105.9 168.7 C 105.6 168.7 105.1 168.9 104.9 169.2 C 104.7 169.5 104.2 169.7 103.9 169.7 C 103.6 169.7 103.1 169.9 102.9 170.2 C 102.7 170.5 102.2 170.7 101.9 170.7 C 101.6 170.7 100.9 171.2 100.4 171.7 C 99.9 172.3 99.2 172.7 98.9 172.7 C 98.6 172.7 98.1 172.9 97.9 173.2 C 97.7 173.5 97.0 173.7 96.4 173.7 C 95.8 173.7 95.1 173.9 94.9 174.2 C 94.7 174.5 94.2 174.7 93.9 174.7 C 93.6 174.7 93.1 174.9 92.9 175.2 C 92.7 175.5 92.2 175.7 91.9 175.7 C 91.6 175.7 91.1 175.9 90.9 176.2 C 90.7 176.5 90.0 176.7 89.4 176.7 C 88.8 176.7 88.1 176.9 87.9 177.2 C 87.7 177.5 87.2 177.7 86.9 177.7 C 86.6 177.7 86.1 177.9 85.9 178.2 C 85.7 178.5 85.0 178.7 84.4 178.7 C 83.8 178.7 83.1 178.9 82.9 179.2 C 82.2 180.0 79.5 179.9 78.6 178.9 Z
         M 226.9 145.2 C 226.7 144.9 226.2 144.7 225.9 144.7 C 225.2 144.7 221.9 141.4 221.9 140.7 C 221.9 140.4 221.7 139.9 221.4 139.7 C 221.0 139.4 220.9 137.2 220.8 125.1 L 220.7 110.9 L 220.0 110.8 C 219.6 110.7 219.1 110.4 218.9 110.2 C 218.7 109.9 218.2 109.7 217.9 109.7 C 217.6 109.7 217.1 109.5 216.9 109.2 C 216.7 108.9 216.0 108.7 215.4 108.7 C 214.8 108.7 214.1 108.5 213.9 108.2 C 213.7 107.9 213.2 107.7 212.9 107.7 C 212.6 107.7 211.9 107.3 211.4 106.7 C 210.9 106.2 210.2 105.7 209.9 105.7 C 209.6 105.7 208.7 105.0 207.9 104.2 C 207.1 103.4 206.2 102.7 205.9 102.7 C 205.2 102.7 202.9 100.3 202.9 99.7 C 202.9 99.4 202.2 98.5 201.4 97.7 C 200.6 96.9 199.9 96.0 199.9 95.7 C 199.9 95.4 199.5 94.7 198.9 94.2 C 198.4 93.7 197.9 93.0 197.9 92.7 C 197.9 92.4 197.7 91.9 197.4 91.7 C 197.1 91.5 196.9 91.0 196.9 90.7 C 196.9 90.4 196.7 89.9 196.4 89.7 C 196.1 89.5 195.9 88.8 195.9 88.2 C 195.9 87.6 195.7 86.9 195.4 86.7 C 195.1 86.4 194.9 85.7 194.9 84.7 C 194.9 83.7 194.7 83.0 194.4 82.7 C 194.0 82.4 193.9 81.1 193.9 75.7 C 193.9 70.3 194.0 69.0 194.4 68.7 C 194.8 68.4 194.9 67.6 194.9 66.2 C 194.9 64.8 195.1 64.0 195.4 63.7 C 195.7 63.5 195.9 63.0 195.9 62.7 C 195.9 62.4 196.1 61.9 196.4 61.7 C 196.7 61.5 196.9 60.9 196.9 60.5 C 196.9 60.1 197.1 59.7 197.4 59.6 C 197.7 59.5 197.9 59.1 197.9 58.7 C 197.9 58.3 197.7 57.9 197.4 57.8 C 197.1 57.7 196.9 57.4 196.9 57.2 C 196.9 56.9 197.1 56.7 197.4 56.7 C 197.7 56.7 197.9 56.9 197.9 57.2 C 197.9 57.5 198.1 57.7 198.4 57.7 C 198.7 57.7 198.9 57.4 198.9 56.8 C 198.9 56.3 199.3 55.7 199.9 55.2 C 200.5 54.7 200.9 54.1 200.9 53.8 C 200.9 53.0 207.2 46.7 207.9 46.7 C 208.2 46.7 208.9 46.3 209.4 45.7 C 209.9 45.2 210.6 44.7 210.9 44.7 C 211.2 44.7 211.9 44.3 212.4 43.7 C 212.9 43.2 213.6 42.7 213.9 42.7 C 214.2 42.7 214.7 42.5 214.9 42.2 C 215.1 41.9 215.8 41.7 216.4 41.7 C 217.0 41.7 217.7 41.5 217.9 41.2 C 218.1 40.9 218.8 40.7 219.4 40.7 C 220.0 40.7 220.7 40.5 220.9 40.2 C 221.5 39.5 238.3 39.5 238.9 40.2 C 239.1 40.5 239.8 40.7 240.4 40.7 C 241.0 40.7 241.7 40.9 241.9 41.2 C 242.1 41.5 242.8 41.7 243.4 41.7 C 244.0 41.7 244.7 41.9 244.9 42.2 C 245.1 42.5 245.6 42.7 245.9 42.7 C 246.2 42.7 246.7 42.9 246.9 43.2 C 247.1 43.5 247.6 43.7 247.9 43.7 C 248.2 43.7 249.1 44.4 249.9 45.2 C 250.7 46.0 251.6 46.7 251.9 46.7 C 252.6 46.7 258.9 53.1 258.9 53.7 C 258.9 54.0 259.4 54.7 259.9 55.2 C 260.5 55.7 260.9 56.4 260.9 56.7 C 260.9 57.0 261.4 57.7 261.9 58.2 C 262.6 58.9 262.9 59.5 262.9 60.2 C 262.9 60.8 263.1 61.5 263.4 61.7 C 263.7 61.9 263.9 62.4 263.9 62.7 C 263.9 63.0 264.1 63.5 264.4 63.7 C 264.7 64.0 264.9 64.7 264.9 65.7 C 264.9 66.7 265.1 67.4 265.4 67.7 C 265.8 68.0 265.9 69.3 265.9 75.2 C 265.9 81.1 265.8 82.4 265.4 82.7 C 265.1 83.0 264.9 83.7 264.9 84.7 C 264.9 85.7 264.7 86.4 264.4 86.7 C 264.1 86.9 263.9 87.6 263.9 88.2 C 263.9 88.8 263.7 89.5 263.4 89.7 C 263.1 89.9 262.9 90.4 262.9 90.7 C 262.9 91.0 262.7 91.5 262.4 91.7 C 262.1 91.9 261.9 92.4 261.9 92.7 C 261.9 93.0 261.7 93.5 261.4 93.7 C 261.1 93.9 260.9 94.4 260.9 94.7 C 260.9 95.0 260.2 95.9 259.4 96.7 C 258.6 97.5 257.9 98.4 257.9 98.7 C 257.9 99.4 253.6 103.7 252.9 103.7 C 252.6 103.7 251.9 104.2 251.4 104.7 C 250.9 105.3 250.2 105.7 249.9 105.7 C 249.6 105.7 248.9 106.2 248.4 106.7 C 247.9 107.3 247.2 107.7 246.9 107.7 C 246.6 107.7 246.1 107.9 245.9 108.2 C 245.7 108.5 245.0 108.7 244.4 108.7 C 243.8 108.7 243.1 108.9 242.9 109.2 C 242.7 109.5 242.2 109.7 241.9 109.7 C 241.6 109.7 241.0 110.1 240.6 110.5 C 239.9 111.2 239.9 111.4 240.0 118.9 L 240.1 126.5 L 252.8 126.6 C 263.6 126.7 265.6 126.8 265.9 127.2 C 266.1 127.5 266.6 127.7 266.9 127.7 C 267.2 127.7 268.4 128.7 269.7 130.0 L 271.9 132.2 L 271.9 135.8 C 271.9 138.5 271.8 139.4 271.4 139.7 C 271.1 139.9 270.9 140.4 270.9 140.7 C 270.9 141.4 267.6 144.7 266.9 144.7 C 266.6 144.7 266.1 144.9 265.9 145.2 C 265.6 145.6 263.0 145.7 246.4 145.7 C 229.9 145.7 227.3 145.6 226.9 145.2 Z
         M 101.9 136.2 C 102.1 135.9 102.6 135.7 102.9 135.7 C 103.6 135.7 106.9 132.4 106.9 131.7 C 106.9 131.4 107.1 130.9 107.4 130.7 C 107.8 130.4 107.9 129.6 107.9 127.7 C 107.9 125.8 107.8 125.0 107.4 124.7 C 107.1 124.5 106.9 124.0 106.9 123.8 C 106.9 122.7 103.5 119.7 102.4 119.7 C 101.8 119.7 101.1 119.5 100.9 119.2 C 100.6 118.8 99.7 118.7 97.4 118.7 C 95.1 118.7 94.2 118.6 93.9 118.2 C 93.7 117.9 93.2 117.7 92.9 117.7 C 92.6 117.7 92.1 117.5 91.9 117.2 C 91.7 116.9 91.3 116.7 91.0 116.7 C 90.3 116.7 86.9 113.4 86.9 112.7 C 86.9 112.4 86.7 111.9 86.4 111.7 C 86.1 111.5 85.9 111.0 85.9 110.7 C 85.9 110.4 85.7 109.9 85.4 109.7 C 85.1 109.5 84.9 108.8 84.9 108.2 C 84.9 107.6 84.7 106.9 84.4 106.7 C 84.0 106.3 83.9 102.6 83.9 77.2 C 83.9 51.8 84.0 48.1 84.4 47.7 C 84.8 47.4 84.9 46.3 84.9 42.2 C 84.9 38.1 84.8 37.0 84.4 36.7 C 84.1 36.4 83.9 35.7 83.9 34.8 C 83.9 33.3 83.8 33.1 81.7 31.0 L 79.4 28.7 L 75.9 28.7 L 72.4 28.7 L 70.9 30.2 C 70.0 31.1 69.1 31.7 68.7 31.7 C 68.1 31.7 67.9 31.9 67.9 32.5 C 67.9 32.9 67.7 33.5 67.4 33.7 C 67.0 34.0 66.9 35.4 66.9 41.7 C 66.9 48.0 66.8 49.4 66.4 49.7 C 66.1 49.9 65.9 50.4 65.9 50.7 C 65.9 51.0 65.7 51.5 65.4 51.7 C 65.1 51.9 64.9 52.4 64.9 52.6 C 64.9 53.4 62.6 55.7 61.9 55.7 C 61.6 55.7 61.1 55.9 60.9 56.2 C 60.6 56.5 59.9 56.7 58.9 56.7 C 57.9 56.7 57.2 56.9 56.9 57.2 C 56.6 57.6 55.4 57.7 50.4 57.7 C 45.4 57.7 44.3 57.8 43.9 58.2 C 43.7 58.5 43.1 58.7 42.7 58.7 C 42.1 58.7 41.9 58.9 41.9 59.5 C 41.9 59.9 41.5 60.7 40.9 61.2 C 40.4 61.7 39.9 62.4 39.9 62.7 C 39.9 63.0 39.7 63.5 39.4 63.7 C 38.7 64.3 38.7 68.1 39.4 68.7 C 39.7 68.9 39.9 69.4 39.9 69.7 C 39.9 70.4 43.2 73.7 43.9 73.7 C 44.2 73.7 44.7 73.9 44.9 74.2 C 45.5 75.0 61.3 74.9 61.9 74.2 C 62.2 73.8 62.9 73.7 64.5 73.8 L 66.7 73.9 L 66.8 92.1 C 66.9 107.7 67.0 110.4 67.4 110.7 C 67.7 111.0 67.9 111.7 67.9 112.7 C 67.9 113.7 68.1 114.4 68.4 114.7 C 68.7 114.9 68.9 115.4 68.9 115.7 C 68.9 116.0 69.1 116.5 69.4 116.7 C 69.7 116.9 69.9 117.6 69.9 118.2 C 69.9 118.9 70.2 119.5 70.9 120.2 C 71.5 120.7 71.9 121.5 71.9 121.9 C 71.9 122.6 72.1 122.7 72.9 122.7 C 73.7 122.7 73.9 122.8 73.9 123.5 C 73.9 123.9 74.1 124.5 74.4 124.7 C 74.7 124.9 74.9 125.4 74.9 125.6 C 74.9 126.3 76.2 127.7 76.9 127.7 C 77.2 127.7 78.3 128.6 79.4 129.7 C 80.5 130.8 81.6 131.7 81.9 131.7 C 82.2 131.7 82.7 131.9 82.9 132.2 C 83.1 132.5 83.6 132.7 83.9 132.7 C 84.2 132.7 84.7 132.9 84.9 133.2 C 85.1 133.5 85.6 133.7 85.9 133.7 C 86.2 133.7 86.7 133.9 86.9 134.2 C 87.1 134.5 87.6 134.7 87.9 134.7 C 88.2 134.7 88.7 134.9 88.9 135.2 C 89.2 135.6 90.0 135.7 91.4 135.7 C 92.9 135.7 93.6 135.9 93.9 136.2 C 94.2 136.6 95.1 136.7 97.9 136.7 C 100.7 136.7 101.6 136.6 101.9 136.2 Z
         M 371.4 116.7 C 370.9 116.2 370.1 115.7 369.7 115.7 C 369.1 115.7 368.9 115.5 368.9 114.9 C 368.9 114.5 368.5 113.7 367.9 113.2 C 367.1 112.4 366.9 112.0 366.9 110.7 C 366.9 109.7 366.7 109.0 366.4 108.7 C 365.7 108.1 365.7 101.3 366.4 100.7 C 366.8 100.3 366.9 99.1 366.8 92.6 L 366.7 84.9 L 357.0 84.8 C 348.9 84.7 347.3 84.6 346.9 84.2 C 346.7 83.9 346.0 83.7 345.4 83.7 C 344.3 83.7 340.9 80.7 340.9 79.7 C 340.9 79.4 340.7 78.9 340.4 78.7 C 340.0 78.4 339.9 77.5 339.9 74.7 C 339.9 71.9 340.0 71.0 340.4 70.7 C 340.7 70.5 340.9 70.0 340.9 69.7 C 340.9 69.0 343.3 66.7 344.0 66.7 C 344.3 66.7 344.7 66.5 344.9 66.2 C 345.1 65.9 345.8 65.7 346.4 65.7 C 347.0 65.7 347.7 65.5 347.9 65.2 C 348.3 64.8 350.3 64.7 362.4 64.7 C 374.5 64.7 376.6 64.8 376.9 65.2 C 377.1 65.5 377.8 65.7 378.4 65.7 C 379.0 65.7 379.7 65.9 379.9 66.2 C 380.1 66.5 380.6 66.7 380.9 66.7 C 381.6 66.7 384.9 70.0 384.9 70.8 C 384.9 71.0 385.1 71.5 385.4 71.7 C 385.8 72.1 385.9 74.6 385.9 91.2 C 385.9 107.8 385.8 110.3 385.4 110.7 C 385.1 110.9 384.9 111.4 384.9 111.7 C 384.9 112.0 384.7 112.5 384.4 112.7 C 384.1 112.9 383.9 113.4 383.9 113.7 C 383.9 114.4 381.6 116.7 380.9 116.7 C 380.6 116.7 380.1 116.9 379.9 117.2 C 379.6 117.6 378.7 117.7 375.9 117.7 C 372.4 117.7 372.4 117.7 371.4 116.7 Z
         M 286.4 106.7 C 285.9 106.2 285.2 105.7 284.9 105.7 C 284.2 105.7 282.9 104.3 282.9 103.6 C 282.9 103.4 282.7 102.9 282.4 102.7 C 282.1 102.5 281.9 102.0 281.9 101.7 C 281.9 101.4 281.7 100.9 281.4 100.7 C 281.0 100.3 280.9 97.0 280.9 74.2 C 280.9 51.4 281.0 48.1 281.4 47.7 C 281.7 47.5 281.9 46.8 281.9 46.2 C 281.9 45.1 284.9 41.7 286.0 41.7 C 286.3 41.7 286.7 41.5 286.9 41.2 C 287.3 40.8 290.5 40.7 312.4 40.7 C 334.3 40.7 337.5 40.8 337.9 41.2 C 338.1 41.5 338.6 41.7 338.9 41.7 C 339.6 41.7 341.9 44.1 341.9 44.8 C 341.9 45.1 342.1 45.5 342.4 45.7 C 342.8 46.0 342.9 46.9 342.9 49.7 C 342.9 52.5 342.8 53.4 342.4 53.7 C 342.1 53.9 341.9 54.4 341.9 54.7 C 341.9 55.4 338.6 58.7 337.9 58.7 C 337.6 58.7 337.1 58.9 336.9 59.2 C 336.6 59.6 334.0 59.7 318.3 59.8 L 300.1 59.9 L 300.0 72.1 C 299.9 82.8 300.0 84.4 300.4 84.6 C 301.1 84.8 301.1 85.6 300.4 85.8 C 299.7 86.1 299.8 87.2 300.7 88.0 L 301.5 88.7 L 319.0 88.7 C 334.1 88.7 336.6 88.8 336.9 89.2 C 337.1 89.5 337.6 89.7 337.9 89.7 C 338.2 89.7 339.4 90.7 340.7 92.0 L 342.9 94.2 L 342.9 98.2 L 342.9 102.2 L 341.9 103.2 C 341.4 103.7 340.9 104.5 340.9 104.9 C 340.9 105.5 340.7 105.7 340.1 105.7 C 339.7 105.7 339.1 105.9 338.9 106.2 C 338.7 106.5 338.2 106.7 337.9 106.7 C 337.6 106.7 337.1 106.9 336.9 107.2 C 336.6 107.6 333.4 107.7 311.9 107.7 L 287.4 107.7 L 286.4 106.7 Z
         M 232.9 92.2 C 233.2 91.9 233.9 91.7 234.9 91.7 C 235.9 91.7 236.6 91.5 236.9 91.2 C 237.1 90.9 237.6 90.7 237.9 90.7 C 238.6 90.7 244.9 84.4 244.9 83.7 C 244.9 83.4 245.1 82.9 245.4 82.7 C 245.7 82.5 245.9 81.8 245.9 81.2 C 245.9 80.6 246.1 79.9 246.4 79.7 C 246.8 79.4 246.9 78.4 246.9 75.2 C 246.9 72.0 246.8 71.0 246.4 70.7 C 246.1 70.5 245.9 70.0 245.9 69.7 C 245.9 69.4 245.7 68.9 245.4 68.7 C 245.1 68.5 244.9 68.0 244.9 67.7 C 244.9 67.4 244.5 66.7 243.9 66.2 C 243.4 65.7 242.9 64.9 242.9 64.5 C 242.9 63.8 242.7 63.7 241.9 63.7 C 241.0 63.7 240.9 63.6 240.9 62.7 C 240.9 61.9 240.8 61.7 240.1 61.7 C 239.7 61.7 239.1 61.5 238.9 61.2 C 238.7 60.9 238.2 60.7 237.9 60.7 C 237.6 60.7 237.1 60.5 236.9 60.2 C 236.7 59.9 236.2 59.7 235.9 59.7 C 235.6 59.7 235.1 59.5 234.9 59.2 C 234.6 58.8 233.6 58.7 229.9 58.7 C 226.2 58.7 225.2 58.8 224.9 59.2 C 224.7 59.5 224.0 59.7 223.4 59.7 C 222.6 59.7 222.0 60.1 220.4 61.7 C 219.3 62.8 218.2 63.7 217.9 63.7 C 216.6 63.7 215.3 66.2 216.4 66.6 C 216.7 66.7 216.9 67.0 216.9 67.2 C 216.9 67.5 216.7 67.7 216.4 67.7 C 216.1 67.7 215.9 67.5 215.9 67.2 C 215.9 66.9 215.7 66.7 215.4 66.7 C 215.1 66.7 214.9 67.0 214.9 67.7 C 214.9 68.2 214.7 68.7 214.4 68.8 C 214.1 68.9 213.9 69.3 213.9 69.7 C 213.9 70.0 213.7 70.5 213.4 70.7 C 213.0 71.0 212.9 72.0 212.9 75.2 C 212.9 78.4 213.0 79.4 213.4 79.7 C 213.7 79.9 213.9 80.6 213.9 81.2 C 213.9 81.8 214.1 82.5 214.4 82.7 C 214.7 82.9 214.9 83.4 214.9 83.7 C 214.9 84.3 220.2 89.7 220.9 89.7 C 221.2 89.7 221.9 90.2 222.4 90.7 C 223.2 91.5 223.6 91.7 224.9 91.7 C 225.9 91.7 226.7 91.9 226.9 92.2 C 227.2 92.6 228.0 92.7 229.9 92.7 C 231.8 92.7 232.6 92.6 232.9 92.2 Z
         M 106.2 72.0 L 108.9 69.2 L 108.9 66.2 C 108.9 63.9 108.8 63.0 108.4 62.7 C 108.1 62.5 107.9 62.1 107.9 61.8 C 107.9 61.1 105.6 58.7 104.9 58.7 C 104.6 58.7 104.1 58.5 103.9 58.2 C 103.6 57.8 102.7 57.7 100.0 57.7 L 96.4 57.7 L 94.7 59.4 C 93.7 60.4 92.9 61.4 92.9 61.7 C 92.9 62.0 92.7 62.5 92.4 62.7 C 92.0 63.0 91.9 63.9 91.9 66.2 C 91.9 69.2 91.9 69.3 92.9 70.2 C 93.5 70.7 93.9 71.5 93.9 71.9 C 93.9 72.5 94.1 72.7 94.7 72.7 C 95.1 72.7 95.9 73.2 96.4 73.7 C 97.3 74.7 97.5 74.7 100.4 74.7 L 103.4 74.7 L 106.2 72.0 Z"/>
</svg>
