<?xml version="1.0" encoding="UTF-8"?>
<svg xmlns="http://www.w3.org/2000/svg" viewBox="0 0 963.0 239.7" fill="#FFFFFF">
  <path fill-rule="evenodd" d="M 85.5 223.9 C 43.7 214.7 14.0 178.0 14.0 135.5 C 14.0 54.3 111.8 14.0 168.1 72.0 C 217.9 123.2 191.8 209.1 122.0 223.9 C 113.9 225.7 93.5 225.6 85.5 223.9 Z
         M 107.0 215.7 C 107.0 213.1 107.3 211.3 107.7 211.7 C 108.1 212.1 108.3 214.2 108.2 216.4 C 108.0 218.7 108.3 220.4 108.9 220.4 C 109.6 220.4 110.0 217.7 110.0 213.4 C 110.0 206.0 109.6 204.9 108.1 208.6 L 107.2 210.9 L 107.1 208.6 C 107.0 204.0 105.0 206.6 105.0 211.4 C 105.0 216.3 105.0 216.4 102.0 216.4 C 99.2 216.4 99.0 216.1 99.0 212.4 C 99.0 209.1 99.4 208.4 101.3 208.1 C 103.2 207.8 103.3 207.6 101.8 206.9 C 98.4 205.4 97.0 207.0 97.0 212.3 L 97.0 217.4 L 101.0 217.4 C 103.9 217.4 105.0 217.8 105.0 218.9 C 105.0 219.7 105.5 220.4 106.0 220.4 C 106.6 220.4 107.0 218.3 107.0 215.7 Z
         M 75.0 208.4 C 78.3 201.9 78.5 201.4 77.2 201.4 C 76.4 201.4 71.0 212.5 71.0 213.9 C 71.0 215.5 72.4 213.6 75.0 208.4 Z
         M 72.3 206.6 C 74.6 201.2 75.1 197.8 72.9 201.6 C 72.3 202.6 71.4 203.1 70.8 202.7 C 70.1 202.3 69.9 202.6 70.3 203.8 C 70.7 204.7 70.4 207.0 69.6 208.9 C 68.8 210.8 68.5 212.4 68.9 212.4 C 69.4 212.4 70.9 209.8 72.3 206.6 Z
         M 136.6 206.9 C 138.3 205.7 138.3 205.2 137.2 203.4 C 136.5 202.2 136.2 200.9 136.5 200.4 C 137.3 199.1 132.4 199.8 130.7 201.2 C 129.4 202.3 129.4 202.8 130.7 205.4 C 132.3 208.7 133.7 209.1 136.6 206.9 Z
         M 119.0 198.8 C 166.6 187.6 185.2 127.7 152.4 91.5 C 117.5 52.9 53.9 68.6 41.0 119.0 C 28.9 166.2 71.6 210.0 119.0 198.8 Z
         M 93.9 192.3 C 89.3 189.5 84.4 186.2 83.0 184.8 L 80.6 182.3 L 92.3 170.6 L 104.0 158.9 L 115.8 170.7 L 127.5 182.5 L 124.0 185.5 C 119.6 189.3 106.0 197.3 103.9 197.3 C 103.1 197.4 98.6 195.1 93.9 192.3 Z
         M 168.6 189.6 C 172.5 184.8 173.7 182.8 172.1 183.8 C 171.4 184.3 169.8 183.6 168.2 182.2 C 162.4 176.9 162.4 176.9 159.1 180.5 C 155.1 185.0 155.2 186.7 159.2 182.6 L 162.4 179.5 L 166.2 182.5 C 170.3 185.8 170.5 188.6 166.4 185.9 C 163.8 184.2 163.1 185.3 165.5 187.4 C 167.6 189.1 166.7 189.8 164.1 188.4 C 163.0 187.8 162.0 187.7 162.0 188.2 C 162.0 188.7 162.7 189.4 163.6 189.8 C 164.5 190.1 165.0 191.0 164.7 191.9 C 163.7 194.5 165.4 193.5 168.6 189.6 Z
         M 49.6 188.6 C 53.3 185.6 53.9 184.4 51.5 184.4 C 50.7 184.4 49.6 183.3 49.1 182.1 C 47.8 178.5 45.2 176.8 43.2 178.0 C 40.5 179.7 41.1 183.6 44.3 185.2 C 47.2 186.6 47.7 188.2 45.8 190.2 C 43.6 192.4 46.1 191.4 49.6 188.6 Z
         M 71.4 173.2 C 66.4 167.8 56.3 145.7 58.1 144.0 C 59.9 142.2 85.4 140.0 104.5 140.1 C 124.8 140.1 147.2 142.1 149.2 144.1 C 151.2 146.2 143.1 165.3 137.2 172.2 L 134.5 175.4 L 119.2 160.1 L 103.9 144.7 L 88.7 160.1 L 73.5 175.5 L 71.4 173.2 Z
         M 660.1 154.3 C 647.7 152.6 638.0 145.9 638.0 139.0 C 638.0 135.1 643.4 129.8 649.8 127.2 C 658.2 123.8 679.8 123.9 688.3 127.2 C 714.9 137.8 693.2 158.7 660.1 154.3 Z
         M 233.7 152.7 C 233.3 152.3 233.0 147.6 233.0 142.3 C 233.0 136.8 232.6 132.2 232.0 131.9 C 231.5 131.5 231.0 130.6 231.0 129.8 C 231.0 128.7 232.7 128.4 238.5 128.4 L 246.0 128.4 L 246.0 135.4 L 246.0 142.4 L 268.0 142.4 L 290.0 142.4 L 290.0 147.9 L 290.0 153.4 L 262.2 153.4 C 246.9 153.4 234.1 153.1 233.7 152.7 Z
         M 344.0 131.9 L 344.0 110.5 L 338.3 110.2 L 332.5 109.9 L 332.2 104.6 L 331.9 99.4 L 338.1 99.4 L 344.2 99.4 L 343.9 91.7 C 343.6 86.8 343.0 83.9 342.2 83.6 C 341.6 83.4 341.0 82.6 341.0 81.8 C 341.0 80.7 342.7 80.4 348.5 80.4 L 356.0 80.4 L 356.0 116.9 L 356.0 153.4 L 350.0 153.4 L 344.0 153.4 L 344.0 131.9 Z
         M 359.0 116.9 L 359.0 80.4 L 365.5 80.4 L 372.0 80.4 L 372.0 116.9 L 372.0 153.4 L 365.5 153.4 L 359.0 153.4 L 359.0 116.9 Z
         M 421.0 146.4 L 421.0 139.4 L 401.8 139.1 L 382.5 138.9 L 382.3 112.1 C 382.1 95.4 381.6 85.4 381.0 85.4 C 380.5 85.4 380.0 84.7 380.0 83.9 C 380.0 82.6 382.6 82.4 397.0 82.4 L 414.0 82.4 L 414.0 87.4 L 414.0 92.4 L 405.0 92.4 L 396.0 92.4 L 396.0 110.4 L 396.0 128.4 L 408.5 128.4 L 421.0 128.4 L 421.0 106.4 C 421.0 92.9 420.6 84.2 420.0 83.9 C 419.5 83.5 419.0 82.6 419.0 81.8 C 419.0 80.7 420.7 80.4 426.5 80.4 L 434.0 80.4 L 434.0 89.9 C 434.0 97.6 434.3 99.4 435.5 99.4 C 436.8 99.4 437.0 97.6 437.0 89.9 L 437.0 80.4 L 443.5 80.4 L 450.0 80.4 L 450.0 116.9 L 450.0 153.4 L 443.5 153.4 L 437.0 153.4 L 437.0 131.9 C 437.0 113.4 436.8 110.4 435.5 110.4 C 434.2 110.4 434.0 113.4 434.0 131.9 L 434.0 153.4 L 427.5 153.4 L 421.0 153.4 L 421.0 146.4 Z
         M 513.0 145.9 L 513.0 138.4 L 489.0 138.4 L 465.0 138.4 L 465.0 132.9 L 465.0 127.4 L 495.5 127.4 L 526.0 127.4 L 526.0 140.4 L 526.0 153.4 L 519.5 153.4 L 513.0 153.4 L 513.0 145.9 Z
         M 766.0 119.4 C 766.0 90.6 765.8 85.3 764.5 84.0 C 761.6 81.1 762.8 80.4 771.0 80.4 L 779.0 80.4 L 779.0 89.9 L 779.0 99.4 L 784.5 99.4 L 790.0 99.4 L 790.0 104.9 L 790.0 110.4 L 784.5 110.4 L 779.0 110.4 L 779.0 131.9 L 779.0 153.4 L 772.5 153.4 L 766.0 153.4 L 766.0 119.4 Z
         M 833.0 146.4 L 833.0 139.4 L 814.0 139.4 L 795.0 139.4 L 795.0 113.4 C 795.0 91.7 794.8 87.3 793.5 86.0 C 790.2 82.7 791.8 82.4 809.0 82.4 L 826.0 82.4 L 826.0 87.4 L 826.0 92.4 L 817.0 92.4 L 808.0 92.4 L 808.0 110.4 L 808.0 128.4 L 820.5 128.4 L 833.0 128.4 L 833.0 106.4 C 833.0 92.9 832.6 84.2 832.0 83.9 C 831.5 83.5 831.0 82.6 831.0 81.8 C 831.0 80.7 832.7 80.4 838.5 80.4 L 846.0 80.4 L 846.0 89.9 C 846.0 97.6 846.3 99.4 847.5 99.4 C 848.8 99.4 849.0 97.6 849.0 89.9 L 849.0 80.4 L 855.5 80.4 L 862.0 80.4 L 862.0 116.9 L 862.0 153.4 L 855.5 153.4 L 849.0 153.4 L 849.0 131.9 C 849.0 113.4 848.8 110.4 847.5 110.4 C 846.2 110.4 846.0 113.4 846.0 131.9 L 846.0 153.4 L 839.5 153.4 L 833.0 153.4 L 833.0 146.4 Z
         M 925.0 145.9 L 925.0 138.4 L 901.0 138.4 L 877.0 138.4 L 877.0 132.9 L 877.0 127.4 L 907.5 127.4 L 938.0 127.4 L 938.0 140.4 L 938.0 153.4 L 931.5 153.4 L 925.0 153.4 L 925.0 145.9 Z
         M 542.0 144.4 L 542.0 139.4 L 548.0 139.4 L 554.0 139.4 L 554.0 128.8 C 554.0 120.4 553.7 118.2 552.5 117.7 C 551.7 117.4 551.0 116.5 551.0 115.8 C 551.0 114.7 552.8 114.4 558.5 114.4 L 566.0 114.4 L 566.0 126.9 C 566.0 138.7 566.1 139.4 568.0 139.4 C 569.9 139.4 570.0 138.7 570.0 126.9 L 570.0 114.4 L 576.5 114.4 L 583.0 114.4 L 583.0 126.9 L 583.0 139.5 L 586.8 139.2 L 590.5 138.9 L 590.5 115.9 L 590.5 92.9 L 568.3 92.6 L 546.0 92.3 L 546.0 86.8 L 546.0 81.3 L 574.6 81.6 L 603.1 81.9 L 603.3 110.4 L 603.5 138.9 L 607.0 139.4 C 610.5 139.9 610.5 139.9 610.5 144.6 L 610.5 149.4 L 576.3 149.4 L 542.0 149.4 L 542.0 144.4 Z
         M 678.9 144.4 C 687.4 142.0 687.4 137.4 678.8 134.9 C 666.4 131.2 650.0 135.3 653.7 141.2 C 656.0 144.8 670.9 146.7 678.9 144.4 Z
         M 56.6 133.2 C 56.2 128.6 56.0 118.1 56.2 109.9 L 56.5 94.9 L 66.0 93.7 C 78.0 92.2 89.8 88.5 97.5 83.8 L 103.5 80.1 L 107.5 82.4 C 109.7 83.6 113.2 85.5 115.2 86.5 C 121.1 89.5 135.9 93.4 143.7 94.0 L 151.0 94.7 L 151.0 118.1 L 151.0 141.6 L 146.8 140.9 C 119.2 136.5 88.9 136.5 61.4 140.9 L 57.2 141.6 L 56.6 133.2 Z
         M 711.0 134.4 L 711.0 129.4 L 716.5 129.4 L 722.0 129.4 L 722.0 119.4 C 722.0 113.9 721.6 109.2 721.0 108.9 C 720.5 108.5 720.0 107.6 720.0 106.8 C 720.0 105.7 721.7 105.4 727.5 105.4 L 735.0 105.4 L 735.2 117.1 L 735.5 128.9 L 739.0 128.9 L 742.5 128.9 L 742.5 110.9 L 742.5 92.9 L 728.8 92.6 L 715.0 92.3 L 715.0 87.3 L 715.0 82.4 L 735.5 82.4 L 756.0 82.4 L 756.0 105.9 L 756.0 129.4 L 759.0 129.4 C 762.0 129.4 762.0 129.5 762.0 134.4 L 762.0 139.4 L 736.5 139.4 L 711.0 139.4 L 711.0 134.4 Z
         M 328.2 130.1 C 322.6 122.9 318.1 118.7 317.2 119.9 C 314.2 124.5 310.3 128.6 307.0 130.9 L 303.0 133.7 L 300.0 130.9 L 297.1 128.1 L 301.6 123.0 C 312.4 111.0 318.8 92.2 314.1 86.2 C 310.7 81.8 311.3 81.4 321.0 81.4 L 330.0 81.4 L 330.0 86.2 C 330.0 91.6 327.9 100.7 325.1 107.0 L 323.2 111.3 L 328.0 114.8 C 330.6 116.8 334.4 120.2 336.4 122.4 L 340.1 126.4 L 336.8 130.8 C 335.0 133.3 333.2 135.3 332.9 135.3 C 332.6 135.3 330.4 133.0 328.2 130.1 Z
         M 276.0 123.9 L 276.0 114.4 L 268.9 114.4 C 262.5 114.4 261.5 114.6 258.4 117.3 C 245.2 129.0 221.9 119.0 222.0 101.6 C 222.2 83.5 246.5 74.6 260.6 87.5 C 262.4 89.1 264.0 89.4 269.1 89.2 C 276.0 88.8 277.7 87.2 274.6 84.1 C 271.6 81.1 272.8 80.4 281.0 80.4 L 289.0 80.4 L 289.0 106.9 L 289.0 133.4 L 282.5 133.4 L 276.0 133.4 L 276.0 123.9 Z
         M 29.5 129.4 C 31.4 129.4 33.0 128.9 33.0 128.4 C 33.0 127.8 32.0 127.4 30.7 127.4 C 29.5 127.4 27.4 126.6 26.0 125.7 C 24.6 124.8 24.1 124.7 24.8 125.4 C 26.6 127.4 26.3 128.1 23.0 129.2 C 21.4 129.8 20.0 130.7 20.0 131.3 C 20.0 132.0 21.1 131.8 23.0 130.9 C 24.6 130.0 27.5 129.4 29.5 129.4 Z
         M 111.8 130.0 C 118.3 126.6 122.0 120.5 122.0 113.4 C 122.0 94.6 98.8 87.6 88.4 103.3 C 80.5 115.3 89.3 131.4 103.8 131.4 C 106.7 131.4 110.3 130.7 111.8 130.0 Z
         M 183.0 129.3 C 181.8 128.5 182.0 127.9 184.5 125.9 C 188.5 122.6 187.2 121.7 183.0 124.9 C 181.2 126.2 178.6 127.4 177.3 127.4 C 173.5 127.4 174.7 129.2 178.8 129.6 C 180.8 129.8 183.0 130.1 183.5 130.2 C 184.1 130.3 183.9 129.9 183.0 129.3 Z
         M 99.1 122.0 C 94.1 119.1 92.7 113.0 96.0 107.7 C 101.2 99.0 115.5 104.8 113.6 114.8 C 112.4 121.2 104.5 125.1 99.1 122.0 Z
         M 474.8 122.4 C 461.9 118.3 456.0 103.4 464.1 95.3 C 466.1 93.3 465.5 92.9 460.3 93.1 C 459.4 93.1 459.0 91.4 459.0 87.8 L 459.0 82.4 L 467.7 82.2 C 475.8 81.9 476.3 81.8 474.7 80.2 C 471.6 77.1 472.7 76.4 481.0 76.4 L 489.0 76.4 L 489.0 79.4 L 489.0 82.4 L 497.1 82.4 L 505.1 82.4 L 504.8 87.6 L 504.5 92.9 L 500.8 93.2 C 497.2 93.5 497.2 93.5 499.0 95.4 C 503.3 99.6 503.5 108.6 499.5 114.7 C 495.4 121.0 482.6 125.0 474.8 122.4 Z
         M 885.7 122.0 C 881.3 120.3 876.5 116.2 874.4 112.2 C 871.6 106.8 873.2 97.1 877.3 94.2 C 877.8 93.9 876.6 93.3 874.6 92.9 C 871.1 92.3 871.0 92.2 871.0 87.3 L 871.0 82.4 L 879.5 82.4 C 887.2 82.4 889.7 81.5 887.0 79.9 C 886.5 79.5 886.0 78.6 886.0 77.8 C 886.0 76.7 887.7 76.4 893.5 76.4 L 901.0 76.4 L 901.0 79.4 L 901.0 82.4 L 909.1 82.4 L 917.1 82.4 L 916.8 87.6 C 916.5 92.7 916.4 92.9 913.3 93.2 L 910.1 93.5 L 912.0 96.2 C 922.2 110.0 903.2 128.5 885.7 122.0 Z
         M 512.0 102.9 C 512.0 90.5 511.7 83.4 511.0 83.4 C 510.5 83.4 510.0 82.7 510.0 81.9 C 510.0 80.7 511.6 80.4 518.0 80.4 L 526.0 80.4 L 526.0 89.9 L 526.0 99.4 L 531.5 99.4 L 537.0 99.4 L 537.0 104.9 L 537.0 110.4 L 531.5 110.4 L 526.0 110.4 L 526.0 116.4 L 526.0 122.4 L 519.0 122.4 L 512.0 122.4 L 512.0 102.9 Z
         M 633.0 117.4 L 633.0 112.4 L 643.8 112.1 L 654.5 111.9 L 654.8 108.2 C 655.0 105.9 654.6 104.0 653.6 103.1 C 650.6 100.1 651.8 99.4 660.0 99.4 L 668.0 99.4 L 668.0 105.9 L 668.0 112.4 L 676.3 112.2 L 684.5 111.9 L 684.5 101.9 L 684.5 91.9 L 661.3 91.6 L 638.0 91.3 L 638.0 86.3 L 638.0 81.4 L 668.0 81.4 L 698.0 81.4 L 698.0 96.9 L 698.0 112.4 L 701.5 112.4 L 705.0 112.4 L 705.0 117.4 L 705.0 122.4 L 669.0 122.4 L 633.0 122.4 L 633.0 117.4 Z
         M 925.0 103.9 C 925.0 88.9 924.7 85.2 923.5 84.0 C 920.6 81.1 921.8 80.4 930.0 80.4 L 938.0 80.4 L 938.0 89.9 L 938.0 99.4 L 943.5 99.4 L 949.0 99.4 L 949.0 104.9 L 949.0 110.4 L 943.5 110.4 L 938.0 110.4 L 938.0 116.4 L 938.0 122.4 L 931.5 122.4 L 925.0 122.4 L 925.0 103.9 Z
         M 70.0 115.9 C 70.0 112.0 69.7 111.4 68.0 111.4 C 66.3 111.4 66.0 112.0 66.0 115.9 C 66.0 119.7 66.3 120.4 68.0 120.4 C 69.7 120.4 70.0 119.7 70.0 115.9 Z
         M 76.0 115.8 C 76.0 112.0 75.7 111.3 74.3 111.5 C 71.5 112.1 71.2 120.4 74.0 120.4 C 75.7 120.4 76.0 119.7 76.0 115.8 Z
         M 139.7 116.9 C 139.4 116.1 139.5 115.2 140.1 114.8 C 141.5 113.9 141.2 110.4 139.6 109.7 C 138.8 109.4 137.8 108.3 137.5 107.3 C 137.2 106.2 136.5 105.6 136.0 105.9 C 134.5 106.8 134.9 110.4 136.5 111.0 C 138.2 111.7 138.6 116.4 136.9 116.4 C 136.3 116.4 136.1 115.7 136.3 115.0 C 137.1 113.1 132.5 108.8 131.5 110.4 C 131.1 111.0 131.6 112.3 132.5 113.3 C 133.4 114.3 133.8 115.8 133.4 116.7 C 132.9 118.1 133.5 118.4 136.5 118.4 C 139.4 118.4 140.1 118.0 139.7 116.9 Z
         M 183.3 113.7 C 184.7 114.1 185.0 113.8 184.6 112.7 C 184.3 111.9 184.0 110.7 184.0 110.0 C 184.0 109.2 183.8 109.2 183.2 110.1 C 182.8 110.7 180.2 111.8 177.5 112.5 C 171.6 114.0 171.7 114.0 172.4 115.2 C 172.8 115.8 174.7 115.6 177.2 114.7 C 179.5 113.9 182.3 113.5 183.3 113.7 Z
         M 485.7 112.9 C 494.4 106.8 487.6 90.9 478.2 95.8 C 470.3 99.9 472.9 114.4 481.5 114.4 C 482.7 114.4 484.5 113.7 485.7 112.9 Z
         M 898.4 112.3 C 903.6 108.2 902.4 97.6 896.5 95.3 C 892.9 94.0 892.6 94.0 889.2 96.9 C 880.3 104.4 889.2 119.5 898.4 112.3 Z
         M 250.4 109.3 C 255.4 103.4 253.0 92.6 246.4 90.9 C 239.9 89.3 234.3 95.6 235.3 103.3 C 236.5 112.3 245.1 115.6 250.4 109.3 Z
         M 35.6 108.5 C 34.3 104.3 26.1 104.0 24.6 108.0 C 24.0 109.5 24.2 109.6 25.2 108.6 C 27.6 106.2 35.0 107.3 35.0 110.1 C 35.0 111.0 35.3 111.4 35.6 111.1 C 35.9 110.8 35.9 109.6 35.6 108.5 Z
         M 179.0 98.7 C 179.0 97.9 176.8 98.5 173.2 100.2 C 169.9 101.6 167.5 103.3 167.7 103.9 C 168.2 105.3 178.9 100.3 179.0 98.7 Z
         M 276.0 101.9 C 276.0 99.5 275.7 99.4 271.0 99.4 C 266.8 99.4 266.0 99.7 266.0 101.2 C 266.0 103.9 266.9 104.4 271.7 104.4 C 275.6 104.4 276.0 104.1 276.0 101.9 Z
         M 45.0 93.2 C 45.0 92.9 43.8 91.8 42.3 90.8 C 40.8 89.9 40.1 89.7 40.8 90.4 C 42.8 92.6 42.3 93.1 37.4 93.8 C 31.4 94.7 29.5 95.4 30.9 96.3 C 32.1 97.0 45.0 94.2 45.0 93.2 Z
         M 167.5 94.8 C 168.3 93.9 169.0 92.2 169.0 90.8 C 169.0 87.7 171.0 86.6 172.7 88.9 C 173.4 89.9 174.0 90.3 174.0 89.8 C 174.0 88.2 171.8 86.4 169.9 86.4 C 168.1 86.4 167.0 88.3 167.0 91.5 C 167.0 92.7 166.2 93.8 165.0 94.1 C 163.9 94.4 163.3 95.0 163.6 95.5 C 164.4 96.8 165.7 96.6 167.5 94.8 Z
         M 52.7 81.8 C 52.3 80.9 50.7 80.4 48.1 80.4 C 44.9 80.4 44.0 80.0 44.0 78.7 C 44.0 77.4 43.7 77.2 42.9 78.1 C 41.0 80.0 43.7 82.4 47.7 82.4 C 50.0 82.4 51.3 82.9 51.7 84.1 C 52.2 85.2 52.5 85.3 52.8 84.5 C 53.0 83.9 53.0 82.6 52.7 81.8 Z
         M 58.1 73.9 C 54.7 69.0 53.5 68.0 52.1 68.8 C 51.7 69.1 52.8 70.9 54.6 72.9 C 56.5 74.9 58.0 76.9 58.0 77.4 C 58.0 77.9 58.7 78.4 59.6 78.4 C 60.7 78.4 60.4 77.3 58.1 73.9 Z
         M 146.5 70.6 C 150.2 64.9 150.4 64.4 149.2 64.4 C 148.3 64.4 142.0 73.3 142.0 74.7 C 142.0 76.5 143.8 74.8 146.5 70.6 Z
         M 71.0 71.1 C 70.3 66.9 64.7 58.1 64.9 61.4 C 65.0 63.1 69.7 72.3 70.4 72.1 C 70.8 71.9 71.1 71.5 71.0 71.1 Z
         M 87.7 63.6 C 86.8 62.6 85.8 59.9 85.4 57.6 C 85.1 55.3 84.2 53.4 83.6 53.4 C 82.6 53.4 82.6 54.4 83.4 57.7 C 84.6 62.3 86.6 65.4 88.3 65.4 C 88.9 65.4 88.6 64.6 87.7 63.6 Z
         M 123.1 59.4 C 124.3 54.8 124.4 53.4 123.5 53.4 C 122.8 53.4 121.9 55.0 121.6 57.1 C 121.2 59.2 120.6 61.9 120.3 63.1 C 119.1 68.4 121.7 64.8 123.1 59.4 Z
         M 107.1 56.3 L 102.1 50.9 L 102.2 55.4 C 102.2 57.8 102.5 58.8 102.7 57.6 C 103.3 54.6 103.4 54.7 107.7 59.5 C 109.8 61.7 111.6 63.1 111.8 62.6 C 112.0 62.1 109.8 59.2 107.1 56.3 Z"/>
</svg>
