<svg xmlns="http://www.w3.org/2000/svg" width="180" height="43" fill="none" viewBox="0 0 180 43"><path fill="#60D084" d="m27.014 7.25-.212-.9c-.9-3.83-4.74-6.222-8.578-5.341A7.084 7.084 0 0 0 12.94 6.14a19.28 19.28 0 0 1 14.073 1.11ZM21.177 13.472c-1.253-.503-6.742-.96-6.065 1.568 1.878-.503 5.022-1.288 6.065-1.568Z"/><path fill="#4AA570" d="M31.526 10.67a18.255 18.255 0 1 0 4.985 12.493l-9.493.023a8.762 8.762 0 1 1-2.393-5.996l6.9-6.52Z"/><path fill="#60D084" d="M40.999 14.975a6.761 6.761 0 0 1-4.756 8.295l-5.539 1.503c-6.662 1.806-13.529-2.13-15.336-8.793l-.267-.987 17.602-4.774A6.761 6.761 0 0 1 41 14.975Z"/><path fill="#4AA570" d="M66.336 31.062 81.43 13.146V7.843H55.645v6.714h14.71L55.261 32.473v5.303h26.81v-6.714H66.336ZM99.163 38.374c8.852 0 14.068-5.003 14.068-13.94V7.844h-8.338v16.334c0 5.131-2.138 7.183-5.644 7.183-3.55 0-5.687-2.052-5.687-7.183V7.843h-8.467v16.591c0 8.937 5.217 13.94 14.068 13.94ZM128.118 31.062l15.094-17.916V7.843h-25.784v6.714h14.709l-15.094 17.916v5.303h26.811v-6.714h-15.736ZM160.945 38.374c8.852 0 14.069-5.003 14.069-13.94V7.844h-8.339v16.334c0 5.131-2.138 7.183-5.644 7.183-3.549 0-5.687-2.052-5.687-7.183V7.843h-8.467v16.591c0 8.937 5.217 13.94 14.068 13.94Z"/></svg>